SplineFontDB: 3.2
FontName: SimplyMono-BookOblique
FullName: Simply Mono Book Oblique
FamilyName: Simply Mono
Weight: Book
Copyright: Copyright (c) 2022-2026 by Wojciech Kalinowski "wmk69" with Reserved Font Name "SimplyMono-BookOblique".\nThis Font Software is licensed under the SIL Open Font License, Version 1.1.
Version: 1.0.0; 2022-02-18
ItalicAngle: -10
UnderlinePosition: -80
UnderlineWidth: 180
Ascent: 1638
Descent: 410
InvalidEm: 0
LayerCount: 2
Layer: 0 1 "Warstwa t+AUIA-a" 1
Layer: 1 1 "Plan pierwszy" 0
XUID: [1021 783 23647091 11603082]
StyleMap: 0x0001
FSType: 0
OS2Version: 3
OS2_WeightWidthSlopeOnly: 0
OS2_UseTypoMetrics: 1
CreationTime: 1260698820
ModificationTime: 1646847304
PfmFamily: 49
TTFWeight: 400
TTFWidth: 5
LineGap: 200
VLineGap: 0
Panose: 2 11 5 9 2 2 3 13 2 4
OS2TypoAscent: 2000
OS2TypoAOffset: 0
OS2TypoDescent: -500
OS2TypoDOffset: 0
OS2TypoLinegap: 200
OS2WinAscent: 2000
OS2WinAOffset: 0
OS2WinDescent: 500
OS2WinDOffset: 0
HheadAscent: 2000
HheadAOffset: 0
HheadDescent: -500
HheadDOffset: 0
OS2SubXSize: 1434
OS2SubYSize: 1331
OS2SubXOff: 0
OS2SubYOff: 287
OS2SupXSize: 1434
OS2SupYSize: 1331
OS2SupXOff: 0
OS2SupYOff: 977
OS2StrikeYSize: 102
OS2StrikeYPos: 512
OS2CapHeight: 1510
OS2XHeight: 1100
OS2Vendor: '    '
OS2CodePages: 20000093.00000000
OS2UnicodeRanges: 8000002f.4000204b.00000000.00000000
MarkAttachClasses: 1
DEI: 91125
ShortTable: maxp 16
  0
  0
  0
  0
  0
  0
  0
  2
  1
  2
  22
  0
  256
  0
  0
  0
EndShort
TtTable: prep
PUSHW_1
 511
SCANCTRL
PUSHB_1
 1
SCANTYPE
SVTCA[y-axis]
MPPEM
PUSHB_1
 8
LT
IF
PUSHB_2
 1
 1
INSTCTRL
EIF
PUSHB_2
 70
 6
CALL
IF
POP
PUSHB_1
 16
EIF
MPPEM
PUSHB_1
 20
GT
IF
POP
PUSHB_1
 128
EIF
SCVTCI
PUSHB_1
 6
CALL
NOT
IF
SVTCA[y-axis]
PUSHB_1
 4
DUP
RCVT
PUSHB_1
 3
CALL
WCVTP
PUSHB_1
 7
DUP
RCVT
PUSHB_3
 4
 224
 2
CALL
PUSHB_1
 3
CALL
WCVTP
PUSHB_1
 6
DUP
RCVT
PUSHB_3
 7
 109
 2
CALL
PUSHB_1
 3
CALL
WCVTP
PUSHB_1
 5
DUP
RCVT
PUSHB_3
 6
 32
 2
CALL
PUSHB_1
 3
CALL
WCVTP
SVTCA[x-axis]
PUSHB_1
 8
DUP
RCVT

StartChar: .notdef
Encoding: 65536 -1 0
Width: 994
Flags: W
HStem: 0 68<139 613> 1442 68<381 855>
VStem: 17 694<0 694> 283 694<816 1510>
DStem2: 17 0 127.01 0 0.173648 0.984808<88.152 1483.3> 601.01 0 711 0 0.173648 0.984808<69.049 1464.2>
LayerCount: 2
Fore
SplineSet
17 0 m 1,0,-1
 283 1510 l 1,1,-1
 977 1510 l 1,2,-1
 711 0 l 1,3,-1
 17 0 l 1,0,-1
139 68 m 1,4,-1
 613 68 l 1,5,-1
 855 1442 l 1,6,-1
 381 1442 l 1,7,-1
 139 68 l 1,4,-1
EndSplineSet
Validated: 1
EndChar

StartChar: exclam
Encoding: 33 33 4
Width: 1200
GlyphClass: 2
Flags: W
HStem: -20 264<402.253 587.777> 1480 20G<654 820.5>
VStem: 361 268<19.2227 205.323> 483 141<401.196 515.197> 621 221<1346.15 1498.94>
LayerCount: 2
Fore
SplineSet
495 244 m 0,0,1
 554 244 554 244 589 208 c 0,2,3
 629 167 629 167 629 112 c 128,-1,4
 629 57 629 57 589 18 c 0,5,6
 550 -20 550 -20 495 -20 c 0,7,8
 438 -20 438 -20 401 16 c 0,9,10
 361 55 361 55 361 112 c 128,-1,11
 361 169 361 169 401 206.5 c 128,-1,12
 441 244 441 244 495 244 c 0,0,1
679 1500 m 2,13,-1
 799 1500 l 2,14,15
 842 1500 842 1500 842 1464 c 0,16,17
 842 1458 842 1458 841 1451 c 9,18,-1
 624 449 l 2,19,20
 613 400 613 400 566 400 c 2,21,-1
 526 400 l 2,22,23
 483 400 483 400 483 438 c 0,24,25
 483 443 483 443 484 449 c 2,26,-1
 621 1451 l 17,27,28
 629 1500 629 1500 679 1500 c 2,13,-1
EndSplineSet
Validated: 1
EndChar

StartChar: quotedbl
Encoding: 34 34 5
Width: 1200
GlyphClass: 2
Flags: W
HStem: 1072 448<382.135 461.998 682.135 761.998>
VStem: 382 172<1329.84 1519.8> 682 172<1329.84 1519.8>
LayerCount: 2
Fore
SplineSet
432 1520 m 2,0,1
 520 1520 l 2,2,3
 554 1520 554 1520 554 1488 c 0,4,5
 554 1482 554 1482 552 1474 c 2,6,-1
 462 1112 l 2,7,8
 452 1072 452 1072 412 1072 c 2,9,-1
 382 1072 l 2,10,11
 346 1072 346 1072 346 1105 c 0,12,13
 346 1108 346 1108 346 1112 c 2,14,-1
 382 1474 l 2,15,16
 386 1520 386 1520 432 1520 c 2,0,1
732 1520 m 2,17,-1
 820 1520 l 2,18,19
 854 1520 854 1520 854 1488 c 0,20,21
 854 1482 854 1482 852 1474 c 2,22,-1
 762 1112 l 2,23,24
 752 1072 752 1072 712 1072 c 2,25,-1
 682 1072 l 2,26,27
 646 1072 646 1072 646 1105 c 0,28,29
 646 1108 646 1108 646 1112 c 2,30,-1
 682 1474 l 2,31,32
 686 1520 686 1520 732 1520 c 2,17,-1
EndSplineSet
Validated: 1
EndChar

StartChar: numbersign
Encoding: 35 35 6
Width: 1200
GlyphClass: 2
Flags: W
HStem: 517 131<96.5957 321 476 663 818 1042.4> 859 131<157.168 381 537 723 879 1103.4>
DStem2: 278.947 276 410.947 276 0.173648 0.984808<29.7647 244.641 400.566 591.864 747.963 961.855> 620.947 276 752.947 276 0.173648 0.984808<29.7647 244.641 400.566 591.864 747.963 961.855>
LayerCount: 2
Fore
SplineSet
476 648 m 1,0,-1
 686 648 l 1,1,-1
 723 859 l 1,2,-1
 513 859 l 1,3,-1
 476 648 l 1,0,-1
487 1230 m 2,4,-1
 539 1230 l 2,5,6
 573 1230 573 1230 573 1201 c 0,7,8
 573 1196 573 1196 572 1190 c 2,9,-1
 537 990 l 1,10,-1
 747 990 l 1,11,-1
 782 1190 l 2,12,13
 789 1230 789 1230 829 1230 c 2,14,-1
 881 1230 l 2,15,16
 915 1230 915 1230 915 1201 c 0,17,18
 915 1196 915 1196 914 1190 c 2,19,-1
 879 990 l 1,20,-1
 1079 990 l 2,21,22
 1113 990 1113 990 1113 961 c 0,23,24
 1113 956 1113 956 1112 950 c 2,25,-1
 1103 899 l 2,26,27
 1096 859 1096 859 1055 859 c 2,28,-1
 855 859 l 1,29,-1
 818 648 l 1,30,-1
 1018 648 l 2,31,32
 1052 648 1052 648 1052 619 c 0,33,34
 1052 614 1052 614 1051 608 c 2,35,-1
 1042 557 l 2,36,37
 1035 517 1035 517 995 517 c 2,38,-1
 795 517 l 1,39,-1
 760 316 l 2,40,41
 753 276 753 276 713 276 c 2,42,-1
 661 276 l 2,43,44
 627 276 627 276 627 305 c 0,45,46
 627 310 627 310 628 316 c 2,47,-1
 663 517 l 1,48,-1
 453 517 l 1,49,-1
 418 316 l 2,50,51
 411 276 411 276 371 276 c 2,52,-1
 319 276 l 2,53,54
 285 276 285 276 285 305 c 0,55,56
 285 310 285 310 286 316 c 2,57,-1
 321 517 l 1,58,-1
 121 517 l 2,59,60
 87 517 87 517 87 546 c 0,61,62
 87 551 87 551 88 557 c 2,63,-1
 97 608 l 2,64,65
 104 648 104 648 144 648 c 2,66,-1
 344 648 l 1,67,-1
 381 859 l 1,68,-1
 181 859 l 2,69,70
 147 859 147 859 147 888 c 0,71,72
 148 893 148 893 149 899 c 2,73,-1
 158 950 l 2,74,75
 165 990 165 990 205 990 c 2,76,-1
 405 990 l 1,77,-1
 440 1190 l 2,78,79
 447 1230 447 1230 487 1230 c 2,4,-1
EndSplineSet
Validated: 1
EndChar

StartChar: dollar
Encoding: 36 36 7
Width: 1200
GlyphClass: 2
Flags: W
HStem: -20 160<315.467 449>
VStem: 341 180<1031.36 1280.84> 834 191<331.095 624.612>
DStem2: 420.473 -180 520.473 -180 0.173648 0.984808<12.319 162.523 359.582 933.363 1173.95 1560.8 1737.47 1903>
LayerCount: 2
Fore
SplineSet
449 -20 m 1,0,1
 210 -19 210 -19 66 195 c 0,2,3
 60 204 60 204 60 215 c 0,4,5
 60 235 60 235 84 252 c 2,6,-1
 163 307 l 2,7,8
 177 317 177 317 190 317 c 0,9,10
 207 317 207 317 217 298 c 0,11,12
 300 140 300 140 477 140 c 1,13,-1
 589 775 l 1,14,-1
 526 811 l 2,15,16
 341 918 341 918 341 1125 c 0,17,18
 341 1326 341 1326 501 1447 c 0,19,20
 591 1515 591 1515 720 1520 c 1,21,-1
 747 1670 l 2,22,23
 751 1690 751 1690 770 1690 c 2,24,-1
 830 1690 l 2,25,26
 848 1690 848 1690 848 1677 c 0,27,28
 848 1676 848 1676 847 1670 c 2,29,-1
 819 1514 l 1,30,31
 960 1490 960 1490 1029 1372 c 0,32,33
 1036 1360 1036 1360 1036 1351 c 0,34,35
 1036 1330 1036 1330 1012 1315 c 2,36,-1
 934 1265 l 2,37,38
 917 1254 917 1254 905 1254 c 0,39,40
 894 1254 894 1254 882 1273 c 0,41,42
 845 1331 845 1331 791 1350 c 1,43,-1
 715 922 l 1,44,-1
 832 854 l 2,45,46
 1025 742 1025 742 1025 510 c 0,47,48
 1025 300 1025 300 870 148 c 0,49,50
 735 15 735 15 550 -13 c 1,51,-1
 524 -160 l 2,52,53
 520 -180 520 -180 500 -180 c 2,54,-1
 440 -180 l 2,55,56
 423 -180 423 -180 423 -168 c 0,57,58
 423 -166 423 -166 424 -160 c 2,59,-1
 449 -20 l 1,0,1
625 976 m 1,60,-1
 692 1357 l 1,61,62
 633 1348 633 1348 591 1309 c 0,63,64
 521 1244 521 1244 521 1148 c 0,65,66
 521 1049 521 1049 625 976 c 1,60,-1
680 722 m 1,67,-1
 580 157 l 1,68,69
 656 183 656 183 724 248 c 0,70,71
 834 354 834 354 834 482 c 0,72,73
 834 632 834 632 680 722 c 1,67,-1
EndSplineSet
Validated: 1
EndChar

StartChar: percent
Encoding: 37 37 8
Width: 1200
GlyphClass: 2
Flags: W
HStem: -20 126<639.176 861.396> 471 125<693.385 910.527> 904 126<277.176 499.396> 1395 125<331.385 548.527>
VStem: 102 142<1073.93 1305.36> 464 142<149.93 381.36> 584 134<1115.73 1350.11> 946 134<191.728 426.106>
DStem2: 21 85 141 8 0.594407 0.804164<-34.9878 1792> 468 288 610 288 0.119838 0.992793<-23.5766 137.4 808.395 990.331>
LayerCount: 2
Fore
SplineSet
810 471 m 128,-1,1
 740 471 740 471 682 417 c 128,-1,2
 624 363 624 363 610 288 c 0,3,4
 606 266 606 266 606 247 c 0,5,6
 606 196 606 196 632 159 c 0,7,8
 671 106 671 106 743.5 106 c 128,-1,9
 816 106 816 106 872 159 c 0,10,11
 930 213 930 213 942 289 c 0,12,13
 944 308 944 308 946 325 c 0,14,15
 946 378 946 378 918 418 c 0,16,0
 880 471 880 471 810 471 c 128,-1,1
826 596 m 0,17,18
 958 596 958 596 1026 505 c 0,19,20
 1080 431 1080 431 1080 332 c 0,21,22
 1080 311 1080 311 1078 288 c 0,23,24
 1066 166 1066 166 956 65 c 0,25,26
 864 -20 864 -20 726 -20 c 0,27,28
 596 -20 596 -20 524 68 c 0,29,30
 464 141 464 141 464 241 c 0,31,32
 464 264 464 264 468 288 c 0,33,34
 486 428 486 428 588 513 c 0,35,36
 688 596 688 596 826 596 c 0,17,18
97 -20 m 0,37,38
 85 -20 85 -20 71 -11 c 2,39,-1
 27 17 l 2,40,41
 5 31 5 31 5 53 c 0,42,43
 5 63 5 63 21 85 c 2,44,-1
 1059 1492 l 2,45,46
 1080 1520 1080 1520 1103 1520 c 0,47,48
 1117 1520 1117 1520 1131 1511 c 2,49,-1
 1175 1483 l 2,50,51
 1195 1470 1195 1470 1195 1446 c 0,52,53
 1195 1434 1195 1434 1181 1415 c 2,54,-1
 141 8 l 2,55,56
 120 -20 120 -20 97 -20 c 0,37,38
448 1395 m 128,-1,58
 378 1395 378 1395 320 1341 c 128,-1,59
 262 1287 262 1287 248 1212 c 0,60,61
 244 1190 244 1190 244 1171 c 0,62,63
 244 1120 244 1120 270 1083 c 0,64,65
 309 1030 309 1030 381.5 1030 c 128,-1,66
 454 1030 454 1030 510 1083 c 0,67,68
 568 1137 568 1137 580 1213 c 0,69,70
 582 1232 582 1232 584 1249 c 0,71,72
 584 1302 584 1302 556 1342 c 0,73,57
 518 1395 518 1395 448 1395 c 128,-1,58
464 1520 m 0,74,75
 596 1520 596 1520 664 1429 c 0,76,77
 718 1355 718 1355 718 1256 c 0,78,79
 718 1235 718 1235 716 1212 c 0,80,81
 704 1090 704 1090 594 989 c 0,82,83
 502 904 502 904 364 904 c 0,84,85
 234 904 234 904 162 992 c 0,86,87
 102 1065 102 1065 102 1165 c 0,88,89
 102 1188 102 1188 106 1212 c 0,90,91
 124 1352 124 1352 226 1437 c 0,92,93
 326 1520 326 1520 464 1520 c 0,74,75
EndSplineSet
Validated: 1
EndChar

StartChar: quotesingle
Encoding: 39 39 9
Width: 1200
GlyphClass: 2
Flags: W
HStem: 1072 448<532.135 611.998>
VStem: 532 172<1329.84 1519.8>
LayerCount: 2
Fore
SplineSet
582 1520 m 2,0,1
 670 1520 l 2,2,3
 704 1520 704 1520 704 1488 c 0,4,5
 704 1482 704 1482 702 1474 c 2,6,-1
 612 1112 l 2,7,8
 602 1072 602 1072 562 1072 c 2,9,-1
 532 1072 l 2,10,11
 496 1072 496 1072 496 1105 c 0,12,13
 496 1108 496 1108 496 1112 c 2,14,-1
 532 1474 l 2,15,16
 536 1520 536 1520 582 1520 c 2,0,1
EndSplineSet
Validated: 1
EndChar

StartChar: parenleft
Encoding: 40 40 10
Width: 1200
GlyphClass: 2
Flags: W
VStem: 400 178<102.755 834.559>
LayerCount: 2
Fore
SplineSet
616 -250 m 2,0,1
 578 -250 578 -250 562 -216 c 0,2,3
 400 108 400 108 400 464 c 0,4,5
 400 607 400 607 426 755 c 0,6,7
 516 1265 516 1265 904 1726 c 0,8,9
 932 1760 932 1760 970 1760 c 2,10,-1
 1048 1760 l 2,11,12
 1080 1760 1080 1760 1080 1738 c 24,13,14
 1080 1722 1080 1722 1072 1711 c 0,15,16
 698 1268 698 1268 606 755 c 0,17,18
 578 604 578 604 578 460 c 0,19,20
 578 112 578 112 734 -201 c 0,21,22
 742 -216 742 -216 742 -225 c 0,23,24
 742 -250 742 -250 694 -250 c 2,25,-1
 616 -250 l 2,0,1
EndSplineSet
Validated: 1
EndChar

StartChar: parenright
Encoding: 41 41 11
Width: 1200
GlyphClass: 2
Flags: W
VStem: 622 178<675.441 1407.24>
LayerCount: 2
Fore
SplineSet
584 1760 m 2,0,1
 622 1760 622 1760 638 1726 c 0,2,3
 800 1402 800 1402 800 1046 c 0,4,5
 800 903 800 903 774 755 c 0,6,7
 684 245 684 245 296 -216 c 0,8,9
 268 -250 268 -250 230 -250 c 2,10,-1
 152 -250 l 2,11,12
 120 -250 120 -250 120 -228 c 24,13,14
 120 -212 120 -212 128 -201 c 0,15,16
 502 242 502 242 594 755 c 0,17,18
 622 906 622 906 622 1050 c 0,19,20
 622 1398 622 1398 466 1711 c 0,21,22
 458 1726 458 1726 458 1735 c 0,23,24
 458 1760 458 1760 506 1760 c 2,25,-1
 584 1760 l 2,0,1
EndSplineSet
Validated: 1
EndChar

StartChar: asterisk
Encoding: 42 42 12
Width: 1200
GlyphClass: 2
Flags: W
HStem: 1500 20G<615 703.5>
DStem2: 473.947 837 605.947 837 0.173648 0.984808<28.871 240.702 475.873 687.591> 685 1283 336 971 0.885952 0.463777<0 232.752>
LayerCount: 2
Fore
SplineSet
635 1520 m 2,0,-1
 687 1520 l 2,1,2
 720 1520 720 1520 720 1492 c 0,3,4
 720 1486 720 1486 719 1480 c 2,5,-1
 685 1283 l 1,6,-1
 865 1386 l 2,7,8
 878 1393 878 1393 890 1394 c 0,9,10
 908 1394 908 1394 917 1372 c 2,11,-1
 935 1327 l 2,12,13
 938 1319 938 1319 938 1307 c 0,14,15
 938 1286 938 1286 911 1272 c 2,16,-1
 722 1178 l 1,17,-1
 878 1085 l 2,18,19
 894 1075 894 1075 894 1058 c 0,20,21
 894 1045 894 1045 883 1030 c 2,22,-1
 849 985 l 2,23,24
 832 963 832 963 814 963 c 0,25,26
 803 963 803 963 792 971 c 2,27,-1
 648 1074 l 1,28,-1
 613 877 l 2,29,30
 606 837 606 837 566 837 c 2,31,-1
 514 837 l 2,32,33
 480 837 480 837 480 865 c 0,34,35
 480 873 480 873 481 877 c 2,36,-1
 516 1074 l 1,37,-1
 336 971 l 2,38,39
 324 964 324 964 310 963 c 0,40,41
 292 963 292 963 283 985 c 2,42,-1
 265 1030 l 2,43,44
 262 1039 262 1039 262 1049 c 0,45,46
 262 1071 262 1071 290 1085 c 2,47,-1
 478 1178 l 1,48,-1
 323 1272 l 2,49,50
 306 1282 306 1282 306 1300 c 0,51,52
 306 1311 306 1311 317 1327 c 2,53,-1
 351 1372 l 2,54,55
 368 1394 368 1394 386 1394 c 0,56,57
 397 1394 397 1394 409 1386 c 2,58,-1
 553 1283 l 1,59,-1
 587 1480 l 2,60,61
 595 1520 595 1520 635 1520 c 2,0,-1
EndSplineSet
Validated: 1
EndChar

StartChar: plus
Encoding: 43 43 13
Width: 1200
GlyphClass: 2
Flags: W
HStem: 680 150<190.281 513 689 1010.57>
DStem2: 452.184 338 602.184 338 0.173648 0.984808<36.9955 347.365 525.648 836.017>
LayerCount: 2
Fore
SplineSet
650 1172 m 2,0,-1
 700 1172 l 2,1,2
 742 1172 742 1172 742 1136 c 0,3,4
 742 1130 742 1130 741 1122 c 2,5,-1
 689 830 l 1,6,-1
 979 830 l 2,7,8
 1022 830 1022 830 1022 794 c 0,9,10
 1022 788 1022 788 1021 780 c 2,11,-1
 1012 730 l 2,12,13
 1003 680 1003 680 953 680 c 2,14,-1
 663 680 l 1,15,-1
 611 388 l 2,16,17
 602 338 602 338 553 338 c 2,18,-1
 503 338 l 2,19,20
 460 338 460 338 460 374 c 0,21,22
 460 380 460 380 461 388 c 2,23,-1
 513 680 l 1,24,-1
 221 680 l 2,25,26
 178 680 178 680 178 716 c 0,27,28
 178 722 178 722 180 730 c 2,29,-1
 189 780 l 2,30,31
 198 830 198 830 247 830 c 2,32,-1
 539 830 l 1,33,-1
 591 1122 l 2,34,35
 600 1172 600 1172 650 1172 c 2,0,-1
EndSplineSet
Validated: 1
EndChar

StartChar: comma
Encoding: 44 44 14
Width: 1200
GlyphClass: 2
Flags: W
HStem: -280 566
VStem: 584 162<-96.7969 165.174>
LayerCount: 2
Fore
SplineSet
657 286 m 0,0,1
 673 286 673 286 689 268 c 0,2,3
 746 194 746 194 746 87 c 0,4,5
 746 61 746 61 743 34 c 0,6,7
 722 -145 722 -145 533 -271 c 24,8,9
 521 -280 521 -280 509 -280 c 0,10,11
 503 -280 503 -280 495 -273 c 2,12,-1
 464 -247 l 2,13,14
 454 -238 454 -238 454 -227 c 0,15,16
 454 -221 454 -221 461 -215 c 0,17,18
 559 -132 559 -132 580 -12 c 0,19,20
 584 11 584 11 584 33 c 0,21,22
 584 108 584 108 537 169 c 0,23,24
 529 179 529 179 528 192 c 0,25,26
 528 213 528 213 556 230 c 2,27,-1
 636 280 l 2,28,29
 646 286 646 286 657 286 c 0,0,1
EndSplineSet
Validated: 1
EndChar

StartChar: hyphen
Encoding: 45 45 15
Width: 1200
GlyphClass: 2
Flags: W
HStem: 680 150<190.164 1010.57>
LayerCount: 2
Fore
SplineSet
247 830 m 2,0,-1
 979 830 l 2,1,2
 1022 830 1022 830 1022 794 c 0,3,4
 1022 788 1022 788 1021 780 c 2,5,-1
 1012 730 l 2,6,7
 1003 680 1003 680 953 680 c 2,8,-1
 221 680 l 2,9,10
 178 680 178 680 178 716 c 0,11,12
 178 722 178 722 180 730 c 2,13,-1
 189 780 l 2,14,15
 197 830 197 830 247 830 c 2,0,-1
EndSplineSet
Validated: 1
EndChar

StartChar: period
Encoding: 46 46 16
Width: 1200
GlyphClass: 2
Flags: W
HStem: -20 264<507.253 692.777>
VStem: 466 268<19.2227 205.323>
LayerCount: 2
Fore
SplineSet
600 244 m 0,0,1
 659 244 659 244 694 208 c 0,2,3
 734 167 734 167 734 112 c 128,-1,4
 734 57 734 57 694 18 c 0,5,6
 655 -20 655 -20 600 -20 c 0,7,8
 543 -20 543 -20 506 16 c 0,9,10
 466 55 466 55 466 112 c 128,-1,11
 466 169 466 169 506 206.5 c 128,-1,12
 546 244 546 244 600 244 c 0,0,1
EndSplineSet
Validated: 1
EndChar

StartChar: slash
Encoding: 47 47 17
Width: 1200
GlyphClass: 2
Flags: W
DStem2: 1043 1634 156 -129 0.517714 0.855554<-1994.68 33.4705>
LayerCount: 2
Fore
SplineSet
1086 1662 m 0,0,1
 1101 1662 1101 1662 1115 1653 c 2,2,-1
 1166 1618 l 2,3,4
 1186 1604 1186 1604 1186 1587 c 0,5,6
 1186 1574 1186 1574 1172 1550 c 2,7,-1
 156 -129 l 2,8,9
 139 -157 139 -157 111 -157 c 0,10,11
 98 -157 98 -157 84 -148 c 2,12,-1
 33 -113 l 2,13,14
 14 -100 14 -100 14 -75 c 0,15,16
 14 -68 14 -68 27 -45 c 2,17,-1
 1043 1634 l 2,18,19
 1060 1662 1060 1662 1086 1662 c 0,0,1
EndSplineSet
Validated: 1
EndChar

StartChar: zero
Encoding: 48 48 18
Width: 1200
GlyphClass: 2
Flags: W
HStem: -20 160<357.755 631.136> 616 264<507.253 692.777> 1360 160<569.315 841.18>
VStem: 66 178<278.908 860.625> 466 268<655.223 841.323> 958 176<644.467 1216.78>
LayerCount: 2
Fore
SplineSet
600 880 m 0,0,1
 659 880 659 880 694 844 c 0,2,3
 734 803 734 803 734 748 c 128,-1,4
 734 693 734 693 694 654 c 0,5,6
 655 616 655 616 600 616 c 0,7,8
 543 616 543 616 506 652 c 0,9,10
 466 691 466 691 466 748 c 128,-1,11
 466 805 466 805 506 842.5 c 128,-1,12
 546 880 546 880 600 880 c 0,0,1
487 140 m 128,-1,14
 639 140 639 140 761 311 c 0,15,16
 890 492 890 492 938 750 c 0,17,18
 958 857 958 857 958 950 c 0,19,20
 958 1096 958 1096 925 1189 c 0,21,22
 865 1360 865 1360 713 1360 c 128,-1,23
 561 1360 561 1360 439 1189 c 0,24,25
 309 1009 309 1009 264 750 c 0,26,27
 244 636 244 636 244 538 c 0,28,29
 244 399 244 399 275 311 c 0,30,13
 335 140 335 140 487 140 c 128,-1,14
474 -20 m 0,31,32
 252 -20 252 -20 136 206 c 0,33,34
 66 342 66 342 66 532 c 0,35,36
 66 664 66 664 82 750 c 0,37,38
 142 1086 142 1086 308 1294 c 0,39,40
 490 1520 490 1520 726 1520 c 0,41,42
 958 1520 958 1520 1064 1294 c 0,43,44
 1134 1148 1134 1148 1134 968 c 0,45,46
 1134 838 1134 838 1118 750 c 0,47,48
 1060 414 1060 414 892 206 c 0,49,50
 712 -20 712 -20 474 -20 c 0,31,32
EndSplineSet
Validated: 1
EndChar

StartChar: one
Encoding: 49 49 19
Width: 1200
GlyphClass: 2
Flags: W
HStem: 0 160<194.372 491 671 941.066> 1100 21G<402 537.5> 1480 20G<687.5 878.5>
DStem2: 398 1152 579 1134 0.627549 0.778577<19.6018 273.234> 462.788 0 642.788 0 0.173648 0.984808<193.725 1289.64>
LayerCount: 2
Fore
SplineSet
223 0 m 2,0,1
 180 0 180 0 180 36 c 0,2,3
 180 42 180 42 182 49 c 2,4,-1
 193 111 l 2,5,6
 201 160 201 160 251 160 c 2,7,-1
 491 160 l 1,8,-1
 687 1270 l 1,9,-1
 579 1134 l 2,10,11
 552 1100 552 1100 523 1100 c 2,12,-1
 419 1100 l 2,13,14
 385 1100 385 1100 385 1125 c 0,15,16
 385 1136 385 1136 398 1152 c 2,17,-1
 639 1451 l 2,18,19
 678 1500 678 1500 697 1500 c 2,20,-1
 857 1500 l 2,21,22
 900 1500 900 1500 900 1464 c 0,23,24
 900 1458 900 1458 899 1451 c 2,25,-1
 671 160 l 25,26,-1
 911 160 l 2,27,28
 954 160 954 160 954 124 c 0,29,30
 954 118 954 118 953 111 c 2,31,-1
 942 49 l 2,32,33
 933 0 933 0 883 0 c 2,34,-1
 223 0 l 2,0,1
EndSplineSet
Validated: 1
EndChar

StartChar: two
Encoding: 50 50 20
Width: 1200
GlyphClass: 2
Flags: W
HStem: 0 162<233 935.652> 1350 170<538.341 831.46>
VStem: 929 182<931.089 1255.11>
DStem2: 368 524 471 398 0.836226 0.548385<-280.533 626.446>
LayerCount: 2
Fore
SplineSet
54 0 m 2,0,1
 20 0 20 0 20 29 c 0,2,3
 20 34 20 34 21 40 c 0,4,5
 72 330 72 330 368 524 c 2,6,-1
 705 745 l 2,7,8
 929 892 929 892 929 1110 c 0,9,10
 929 1209 929 1209 869 1274 c 0,11,12
 798 1350 798 1350 689 1350 c 0,13,14
 571 1350 571 1350 470 1251 c 0,15,16
 423 1204 423 1204 401 1171 c 24,17,18
 385 1146 385 1146 363 1146 c 0,19,20
 356 1146 356 1146 346 1152 c 2,21,-1
 256 1207 l 2,22,23
 235 1220 235 1220 235 1235 c 0,24,25
 235 1246 235 1246 248 1262 c 0,26,27
 305 1337 305 1337 357 1382 c 0,28,29
 517 1520 517 1520 718 1520 c 0,30,31
 907 1520 907 1520 1026 1378 c 0,32,33
 1111 1277 1111 1277 1111 1121 c 0,34,35
 1111 815 1111 815 772 594 c 2,36,-1
 471 398 l 2,37,38
 248 253 248 253 233 162 c 1,39,-1
 917 162 l 2,40,41
 951 162 951 162 951 135 c 0,42,43
 951 130 951 130 950 123 c 2,44,-1
 935 40 l 2,45,46
 928 0 928 0 888 0 c 2,47,-1
 54 0 l 2,0,1
EndSplineSet
Validated: 1
EndChar

StartChar: three
Encoding: 51 51 21
Width: 1200
GlyphClass: 2
Flags: W
HStem: -20 162<317.521 651.554> 1338 162<363.643 874>
VStem: 855 177<349.093 678.652>
DStem2: 408 812 718 919 0.663126 0.748507<285.659 702.732>
LayerCount: 2
Fore
SplineSet
459 -20 m 0,0,1
 237 -20 237 -20 120 119 c 0,2,3
 74 174 74 174 54 223 c 0,4,5
 50 233 50 233 50 243 c 0,6,7
 50 262 50 262 82 278 c 2,8,-1
 165 320 l 2,9,10
 177 326 177 326 184 326 c 0,11,12
 200 326 200 326 214 301 c 24,13,14
 233 267 233 267 269 226 c 0,15,16
 345 142 345 142 478 142 c 0,17,18
 628 142 628 142 737 250 c 0,19,20
 827 339 827 339 849 466 c 0,21,22
 855 500 855 500 855 531 c 0,23,24
 855 605 855 605 822 662 c 0,25,26
 759 771 759 771 589 771 c 2,27,-1
 439 771 l 2,28,29
 395 771 395 771 398 791 c 0,30,31
 400 803 400 803 408 812 c 2,32,-1
 874 1338 l 1,33,-1
 383 1338 l 2,34,35
 349 1338 349 1338 349 1365 c 0,36,37
 349 1371 349 1371 350 1377 c 2,38,-1
 364 1460 l 2,39,40
 371 1500 371 1500 411 1500 c 2,41,-1
 1089 1500 l 2,42,43
 1123 1500 1123 1500 1123 1471 c 0,44,45
 1123 1466 1123 1466 1122 1460 c 2,46,-1
 1108 1377 l 2,47,48
 1105 1359 1105 1359 1092 1344 c 2,49,-1
 718 919 l 1,50,51
 854 901 854 901 938 806 c 0,52,53
 1032 698 1032 698 1032 531 c 0,54,55
 1031 292 1031 292 862 131 c 0,56,57
 703 -20 703 -20 459 -20 c 0,0,1
EndSplineSet
Validated: 1
EndChar

StartChar: four
Encoding: 52 52 22
Width: 1200
GlyphClass: 2
Flags: W
HStem: 0 21G<722.5 849> 320 160<282 750> 1080 20G<913 1039.5> 1480 20G<686 810>
DStem2: 73 460 282 480 0.490637 0.871364<119.97 1218.54> 694.36 0 874.36 0 0.173648 0.984808<36.6396 324.8 487.405 1111.44>
LayerCount: 2
Fore
SplineSet
744 0 m 2,0,1
 701 0 701 0 701 36 c 0,2,3
 701 37 701 37 703 49 c 2,4,-1
 750 320 l 1,5,-1
 92 320 l 2,6,7
 50 320 50 320 50 356 c 0,8,9
 50 363 50 363 51 369 c 2,10,-1
 62 431 l 2,11,12
 64 444 64 444 73 460 c 2,13,-1
 631 1451 l 2,14,15
 659 1500 659 1500 713 1500 c 2,16,-1
 785 1500 l 2,17,18
 835 1500 835 1500 835 1475 c 0,19,20
 835 1465 835 1465 827 1451 c 2,21,-1
 282 480 l 1,22,-1
 779 480 l 1,23,-1
 879 1051 l 2,24,25
 888 1100 888 1100 938 1100 c 2,26,-1
 1018 1100 l 2,27,28
 1061 1100 1061 1100 1061 1064 c 0,29,30
 1061 1062 1061 1062 1059 1051 c 2,31,-1
 883 49 l 2,32,33
 874 0 874 0 824 0 c 2,34,-1
 744 0 l 2,0,1
EndSplineSet
Validated: 1
EndChar

StartChar: five
Encoding: 53 53 23
Width: 1200
GlyphClass: 2
Flags: W
HStem: -20 160<305.692 645.299> 771 160<474 753.685> 1340 160<585 1058.93>
VStem: 848 178<348.384 679>
LayerCount: 2
Fore
SplineSet
452 -20 m 0,0,1
 241 -20 241 -20 121 121 c 0,2,3
 77 173 77 173 54 224 c 0,4,5
 50 234 50 234 50 244 c 0,6,7
 50 262 50 262 82 278 c 2,8,-1
 166 319 l 2,9,10
 179 325 179 325 187 325 c 24,11,12
 204 325 204 325 216 300 c 0,13,14
 239 250 239 250 262 223 c 0,15,16
 334 140 334 140 471 140 c 0,17,18
 619 140 619 140 730 246 c 0,19,20
 818 330 818 330 841 460 c 0,21,22
 848 500 848 500 848 535 c 0,23,24
 848 619 848 619 808 675 c 0,25,26
 740 771 740 771 582 771 c 2,27,-1
 298 771 l 2,28,29
 265 771 265 771 265 800 c 0,30,-1
 266 803 l 2,31,-1
 433 1460 l 2,32,33
 444 1500 444 1500 478 1500 c 2,34,-1
 1039 1500 l 2,35,36
 1074 1500 1074 1500 1074 1473 c 0,37,38
 1074 1469 1074 1469 1073 1461 c 2,39,-1
 1058 1379 l 2,40,41
 1051 1340 1051 1340 1011 1340 c 2,42,-1
 585 1340 l 1,43,-1
 474 931 l 1,44,-1
 600 931 l 2,45,46
 817 931 817 931 933 799 c 0,47,48
 1026 693 1026 693 1026 531 c 0,49,50
 1026 497 1026 497 1022 460 c 0,51,52
 999 264 999 264 840 122 c 128,-1,53
 681 -20 681 -20 452 -20 c 0,0,1
EndSplineSet
Validated: 1
EndChar

StartChar: six
Encoding: 54 54 24
Width: 1200
GlyphClass: 2
Flags: W
HStem: -20 170<393.655 713.417> 798 150<583.945 802.122> 1480 20G<900 1063>
VStem: 118 174<251.742 585.784> 906 172<354.696 690.137>
DStem2: 322 870 582 920 0.666572 0.745441<210.581 884.235>
LayerCount: 2
Fore
SplineSet
1044 1500 m 2,0,1
 1082 1500 1082 1500 1082 1481 c 0,2,3
 1082 1472 1082 1472 1066 1454 c 2,4,-1
 582 920 l 1,5,6
 638 948 638 948 700 948 c 0,7,8
 894 948 894 948 1002 810 c 0,9,10
 1078 711 1078 711 1078 560 c 0,11,12
 1078 513 1078 513 1072 461 c 0,13,14
 1042 252 1042 252 882 110 c 0,15,16
 736 -20 736 -20 522 -20 c 0,17,18
 324 -20 324 -20 210 118 c 0,19,20
 118 229 118 229 118 396 c 0,21,22
 118 429 118 429 120 464 c 0,23,24
 142 670 142 670 322 870 c 2,25,-1
 846 1456 l 2,26,27
 884 1500 884 1500 916 1500 c 2,28,-1
 1044 1500 l 2,0,1
656 798 m 128,-1,30
 532 798 532 798 428 706 c 128,-1,31
 324 614 324 614 298 474 c 0,32,33
 292 435 292 435 292 400 c 0,34,35
 292 305 292 305 344 240 c 0,36,37
 416 150 416 150 542 150 c 0,38,39
 678 150 678 150 774 238 c 0,40,41
 876 332 876 332 900 472 c 0,42,43
 906 506 906 506 906 537 c 0,44,45
 906 634 906 634 852 705 c 0,46,29
 780 798 780 798 656 798 c 128,-1,30
EndSplineSet
Validated: 1
EndChar

StartChar: seven
Encoding: 55 55 25
Width: 1200
GlyphClass: 2
Flags: W
HStem: 0 21G<142 271> 1340 160<215.289 846>
DStem2: 126 49 326 49 0.488522 0.872551<16.5687 1478.2>
LayerCount: 2
Fore
SplineSet
166 0 m 2,0,1
 118 0 118 0 118 24 c 0,2,3
 118 35 118 35 126 49 c 2,4,-1
 846 1340 l 1,5,-1
 244 1340 l 2,6,7
 202 1340 202 1340 202 1376 c 0,8,9
 202 1382 202 1382 202 1389 c 2,10,-1
 214 1451 l 2,11,12
 222 1500 222 1500 272 1500 c 2,13,-1
 1040 1500 l 2,14,15
 1082 1500 1082 1500 1082 1464 c 0,16,17
 1082 1458 1082 1458 1082 1451 c 2,18,-1
 1070 1389 l 2,19,20
 1068 1377 1068 1377 1060 1360 c 2,21,-1
 326 49 l 2,22,23
 298 0 298 0 244 0 c 2,24,-1
 166 0 l 2,0,1
EndSplineSet
Validated: 1
EndChar

StartChar: eight
Encoding: 56 56 26
Width: 1200
GlyphClass: 2
Flags: W
HStem: -20 155<358.347 670.501> 745 151<513.134 762.433> 1358 162<578.598 845.772>
VStem: 80 179<233.25 551.738> 291 161<956.407 1229.47> 858 180<328.408 647.406> 909 164<1027.88 1295.19>
LayerCount: 2
Fore
SplineSet
457 1126 m 0,0,1
 453 1101 453 1101 452 1078 c 0,2,3
 452 1010 452 1010 492 961 c 0,4,5
 545 896 545 896 639 896 c 0,6,7
 731 896 731 896 807 961 c 0,8,9
 887 1031 887 1031 905 1129 c 0,10,11
 909 1152 909 1152 909 1173 c 0,12,13
 909 1242 909 1242 867 1293 c 0,14,15
 813 1358 813 1358 719.5 1358 c 128,-1,16
 626 1358 626 1358 550.5 1292 c 128,-1,17
 475 1226 475 1226 457 1126 c 0,0,1
265 440 m 0,18,19
 259 408 259 408 259 378 c 0,20,21
 259 287 259 287 312 222 c 0,22,23
 383 135 383 135 505.5 135 c 128,-1,24
 628 135 628 135 729 222 c 0,25,26
 830 310 830 310 852 440 c 0,27,28
 857 469 857 469 858 503 c 0,29,30
 858 593 858 593 806 659 c 0,31,32
 736 745 736 745 613 745 c 128,-1,33
 490 745 490 745 389 658.5 c 128,-1,34
 288 572 288 572 265 440 c 0,18,19
860 840 m 1,35,36
 902 819 902 819 947 772 c 0,37,38
 1038 674 1038 674 1038 514 c 0,39,40
 1038 481 1038 481 1035 446 c 0,41,42
 1012 238 1012 238 853 109 c 128,-1,43
 694 -20 694 -20 487 -20 c 0,44,45
 289 -20 289 -20 174 112 c 0,46,47
 80 221 80 221 80 379 c 0,48,49
 80 410 80 410 84 443 c 0,50,51
 107 647 107 647 280 775 c 0,52,53
 329 812 329 812 400 840 c 1,54,55
 291 932 291 932 291 1088 c 0,56,57
 291 1113 291 1113 294 1139 c 0,58,59
 311 1307 311 1307 439 1414 c 0,60,61
 567 1520 567 1520 738 1520 c 0,62,63
 897 1520 897 1520 994 1408 c 0,64,65
 1073 1318 1073 1318 1073 1192 c 0,66,67
 1073 1166 1073 1166 1070 1139 c 0,68,69
 1047 949 1047 949 860 840 c 1,35,36
EndSplineSet
Validated: 1
EndChar

StartChar: nine
Encoding: 57 57 27
Width: 1200
GlyphClass: 2
Flags: W
HStem: 0 21G<137 300> 552 150<397.878 616.055> 1350 170<486.583 806.345>
VStem: 122 172<809.863 1145.3> 908 174<914.216 1248.26>
DStem2: 134 46 354 44 0.666572 0.745441<47.0315 720.686>
LayerCount: 2
Fore
SplineSet
156 0 m 2,0,1
 118 0 118 0 118 19 c 0,2,3
 118 28 118 28 134 46 c 2,4,-1
 618 580 l 1,5,6
 562 552 562 552 500 552 c 0,7,8
 306 552 306 552 198 690 c 0,9,10
 122 789 122 789 122 940 c 0,11,12
 122 987 122 987 128 1039 c 0,13,14
 158 1248 158 1248 318 1390 c 0,15,16
 464 1520 464 1520 678 1520 c 0,17,18
 876 1520 876 1520 990 1382 c 0,19,20
 1082 1271 1082 1271 1082 1104 c 0,21,22
 1082 1071 1082 1071 1080 1036 c 0,23,24
 1058 830 1058 830 878 630 c 2,25,-1
 354 44 l 2,26,27
 316 0 316 0 284 0 c 2,28,-1
 156 0 l 2,0,1
544 702 m 128,-1,30
 668 702 668 702 772 794 c 128,-1,31
 876 886 876 886 902 1026 c 0,32,33
 908 1065 908 1065 908 1100 c 0,34,35
 908 1195 908 1195 856 1260 c 0,36,37
 784 1350 784 1350 658 1350 c 0,38,39
 522 1350 522 1350 426 1262 c 0,40,41
 324 1168 324 1168 300 1028 c 0,42,43
 294 994 294 994 294 963 c 0,44,45
 294 866 294 866 348 795 c 0,46,29
 420 702 420 702 544 702 c 128,-1,30
EndSplineSet
Validated: 1
EndChar

StartChar: colon
Encoding: 58 58 28
Width: 1200
GlyphClass: 2
Flags: W
HStem: -20 264<451.253 636.777> 616 264<563.253 748.777>
VStem: 410 268<19.2227 205.323> 522 268<655.223 841.323>
LayerCount: 2
Fore
SplineSet
656 880 m 0,0,1
 715 880 715 880 750 844 c 0,2,3
 790 803 790 803 790 748 c 128,-1,4
 790 693 790 693 750 654 c 0,5,6
 711 616 711 616 656 616 c 0,7,8
 599 616 599 616 562 652 c 0,9,10
 522 691 522 691 522 748 c 128,-1,11
 522 805 522 805 562 842.5 c 128,-1,12
 602 880 602 880 656 880 c 0,0,1
544 244 m 0,13,14
 603 244 603 244 638 208 c 0,15,16
 678 167 678 167 678 112 c 128,-1,17
 678 57 678 57 638 18 c 0,18,19
 599 -20 599 -20 544 -20 c 0,20,21
 487 -20 487 -20 450 16 c 0,22,23
 410 55 410 55 410 112 c 128,-1,24
 410 169 410 169 450 206.5 c 128,-1,25
 490 244 490 244 544 244 c 0,13,14
EndSplineSet
Validated: 1
EndChar

StartChar: semicolon
Encoding: 59 59 29
Width: 1200
GlyphClass: 2
Flags: W
HStem: 616 264<586.253 771.777>
VStem: 515 162<-96.7969 165.174> 545 268<655.223 841.323>
LayerCount: 2
Fore
SplineSet
679 880 m 0,0,1
 738 880 738 880 773 844 c 0,2,3
 813 803 813 803 813 748 c 128,-1,4
 813 693 813 693 773 654 c 0,5,6
 734 616 734 616 679 616 c 0,7,8
 622 616 622 616 585 652 c 0,9,10
 545 691 545 691 545 748 c 128,-1,11
 545 805 545 805 585 842.5 c 128,-1,12
 625 880 625 880 679 880 c 0,0,1
588 286 m 0,13,14
 604 286 604 286 620 268 c 0,15,16
 677 194 677 194 677 87 c 0,17,18
 677 61 677 61 674 34 c 0,19,20
 653 -145 653 -145 464 -271 c 24,21,22
 452 -280 452 -280 440 -280 c 0,23,24
 434 -280 434 -280 426 -273 c 2,25,-1
 395 -247 l 2,26,27
 385 -238 385 -238 385 -227 c 0,28,29
 385 -221 385 -221 392 -215 c 0,30,31
 490 -132 490 -132 511 -12 c 0,32,33
 515 11 515 11 515 33 c 0,34,35
 515 108 515 108 468 169 c 0,36,37
 460 179 460 179 459 192 c 0,38,39
 459 213 459 213 487 230 c 2,40,-1
 567 280 l 2,41,42
 577 286 577 286 588 286 c 0,13,14
EndSplineSet
Validated: 1
EndChar

StartChar: less
Encoding: 60 60 30
Width: 1200
GlyphClass: 2
Flags: W
DStem2: 405 749 221 669 0.856531 -0.516095<0 554.426> 253 850 405 749 0.895497 0.445067<91.1637 776.514>
LayerCount: 2
Fore
SplineSet
191 780 m 2,0,1
 198 823 198 823 253 850 c 2,2,-1
 921 1182 l 2,3,4
 940 1191 940 1191 951 1191 c 0,5,6
 975 1191 975 1191 986 1164 c 2,7,-1
 1012 1094 l 2,8,9
 1017 1081 1017 1081 1018 1068 c 0,10,11
 1018 1043 1018 1043 982 1026 c 2,12,-1
 405 749 l 1,13,-1
 875 475 l 2,14,15
 896 463 896 463 896 441 c 0,16,17
 896 428 896 428 881 407 c 2,18,-1
 843 355 l 2,19,20
 823 328 823 328 799 328 c 0,21,22
 787 328 787 328 772 337 c 2,23,-1
 221 669 l 2,24,25
 182 692 182 692 182 725 c 0,26,27
 182 732 182 732 184 739 c 2,28,-1
 191 780 l 2,0,1
EndSplineSet
Validated: 1
EndChar

StartChar: equal
Encoding: 61 61 31
Width: 1200
GlyphClass: 2
Flags: W
HStem: 490 150<156.285 976.715> 870 150<223.285 1043.71>
LayerCount: 2
Fore
SplineSet
214 640 m 2,0,-1
 946 640 l 2,1,2
 988 640 988 640 988 604 c 0,3,4
 988 598 988 598 987 590 c 2,5,-1
 978 540 l 2,6,7
 969 490 969 490 919 490 c 2,8,-1
 187 490 l 2,9,10
 145 490 145 490 145 526 c 0,11,12
 145 532 145 532 146 540 c 2,13,-1
 155 590 l 2,14,15
 164 640 164 640 214 640 c 2,0,-1
281 1020 m 2,16,-1
 1013 1020 l 2,17,18
 1055 1020 1055 1020 1055 984 c 0,19,20
 1055 978 1055 978 1054 970 c 2,21,-1
 1045 920 l 2,22,23
 1036 870 1036 870 986 870 c 2,24,-1
 254 870 l 2,25,26
 212 870 212 870 212 906 c 0,27,28
 212 912 212 912 213 920 c 2,29,-1
 222 970 l 2,30,31
 231 1020 231 1020 281 1020 c 2,16,-1
EndSplineSet
Validated: 1
EndChar

StartChar: greater
Encoding: 62 62 32
Width: 1200
GlyphClass: 2
Flags: W
DStem2: 979 850 325 1044 0.856531 -0.516095<-670.741 -116.314> 795 770 947 669 0.895497 0.445067<-685.351 0>
LayerCount: 2
Fore
SplineSet
1009 739 m 2,0,1
 1002 696 1002 696 947 669 c 2,2,-1
 279 337 l 2,3,4
 260 328 260 328 249 328 c 0,5,6
 225 328 225 328 214 355 c 2,7,-1
 188 425 l 2,8,9
 183 438 183 438 182 451 c 0,10,11
 182 476 182 476 218 493 c 2,12,-1
 795 770 l 1,13,-1
 325 1044 l 2,14,15
 304 1056 304 1056 304 1078 c 0,16,17
 304 1091 304 1091 319 1112 c 2,18,-1
 357 1164 l 2,19,20
 377 1191 377 1191 401 1191 c 0,21,22
 413 1191 413 1191 428 1182 c 2,23,-1
 979 850 l 2,24,25
 1018 827 1018 827 1018 794 c 0,26,27
 1018 787 1018 787 1016 780 c 2,28,-1
 1009 739 l 2,0,1
EndSplineSet
Validated: 1
EndChar

StartChar: question
Encoding: 63 63 33
Width: 1200
GlyphClass: 2
Flags: W
HStem: -20 264<239.253 424.777> 1360 160<399.427 742.011>
VStem: 198 268<19.2227 205.323> 838 180<954.697 1265.96>
LayerCount: 2
Fore
SplineSet
332 244 m 0,0,1
 391 244 391 244 426 208 c 0,2,3
 466 167 466 167 466 112 c 128,-1,4
 466 57 466 57 426 18 c 0,5,6
 387 -20 387 -20 332 -20 c 0,7,8
 275 -20 275 -20 238 16 c 0,9,10
 198 55 198 55 198 112 c 128,-1,11
 198 169 198 169 238 206.5 c 128,-1,12
 278 244 278 244 332 244 c 0,0,1
599 1520 m 0,13,14
 815 1520 815 1520 933 1376 c 0,15,16
 1018 1272 1018 1272 1018 1130 c 0,17,18
 1018 1101 1018 1101 1015 1070 c 0,19,20
 978 770 978 770 609 600 c 0,21,22
 506 553 506 553 486 449 c 0,23,24
 482 427 482 427 469 418 c 0,25,26
 458 410 458 410 439 410 c 2,27,-1
 339 410 l 2,28,29
 304 410 304 410 304 434 c 0,30,31
 304 436 304 436 306 449 c 0,32,33
 352 664 352 664 549 750 c 0,34,35
 800 859 800 859 834 1072 c 0,36,37
 838 1100 838 1100 838 1126 c 0,38,39
 838 1199 838 1199 803 1253 c 0,40,41
 734 1360 734 1360 580 1360 c 128,-1,42
 426 1360 426 1360 318 1256 c 0,43,44
 299 1237 299 1237 287 1237 c 0,45,46
 274 1237 274 1237 261 1248 c 2,47,-1
 194 1305 l 2,48,49
 182 1315 182 1315 182 1332 c 0,50,51
 182 1345 182 1345 198 1361 c 0,52,53
 353 1520 353 1520 599 1520 c 0,13,14
EndSplineSet
Validated: 1
EndChar

StartChar: A
Encoding: 65 65 34
Width: 1200
GlyphClass: 2
Flags: W
HStem: 0 21G<26 156.5 963.5 1089.5> 506 160<479 875> 1480 20G<711 927>
DStem2: 17 47 192 34 0.420923 0.907096<3.74697 580.096 755.959 1522.41> 951 1465 800 1362 0.110739 -0.993849<85.6449 785.67 946.568 1447.77>
LayerCount: 2
Fore
SplineSet
42 0 m 2,0,1
 10 0 10 0 10 26 c 0,2,3
 10 32 10 32 17 47 c 2,4,-1
 675 1465 l 2,5,6
 691 1500 691 1500 731 1500 c 2,7,-1
 907 1500 l 2,8,9
 947 1500 947 1500 951 1465 c 2,10,-1
 1109 47 l 2,11,12
 1111 29 1111 29 1111 26 c 0,13,14
 1111 0 1111 0 1068 0 c 2,15,-1
 984 0 l 2,16,17
 943 0 943 0 940 34 c 2,18,-1
 892 506 l 1,19,-1
 406 506 l 1,20,-1
 192 34 l 2,21,22
 177 0 177 0 136 0 c 2,23,-1
 42 0 l 2,0,1
875 666 m 1,24,-1
 800 1362 l 1,25,-1
 479 666 l 1,26,-1
 875 666 l 1,24,-1
EndSplineSet
Validated: 1
EndChar

StartChar: D
Encoding: 68 68 35
Width: 1200
GlyphClass: 2
Flags: W
HStem: 0 160<251 638.75> 1340 160<459 830.637>
VStem: 958 175<653.996 1195.17>
DStem2: 43.36 0 222.788 0 0.173648 0.984808<193.626 1391.82>
LayerCount: 2
Fore
SplineSet
93 0 m 2,0,1
 50 0 50 0 50 36 c 0,2,3
 50 38 50 38 52 49 c 2,4,-1
 299 1451 l 2,5,6
 308 1500 308 1500 357 1500 c 2,7,-1
 687 1500 l 2,8,9
 955 1500 955 1500 1065 1274 c 0,10,11
 1133 1134 1133 1134 1133 958 c 0,12,13
 1133 859 1133 859 1114 750 c 0,14,15
 1058 433 1058 433 900 226 c 0,16,17
 727 0 727 0 443 0 c 2,18,-1
 93 0 l 2,0,1
251 160 m 1,19,-1
 461 160 l 2,20,21
 660 160 660 160 774 331 c 0,22,23
 892 508 892 508 935 750 c 0,24,25
 958 881 958 881 958 977.5 c 128,-1,26
 958 1074 958 1074 930 1155 c 0,27,28
 870 1340 870 1340 669 1340 c 2,29,-1
 459 1340 l 1,30,-1
 251 160 l 1,19,-1
EndSplineSet
Validated: 1
EndChar

StartChar: E
Encoding: 69 69 36
Width: 1200
GlyphClass: 2
Flags: W
HStem: 0 160<321 929.066> 675 160<440 852.066> 1340 160<529 1135.07>
DStem2: 113.36 0 292.788 0 0.173648 0.984808<193.626 716.604 879.035 1391.82>
LayerCount: 2
Fore
SplineSet
369 1451 m 1026,0,1
871 0 m 2,2,-1
 163 0 l 2,3,4
 120 0 120 0 120 36 c 0,5,6
 120 42 120 42 122 49 c 2,7,-1
 369 1451 l 2,8,9
 378 1500 378 1500 427 1500 c 2,10,-1
 1105 1500 l 2,11,12
 1148 1500 1148 1500 1148 1464 c 0,13,14
 1148 1458 1148 1458 1147 1451 c 2,15,-1
 1136 1389 l 2,16,17
 1127 1340 1127 1340 1077 1340 c 2,18,-1
 529 1340 l 1,19,-1
 440 835 l 1,20,-1
 822 835 l 2,21,22
 865 835 865 835 865 799 c 0,23,24
 865 793 865 793 864 786 c 2,25,-1
 853 724 l 2,26,27
 844 675 844 675 794 675 c 2,28,-1
 412 675 l 1,29,-1
 321 160 l 1,30,-1
 899 160 l 2,31,32
 942 160 942 160 942 124 c 0,33,34
 942 118 942 118 941 111 c 2,35,-1
 930 49 l 2,36,37
 921 0 921 0 871 0 c 2,2,-1
EndSplineSet
Validated: 1
EndChar

StartChar: F
Encoding: 70 70 37
Width: 1200
GlyphClass: 2
Flags: W
HStem: 0 21G<141.5 268> 675 160<440 852.066> 1340 160<529 1135.07>
DStem2: 113.36 0 293.36 0 0.173648 0.984808<36.7911 716.604 879.035 1391.82>
LayerCount: 2
Fore
SplineSet
243 0 m 2,0,-1
 163 0 l 2,1,2
 120 0 120 0 120 36 c 0,3,4
 120 42 120 42 122 49 c 2,5,-1
 369 1451 l 2,6,7
 378 1500 378 1500 427 1500 c 2,8,-1
 1105 1500 l 2,9,10
 1148 1500 1148 1500 1148 1464 c 0,11,12
 1148 1458 1148 1458 1147 1451 c 2,13,-1
 1136 1389 l 2,14,15
 1127 1340 1127 1340 1077 1340 c 2,16,-1
 529 1340 l 1,17,-1
 440 835 l 1,18,-1
 822 835 l 2,19,20
 865 835 865 835 865 799 c 0,21,22
 865 793 865 793 864 786 c 2,23,-1
 853 724 l 2,24,25
 844 675 844 675 794 675 c 2,26,-1
 412 675 l 1,27,-1
 302 49 l 2,28,29
 293 0 293 0 243 0 c 2,0,-1
EndSplineSet
Validated: 1
EndChar

StartChar: H
Encoding: 72 72 38
Width: 1200
GlyphClass: 2
Flags: W
HStem: 0 21G<46.5 173 766.5 893> 675 160<345 857> 1480 20G<307.5 433.5 1027.5 1153.5>
DStem2: 18.36 0 198.36 0 0.173648 0.984808<36.7911 716.604 879.035 1517.4> 738.36 0 918.36 0 0.173648 0.984808<36.7911 685.347 847.778 1517.4>
LayerCount: 2
Fore
SplineSet
68 0 m 2,0,1
 25 0 25 0 25 36 c 0,2,3
 25 42 25 42 27 49 c 2,4,-1
 274 1451 l 2,5,6
 283 1500 283 1500 332 1500 c 2,7,-1
 412 1500 l 2,8,9
 455 1500 455 1500 455 1464 c 0,10,11
 455 1458 455 1458 454 1451 c 2,12,-1
 345 835 l 1,13,-1
 885 835 l 1,14,-1
 994 1451 l 2,15,16
 1003 1500 1003 1500 1052 1500 c 2,17,-1
 1132 1500 l 2,18,19
 1175 1500 1175 1500 1175 1464 c 0,20,21
 1175 1458 1175 1458 1174 1451 c 2,22,-1
 927 49 l 2,23,24
 918 0 918 0 868 0 c 2,25,-1
 788 0 l 2,26,27
 745 0 745 0 745 36 c 0,28,29
 745 42 745 42 747 49 c 2,30,-1
 857 675 l 1,31,-1
 317 675 l 1,32,-1
 207 49 l 2,33,34
 198 0 198 0 148 0 c 2,35,-1
 68 0 l 2,0,1
EndSplineSet
Validated: 1
EndChar

StartChar: I
Encoding: 73 73 39
Width: 1200
GlyphClass: 2
Flags: W
HStem: 0 160<109.372 406 586 856.066> 1340 160<345.289 614 794 1092.07>
DStem2: 377.788 0 557.788 0 0.173648 0.984808<193.725 1360.66>
LayerCount: 2
Fore
SplineSet
138 0 m 2,0,1
 95 0 95 0 95 36 c 0,2,3
 95 38 95 38 97 49 c 2,4,-1
 108 111 l 2,5,6
 116 160 116 160 166 160 c 2,7,-1
 406 160 l 1,8,-1
 614 1340 l 1,9,-1
 374 1340 l 2,10,11
 332 1340 332 1340 332 1376 c 0,12,13
 332 1385 332 1385 333 1389 c 2,14,-1
 344 1451 l 2,15,16
 353 1500 353 1500 402 1500 c 2,17,-1
 1062 1500 l 2,18,19
 1105 1500 1105 1500 1105 1464 c 0,20,21
 1105 1458 1105 1458 1104 1451 c 2,22,-1
 1093 1389 l 2,23,24
 1084 1340 1084 1340 1034 1340 c 2,25,-1
 794 1340 l 1,26,-1
 586 160 l 1,27,-1
 826 160 l 2,28,29
 869 160 869 160 869 124 c 0,30,31
 869 118 869 118 868 111 c 2,32,-1
 857 49 l 2,33,34
 848 0 848 0 798 0 c 2,35,-1
 138 0 l 2,0,1
EndSplineSet
Validated: 1
EndChar

StartChar: L
Encoding: 76 76 40
Width: 1200
GlyphClass: 2
Flags: W
HStem: 0 160<390 998.066> 1480 20G<471.5 597.5>
DStem2: 182.36 0 361.788 0 0.173648 0.984808<193.626 1517.4>
LayerCount: 2
Fore
SplineSet
940 0 m 2,0,1
 232 0 l 2,2,3
 189 0 189 0 189 36 c 0,4,5
 189 42 189 42 191 49 c 2,6,-1
 438 1451 l 2,7,8
 447 1500 447 1500 496 1500 c 2,9,-1
 576 1500 l 2,10,11
 619 1500 619 1500 619 1464 c 0,12,13
 619 1458 619 1458 618 1451 c 2,14,-1
 390 160 l 1,15,-1
 968 160 l 2,16,17
 1011 160 1011 160 1011 124 c 0,18,19
 1011 118 1011 118 1010 111 c 2,20,-1
 999 49 l 2,21,22
 990 0 990 0 940 0 c 2,0,1
EndSplineSet
Validated: 1
EndChar

StartChar: N
Encoding: 78 78 41
Width: 1200
GlyphClass: 2
Flags: W
HStem: 0 21G<46.5 163 713.5 893> 1480 20G<307.5 487 1037.5 1153.5>
DStem2: 18.36 0 188.36 0 0.173648 0.984808<36.6699 1268.26> 514 1451 403 1220 0.235695 -0.971827<198.33 1204.71> 747.628 0 918.36 0 0.173648 0.984808<284.319 1515.76>
LayerCount: 2
Fore
SplineSet
68 0 m 2,0,1
 25 0 25 0 25 36 c 0,2,3
 25 38 25 38 27 49 c 2,4,-1
 274 1451 l 2,5,6
 283 1500 283 1500 332 1500 c 2,7,-1
 472 1500 l 2,8,9
 502 1500 502 1500 514 1451 c 2,10,-1
 797 280 l 1,11,-1
 1004 1451 l 2,12,13
 1013 1500 1013 1500 1062 1500 c 2,14,-1
 1132 1500 l 2,15,16
 1175 1500 1175 1500 1175 1464 c 0,17,18
 1175 1457 1175 1457 1174 1451 c 2,19,-1
 927 49 l 2,20,21
 918 0 918 0 868 0 c 2,22,-1
 728 0 l 2,23,24
 699 0 699 0 687 49 c 2,25,-1
 403 1220 l 1,26,-1
 197 49 l 2,27,28
 188 0 188 0 138 0 c 2,29,-1
 68 0 l 2,0,1
EndSplineSet
Validated: 1
EndChar

StartChar: O
Encoding: 79 79 42
Width: 1200
GlyphClass: 2
Flags: W
HStem: -20 160<357.755 631.136> 1360 160<569.315 841.18>
VStem: 66 178<278.908 860.625> 958 176<644.467 1216.78>
LayerCount: 2
Fore
SplineSet
487 140 m 128,-1,1
 639 140 639 140 761 311 c 0,2,3
 890 492 890 492 938 750 c 0,4,5
 958 857 958 857 958 950 c 0,6,7
 958 1096 958 1096 925 1189 c 0,8,9
 865 1360 865 1360 713 1360 c 128,-1,10
 561 1360 561 1360 439 1189 c 0,11,12
 309 1009 309 1009 264 750 c 0,13,14
 244 636 244 636 244 538 c 0,15,16
 244 399 244 399 275 311 c 0,17,0
 335 140 335 140 487 140 c 128,-1,1
474 -20 m 0,18,19
 252 -20 252 -20 136 206 c 0,20,21
 66 342 66 342 66 532 c 0,22,23
 66 664 66 664 82 750 c 0,24,25
 142 1086 142 1086 308 1294 c 0,26,27
 490 1520 490 1520 726 1520 c 0,28,29
 958 1520 958 1520 1064 1294 c 0,30,31
 1134 1148 1134 1148 1134 968 c 0,32,33
 1134 838 1134 838 1118 750 c 0,34,35
 1060 414 1060 414 892 206 c 0,36,37
 712 -20 712 -20 474 -20 c 0,18,19
EndSplineSet
Validated: 1
EndChar

StartChar: Q
Encoding: 81 81 43
Width: 1200
GlyphClass: 2
Flags: W
HStem: -20 160<357.755 626.648> 1360 160<569.315 841.18>
VStem: 66 178<278.908 860.625> 958 176<645.076 1216.78>
DStem2: 764 315 468 578 0.373987 -0.927434<-354.416 0 234.968 429.684>
LayerCount: 2
Fore
SplineSet
474 -20 m 0,0,1
 252 -20 252 -20 136 206 c 0,2,3
 66 342 66 342 66 532 c 0,4,5
 66 664 66 664 82 750 c 0,6,7
 142 1086 142 1086 308 1294 c 0,8,9
 490 1520 490 1520 726 1520 c 0,10,11
 958 1520 958 1520 1064 1294 c 0,12,13
 1134 1148 1134 1148 1134 968 c 0,14,15
 1134 838 1134 838 1118 750 c 0,16,17
 1060 414 1060 414 892 206 c 0,18,19
 864 171 864 171 834 141 c 1,20,-1
 925 -84 l 2,21,22
 928 -92 928 -92 928 -98 c 0,23,24
 928 -133 928 -133 884 -133 c 2,25,-1
 795 -133 l 2,26,27
 754 -133 754 -133 740 -99 c 2,28,-1
 688 31 l 1,29,30
 588 -20 588 -20 474 -20 c 0,0,1
764 315 m 1,31,32
 890 495 890 495 938 750 c 0,33,34
 958 857 958 857 958 950 c 0,35,36
 958 1096 958 1096 925 1189 c 0,37,38
 865 1360 865 1360 713 1360 c 128,-1,39
 561 1360 561 1360 439 1189 c 0,40,41
 309 1009 309 1009 264 750 c 0,42,43
 244 636 244 636 244 538 c 0,44,45
 244 399 244 399 275 311 c 0,46,47
 335 140 335 140 487 140 c 0,48,49
 561 140 561 140 628 180 c 1,50,-1
 468 578 l 2,51,52
 464 587 464 587 464 592 c 0,53,54
 464 627 464 627 508 627 c 2,55,-1
 597 627 l 2,56,57
 638 627 638 627 652 593 c 2,58,-1
 764 315 l 1,31,32
EndSplineSet
Validated: 1
EndChar

StartChar: T
Encoding: 84 84 44
Width: 1200
GlyphClass: 2
Flags: W
HStem: 0 21G<354.5 481> 1340 160<193.289 562 742 1140.07>
DStem2: 326.36 0 506.36 0 0.173648 0.984808<36.7911 1360.56>
LayerCount: 2
Fore
SplineSet
376 0 m 2,0,1
 333 0 333 0 333 36 c 0,2,3
 333 42 333 42 335 49 c 2,4,-1
 562 1340 l 1,5,-1
 222 1340 l 2,6,7
 180 1340 180 1340 180 1376 c 0,8,9
 180 1382 180 1382 181 1389 c 2,10,-1
 192 1451 l 2,11,12
 201 1500 201 1500 250 1500 c 2,13,-1
 1110 1500 l 2,14,15
 1153 1500 1153 1500 1153 1464 c 0,16,17
 1153 1458 1153 1458 1152 1451 c 2,18,-1
 1141 1389 l 2,19,20
 1132 1340 1132 1340 1082 1340 c 2,21,-1
 742 1340 l 1,22,-1
 515 49 l 2,23,24
 506 0 506 0 456 0 c 2,25,-1
 376 0 l 2,0,1
EndSplineSet
Validated: 1
EndChar

StartChar: U
Encoding: 85 85 45
Width: 1200
GlyphClass: 2
Flags: W
HStem: -20 160<318.797 619.322> 1480 20G<279.5 406 999.5 1126>
VStem: 60 178<218.25 530.95>
DStem2: -13.7553 -20 166.245 -20 0.173648 0.984808<405.425 1538.1> 706.245 -20 886.623 -20 0.173648 0.984808<284.684 1538.1>
LayerCount: 2
Fore
SplineSet
446 -20 m 128,-1,1
 252 -20 252 -20 148 106 c 0,2,3
 60 212 60 212 60 343 c 0,4,5
 60 398 60 398 70 455 c 2,6,-1
 246 1451 l 2,7,8
 255 1500 255 1500 304 1500 c 2,9,-1
 384 1500 l 2,10,11
 428 1500 428 1500 428 1464 c 0,12,13
 428 1462 428 1462 426 1451 c 2,14,-1
 250 455 l 2,15,16
 238 387 238 387 238 346 c 0,17,18
 239 276 239 276 271 232 c 0,19,20
 339 140 339 140 467.5 140 c 128,-1,21
 596 140 596 140 688 240 c 0,22,23
 767 326 767 326 790 455 c 2,24,-1
 966 1451 l 2,25,26
 975 1500 975 1500 1024 1500 c 2,27,-1
 1104 1500 l 2,28,29
 1148 1500 1148 1500 1148 1464 c 0,30,31
 1148 1462 1148 1462 1146 1451 c 2,32,-1
 970 455 l 2,33,34
 929 223 929 223 790 106 c 0,35,0
 640 -20 640 -20 446 -20 c 128,-1,1
EndSplineSet
Validated: 1
EndChar

StartChar: V
Encoding: 86 86 46
Width: 1200
GlyphClass: 2
Flags: W
HStem: 0 21G<273 489> 1480 20G<110.5 246 1034 1174.5>
DStem2: 407 178 91 1453 0.110739 -0.993849<-1321.22 0> 407 178 525 35 0.420923 0.907096<0 1477.67>
LayerCount: 2
Fore
SplineSet
293 0 m 2,0,1
 253 0 253 0 249 35 c 2,2,-1
 91 1453 l 2,3,4
 89 1471 89 1471 89 1472 c 0,5,6
 89 1500 89 1500 132 1500 c 2,7,-1
 226 1500 l 2,8,9
 266 1500 266 1500 270 1466 c 2,10,-1
 407 178 l 1,11,-1
 998 1466 l 2,12,13
 1014 1500 1014 1500 1054 1500 c 2,14,-1
 1158 1500 l 2,15,16
 1191 1500 1191 1500 1191 1479 c 0,17,18
 1191 1470 1191 1470 1183 1453 c 2,19,-1
 525 35 l 2,20,21
 509 0 509 0 469 0 c 2,22,-1
 293 0 l 2,0,1
EndSplineSet
Validated: 1
EndChar

StartChar: W
Encoding: 87 87 47
Width: 1200
GlyphClass: 2
Flags: W
HStem: 0 21G<1 207 566.5 763.5> 1480 20G<87 207 1084 1197>
VStem: 58 170<1216.39 1499.33> 533 131<627.945 832> 545 149<240 595.055>
DStem2: 154 240 245 49 0.345205 0.938527<0 686.441> 694 240 800 49 0.285717 0.958314<0 1321.23>
LayerCount: 2
Fore
SplineSet
22 0 m 2,0,1
 -20 0 -20 0 -20 42 c 0,2,3
 -20 46 -20 46 -20 49 c 2,4,-1
 58 1451 l 2,5,6
 58 1454 58 1454 58 1462 c 0,7,8
 58 1500 58 1500 116 1500 c 2,9,-1
 186 1500 l 2,10,11
 228 1500 228 1500 228 1457 c 0,12,13
 228 1454 228 1454 228 1451 c 2,14,-1
 154 240 l 1,15,-1
 444 984 l 2,16,17
 463 1032 463 1032 504 1032 c 2,18,-1
 622 1032 l 2,19,20
 662 1032 662 1032 664 983 c 2,21,-1
 694 240 l 1,22,-1
 1048 1451 l 2,23,24
 1062 1500 1062 1500 1106 1500 c 2,25,-1
 1174 1500 l 2,26,27
 1220 1500 1220 1500 1220 1462 c 0,28,29
 1220 1458 1220 1458 1218 1451 c 2,30,-1
 800 49 l 2,31,32
 785 0 785 0 742 0 c 2,33,-1
 587 0 l 2,34,35
 546 0 546 0 545 49 c 2,36,-1
 533 832 l 1,37,-1
 245 49 l 2,38,39
 227 0 227 0 187 0 c 2,40,-1
 22 0 l 2,0,1
EndSplineSet
Validated: 1
EndChar

StartChar: Z
Encoding: 90 90 48
Width: 1200
GlyphClass: 2
Flags: W
HStem: 0 160<287 926.066> 1340 160<315.55 913>
DStem2: 54 145 287 160 0.583678 0.811985<148.177 1471.7>
LayerCount: 2
Fore
SplineSet
68 0 m 2,0,1
 25 0 25 0 25 36 c 0,2,3
 25 38 25 38 27 49 c 2,4,-1
 38 111 l 2,5,6
 41 127 41 127 54 145 c 2,7,-1
 913 1340 l 1,8,-1
 344 1340 l 2,9,10
 301 1340 301 1340 302 1376 c 0,11,12
 302 1383 302 1383 303 1389 c 2,13,-1
 314 1451 l 2,14,15
 323 1500 323 1500 372 1500 c 2,16,-1
 1132 1500 l 2,17,18
 1175 1500 1175 1500 1175 1464 c 0,19,20
 1175 1457 1175 1457 1174 1451 c 2,21,-1
 1163 1389 l 2,22,23
 1161 1376 1161 1376 1144 1352 c 2,24,-1
 287 160 l 1,25,-1
 896 160 l 2,26,27
 939 160 939 160 939 124 c 0,28,29
 939 117 939 117 938 111 c 2,30,-1
 927 49 l 2,31,32
 918 0 918 0 868 0 c 2,33,-1
 68 0 l 2,0,1
EndSplineSet
Validated: 1
EndChar

StartChar: bracketleft
Encoding: 91 91 49
Width: 1200
GlyphClass: 2
Flags: W
HStem: -205 160<408 670.711> 1550 160<688 980.594>
DStem2: 199.184 -205 379.788 -205 0.173648 0.984808<193.83 1813.22>
LayerCount: 2
Fore
SplineSet
614 -205 m 2,0,-1
 250 -205 l 2,1,2
 206 -205 206 -205 206 -169 c 0,3,4
 206 -163 206 -163 208 -155 c 2,5,-1
 528 1660 l 2,6,7
 538 1710 538 1710 588 1710 c 2,8,-1
 952 1710 l 2,9,10
 994 1710 994 1710 994 1674 c 0,11,12
 994 1668 994 1668 992 1660 c 2,13,-1
 982 1600 l 2,14,15
 972 1550 972 1550 922 1550 c 2,16,-1
 688 1550 l 1,17,-1
 408 -45 l 1,18,-1
 642 -45 l 2,19,20
 684 -45 684 -45 684 -81 c 0,21,22
 684 -87 684 -87 682 -95 c 2,23,-1
 672 -155 l 2,24,25
 664 -205 664 -205 614 -205 c 2,0,-1
EndSplineSet
Validated: 1
EndChar

StartChar: backslash
Encoding: 92 92 50
Width: 1200
GlyphClass: 2
Flags: W
DStem2: 337 1634 863 -122 0.372534 -0.928019<-4.36543 1828.09>
LayerCount: 2
Fore
SplineSet
304 1662 m 0,0,1
 326 1662 326 1662 337 1634 c 2,2,-1
 1011 -45 l 2,3,4
 1015 -55 1015 -55 1015 -64 c 0,5,6
 1015 -95 1015 -95 981 -113 c 2,7,-1
 928 -141 l 2,8,9
 911 -150 911 -150 899 -150 c 0,10,11
 875 -150 875 -150 863 -122 c 2,12,-1
 190 1557 l 2,13,14
 185 1568 185 1568 185 1578 c 0,15,16
 185 1607 185 1607 220 1625 c 2,17,-1
 272 1653 l 2,18,19
 289 1662 289 1662 304 1662 c 0,0,1
EndSplineSet
Validated: 1
EndChar

StartChar: bracketright
Encoding: 93 93 51
Width: 1200
GlyphClass: 2
Flags: W
HStem: -205 160<219.406 512> 1550 160<529.406 792>
DStem2: 483.788 -205 663.184 -205 0.173648 0.984808<162.468 1781.86>
LayerCount: 2
Fore
SplineSet
250 -205 m 2,0,1
 206 -205 206 -205 206 -169 c 0,2,3
 206 -163 206 -163 208 -155 c 2,4,-1
 218 -95 l 2,5,6
 228 -45 228 -45 278 -45 c 2,7,-1
 512 -45 l 1,8,-1
 792 1550 l 1,9,-1
 558 1550 l 2,10,11
 516 1550 516 1550 516 1586 c 0,12,13
 516 1592 516 1592 518 1600 c 2,14,-1
 528 1660 l 2,15,16
 538 1710 538 1710 588 1710 c 2,17,-1
 952 1710 l 2,18,19
 994 1710 994 1710 994 1674 c 0,20,21
 994 1668 994 1668 992 1660 c 2,22,-1
 672 -155 l 2,23,24
 664 -205 664 -205 614 -205 c 2,25,-1
 250 -205 l 2,0,1
EndSplineSet
Validated: 1
EndChar

StartChar: asciicircum
Encoding: 94 94 52
Width: 1200
GlyphClass: 2
Flags: W
HStem: 1033 487
DStem2: 235 1143 378 1058 0.695594 0.718435<-11.0722 431.64> 762 1489 650 1342 0.524235 -0.851574<66.4671 428.116>
LayerCount: 2
Fore
SplineSet
641 1520 m 2,0,1
 701 1520 l 2,2,3
 743 1520 743 1520 762 1489 c 2,4,-1
 975 1143 l 2,5,6
 980 1135 980 1135 980 1120 c 0,7,8
 980 1096 980 1096 945 1075 c 2,9,-1
 887 1040 l 2,10,11
 875 1033 875 1033 860 1033 c 0,12,13
 837 1033 837 1033 822 1058 c 2,14,15
 650 1342 l 1,16,-1
 378 1058 l 2,17,18
 354 1033 354 1033 332 1033 c 0,19,20
 320 1033 320 1033 307 1040 c 2,21,-1
 241 1075 l 2,22,23
 220 1086 220 1086 220 1108 c 0,24,25
 220 1128 220 1128 235 1143 c 2,26,-1
 570 1489 l 2,27,28
 600 1520 600 1520 641 1520 c 2,0,1
EndSplineSet
Validated: 1
EndChar

StartChar: underscore
Encoding: 95 95 53
Width: 1200
GlyphClass: 2
Flags: W
HStem: -200 113<136.508 1063.49>
LayerCount: 2
Fore
SplineSet
184 -87 m 2,0,-1
 1036 -87 l 2,1,2
 1070 -87 1070 -87 1070 -116 c 0,3,4
 1070 -121 1070 -121 1069 -127 c 2,5,-1
 1063 -160 l 2,6,7
 1056 -200 1056 -200 1016 -200 c 2,8,-1
 164 -200 l 2,9,10
 130 -200 130 -200 130 -171 c 0,11,12
 130 -166 130 -166 131 -160 c 2,13,-1
 137 -127 l 2,14,15
 144 -87 144 -87 184 -87 c 2,0,-1
EndSplineSet
Validated: 1
EndChar

StartChar: grave
Encoding: 96 96 54
Width: 1200
GlyphClass: 2
Flags: W
HStem: 1069 451<578.625 660.594>
VStem: 489 222
LayerCount: 2
Fore
SplineSet
632 1520 m 0,0,1
 654 1520 654 1520 659 1490 c 2,2,-1
 710 1139 l 2,3,4
 711 1131 711 1131 711 1129 c 0,5,6
 711 1102 711 1102 675 1089 c 2,7,-1
 632 1073 l 2,8,9
 621 1069 621 1069 613 1069 c 0,10,11
 590 1069 590 1069 582 1097 c 2,12,-1
 492 1429 l 2,13,14
 489 1440 489 1440 489 1445 c 0,15,16
 489 1474 489 1474 525 1486 c 2,17,-1
 613 1516 l 2,18,19
 625 1520 625 1520 632 1520 c 0,0,1
EndSplineSet
Validated: 1
EndChar

StartChar: o
Encoding: 111 111 55
Width: 1200
GlyphClass: 2
Flags: W
HStem: -20 157<403.851 670.763> 965 155<526.659 798.784>
VStem: 136 172<240.544 694.869> 889 175<399.781 868.345>
LayerCount: 2
Fore
SplineSet
530 137 m 0,0,1
 641 137 641 137 741 237 c 0,2,3
 858 354 858 354 881 550 c 0,4,5
 889 618 889 618 889 675 c 0,6,7
 889 795 889 795 846 866 c 0,8,9
 785 965 785 965 673 965 c 0,10,11
 558 965 558 965 463 869 c 0,12,13
 342 747 342 747 318 553 c 0,14,15
 309 481 309 481 308 422 c 0,16,17
 308 308 308 308 352 240 c 0,18,19
 420 137 420 137 530 137 c 0,0,1
507 -20 m 0,20,21
 320 -20 320 -20 224 122 c 0,22,23
 136 253 136 253 136 432 c 0,24,25
 136 488 136 488 144 550 c 0,26,27
 179 827 179 827 349 982 c 0,28,29
 500 1120 500 1120 690 1120 c 0,30,31
 874 1120 874 1120 977 976 c 0,32,33
 1064 855 1064 855 1064 673 c 0,34,35
 1064 615 1064 615 1056 550 c 0,36,37
 1024 284 1024 284 856 118 c 0,38,39
 715 -20 715 -20 507 -20 c 0,20,21
EndSplineSet
Validated: 1
EndChar

StartChar: braceleft
Encoding: 123 123 56
Width: 1200
GlyphClass: 2
Flags: W
HStem: -205 160<524.906 692.711> 675 160<197.289 376> 1550 160<786.502 1002.71>
VStem: 284 180<13.1396 260.544>
DStem2: 222.059 -205 401.938 -205 0.173648 0.984808<372.663 893.362 1055.79 1739.24>
LayerCount: 2
Fore
SplineSet
636 -205 m 0,0,1
 442 -205 442 -205 352 -99 c 0,2,3
 284 -18 284 -18 284 106 c 0,4,5
 284 152 284 152 294 203 c 2,6,-1
 376 675 l 1,7,-1
 226 675 l 2,8,9
 184 675 184 675 184 711 c 0,10,11
 184 717 184 717 186 725 c 2,12,-1
 196 785 l 2,13,14
 204 835 204 835 254 835 c 2,15,-1
 404 835 l 1,16,-1
 488 1302 l 2,17,18
 522 1494 522 1494 652 1604 c 0,19,20
 780 1710 780 1710 974 1710 c 0,21,22
 1016 1710 1016 1710 1016 1674 c 0,23,24
 1016 1668 1016 1668 1014 1661 c 2,25,-1
 1004 1599 l 2,26,27
 994 1550 994 1550 944 1550 c 0,28,29
 839 1550 839 1550 764.5 1490 c 128,-1,30
 690 1430 690 1430 670 1324 c 2,31,-1
 470 181 l 2,32,33
 464 154 464 154 464 130 c 0,34,35
 464 60 464 60 506 15 c 0,36,37
 560 -45 560 -45 664 -45 c 0,38,39
 706 -45 706 -45 706 -81 c 0,40,41
 706 -87 706 -87 704 -94 c 2,42,-1
 694 -156 l 2,43,44
 686 -205 686 -205 636 -205 c 0,0,1
EndSplineSet
Validated: 1
EndChar

StartChar: bar
Encoding: 124 124 57
Width: 1200
GlyphClass: 2
Flags: W
DStem2: 362.184 -150 518.184 -150 0.173648 0.984808<36.9955 1828.1>
LayerCount: 2
Fore
SplineSet
732 1660 m 2,0,-1
 788 1660 l 2,1,2
 830 1660 830 1660 830 1624 c 0,3,4
 830 1618 830 1618 829 1610 c 2,5,-1
 527 -100 l 2,6,7
 518 -150 518 -150 469 -150 c 2,8,-1
 413 -150 l 2,9,10
 370 -150 370 -150 370 -114 c 0,11,12
 370 -108 370 -108 371 -100 c 2,13,-1
 673 1610 l 2,14,15
 682 1660 682 1660 732 1660 c 2,0,-1
EndSplineSet
Validated: 1
EndChar

StartChar: braceright
Encoding: 125 125 58
Width: 1200
GlyphClass: 2
Flags: W
HStem: -205 160<197.289 412.682> 675 160<824 1002.71> 1550 160<507.289 675.094>
VStem: 734 182<1107.34 1493.17>
DStem2: 459.938 -205 640.832 -205 0.173648 0.984808<236.617 924.987 1087.42 1602.85>
LayerCount: 2
Fore
SplineSet
226 -205 m 0,0,1
 184 -205 184 -205 184 -169 c 0,2,3
 184 -163 184 -163 184 -156 c 2,4,-1
 196 -94 l 2,5,6
 204 -45 204 -45 254 -45 c 0,7,8
 359 -45 359 -45 434.5 15 c 128,-1,9
 510 75 510 75 528 181 c 2,10,-1
 730 1324 l 2,11,12
 734 1351 734 1351 734 1375 c 0,13,14
 734 1445 734 1445 694 1490 c 0,15,16
 640 1550 640 1550 536 1550 c 0,17,18
 494 1550 494 1550 494 1586 c 0,19,20
 494 1592 494 1592 494 1599 c 2,21,-1
 506 1661 l 2,22,23
 514 1710 514 1710 564 1710 c 0,24,25
 758 1710 758 1710 848 1604 c 0,26,27
 916 1523 916 1523 916 1399 c 0,28,29
 916 1353 916 1353 906 1302 c 2,30,-1
 824 835 l 1,31,-1
 974 835 l 2,32,33
 1016 835 1016 835 1016 799 c 0,34,35
 1016 793 1016 793 1014 785 c 2,36,-1
 1004 725 l 2,37,38
 996 675 996 675 946 675 c 2,39,-1
 796 675 l 1,40,-1
 712 203 l 2,41,42
 678 11 678 11 548 -99 c 0,43,44
 420 -205 420 -205 226 -205 c 0,0,1
EndSplineSet
Validated: 1
EndChar

StartChar: asciitilde
Encoding: 126 126 59
Width: 1200
GlyphClass: 2
Flags: W
HStem: 576 147<692.763 844.633> 790 147<354.666 507.158>
VStem: 166 152<598.063 752.847> 882 152<760.153 914.937>
LayerCount: 2
Fore
SplineSet
448 937 m 0,0,1
 586 937 586 937 662 810 c 0,2,3
 714 723 714 723 762 723 c 0,4,5
 856 723 856 723 882 866 c 8,6,7
 890 916 890 916 940 916 c 2,8,-1
 992 916 l 2,9,10
 1034 916 1034 916 1034 880 c 0,11,12
 1034 874 1034 874 1034 866 c 0,13,14
 984 576 984 576 752 576 c 0,15,16
 614 576 614 576 538 703 c 0,17,18
 486 790 486 790 436 790 c 0,19,20
 342 790 342 790 318 647 c 8,21,22
 310 597 310 597 260 597 c 2,23,-1
 208 597 l 2,24,25
 166 597 166 597 166 633 c 0,26,27
 166 639 166 639 166 647 c 0,28,29
 216 937 216 937 448 937 c 0,0,1
EndSplineSet
Validated: 1
EndChar

StartChar: exclamdown
Encoding: 161 161 61
Width: 1200
GlyphClass: 2
Flags: W
HStem: -400 21G<379.5 546> 856 264<612.253 797.777>
VStem: 358 221<-398.937 -246.148> 571 268<895.223 1081.32> 576 141<584.803 698.804>
LayerCount: 2
Fore
SplineSet
705 1120 m 0,0,1
 764 1120 764 1120 799 1084 c 0,2,3
 839 1043 839 1043 839 988 c 128,-1,4
 839 933 839 933 799 894 c 0,5,6
 760 856 760 856 705 856 c 0,7,8
 648 856 648 856 611 892 c 0,9,10
 571 931 571 931 571 988 c 128,-1,11
 571 1045 571 1045 611 1082.5 c 128,-1,12
 651 1120 651 1120 705 1120 c 0,0,1
521 -400 m 2,13,-1
 401 -400 l 2,14,15
 358 -400 358 -400 358 -364 c 0,16,17
 358 -358 358 -358 359 -351 c 9,18,-1
 576 651 l 2,19,20
 587 700 587 700 634 700 c 2,21,-1
 674 700 l 2,22,23
 717 700 717 700 717 662 c 0,24,25
 717 657 717 657 716 651 c 2,26,-1
 579 -351 l 17,27,28
 571 -400 571 -400 521 -400 c 2,13,-1
EndSplineSet
Validated: 1
EndChar

StartChar: cent
Encoding: 162 162 62
Width: 1200
GlyphClass: 2
Flags: W
HStem: 963 155<781 859.25>
VStem: 180 172<237.982 677.698>
DStem2: 452.473 -180 552.473 -180 0.173648 0.984808<14.3184 168.605 340.176 1153.39 1335.33 1485.5>
LayerCount: 2
Fore
SplineSet
482 -14 m 1,0,1
 342 8 342 8 268 119 c 0,2,3
 180 252 180 252 180 423 c 0,4,5
 180 484 180 484 191 550 c 0,6,7
 241 840 241 840 392 980 c 0,8,9
 521 1099 521 1099 681 1117 c 1,10,-1
 706 1260 l 2,11,12
 710 1280 710 1280 730 1280 c 2,13,-1
 790 1280 l 2,14,15
 807 1280 807 1280 807 1266 c 0,16,17
 807 1263 807 1263 806 1260 c 2,18,-1
 781 1118 l 1,19,20
 948 1103 948 1103 1031 974 c 0,21,22
 1038 963 1038 963 1038 953 c 0,23,24
 1038 932 1038 932 1014 917 c 2,25,-1
 943 872 l 2,26,27
 926 861 926 861 914 861 c 0,28,29
 901 862 901 862 891 880 c 0,30,31
 852 953 852 953 754 963 c 1,32,-1
 608 138 l 1,33,34
 695 151 695 151 768 226 c 0,35,36
 786 245 786 245 797 245 c 0,37,38
 810 245 810 245 822 234 c 2,39,-1
 887 176 l 2,40,41
 901 164 901 164 901 148 c 0,42,43
 901 133 901 133 885 119 c 0,44,45
 743 -11 743 -11 581 -19 c 1,46,-1
 556 -160 l 2,47,48
 552 -180 552 -180 532 -180 c 2,49,-1
 472 -180 l 2,50,51
 455 -180 455 -180 455 -166 c 0,52,53
 455 -163 455 -163 456 -160 c 2,54,-1
 482 -14 l 1,0,1
510 144 m 1,55,-1
 652 956 l 1,56,57
 577 936 577 936 510 869 c 0,58,59
 401 759 401 759 365 553 c 0,60,61
 352 478 352 478 352 417 c 0,62,63
 352 304 352 304 396 237 c 0,64,65
 443 166 443 166 510 144 c 1,55,-1
EndSplineSet
Validated: 1
EndChar

StartChar: sterling
Encoding: 163 163 63
Width: 1200
GlyphClass: 2
Flags: W
HStem: 0 160<55.2812 184 364 998.652> 600 160<163.281 262 470 834.652> 1382 138<656.694 934.121>
VStem: 1000 158<1226.89 1317.95>
DStem2: 155.788 0 335.788 0 0.173648 0.984808<193.725 609.328 803.016 1354.43>
LayerCount: 2
Fore
SplineSet
76 0 m 2,0,1
 42 0 42 0 42 28 c 0,2,3
 42 33 42 33 42 39 c 2,4,-1
 56 121 l 2,5,6
 64 160 64 160 104 160 c 2,7,-1
 184 160 l 1,8,-1
 262 600 l 1,9,-1
 184 600 l 2,10,11
 150 600 150 600 150 628 c 0,12,13
 150 633 150 633 150 639 c 2,14,-1
 164 721 l 2,15,16
 172 760 172 760 212 760 c 2,17,-1
 290 760 l 1,18,-1
 356 1137 l 2,19,20
 392 1345 392 1345 538 1446 c 0,21,22
 645 1520 645 1520 815.5 1520 c 128,-1,23
 986 1520 986 1520 1084 1419 c 0,24,25
 1130 1369 1130 1369 1156 1289 c 0,26,27
 1158 1282 1158 1282 1158 1274 c 0,28,29
 1158 1246 1158 1246 1130 1234 c 2,30,-1
 1050 1199 l 2,31,32
 1034 1192 1034 1192 1020 1192 c 0,33,34
 1004 1192 1004 1192 1000 1214 c 0,35,36
 988 1288 988 1288 950 1325 c 0,37,38
 892 1382 892 1382 806 1382 c 0,39,40
 706 1382 706 1382 630 1318 c 0,41,42
 556 1254 556 1254 536 1137 c 2,43,-1
 470 760 l 1,44,-1
 816 760 l 2,45,46
 850 760 850 760 850 732 c 0,47,48
 850 727 850 727 848 721 c 2,49,-1
 834 639 l 2,50,51
 828 600 828 600 788 600 c 2,52,-1
 442 600 l 1,53,-1
 364 160 l 1,54,-1
 980 160 l 2,55,56
 1014 160 1014 160 1014 132 c 0,57,58
 1014 127 1014 127 1012 121 c 2,59,-1
 998 39 l 2,60,61
 992 0 992 0 952 0 c 2,62,-1
 76 0 l 2,0,1
EndSplineSet
Validated: 1
EndChar

StartChar: currency
Encoding: 164 164 64
Width: 1200
GlyphClass: 2
Flags: W
HStem: 420 150<455.766 697.236> 934 151<501.576 746.168>
VStem: 260 153<619.788 846.41> 787 153<659.312 886.297>
DStem2: 392 1138 266 1031 0.635912 -0.771761<-25.7878 132.248 725.127 882.992> 288 581 377 475 0.76223 0.647306<-199.886 12.8988 683.451 901.15>
LayerCount: 2
Fore
SplineSet
568 570 m 0,0,1
 645 571 645 571 709 624 c 0,2,3
 770 675 770 675 784 753 c 0,4,5
 787 771 787 771 787 788 c 0,6,7
 787 842 787 842 754 881 c 0,8,9
 711 934 711 934 632 934 c 128,-1,10
 553 934 553 934 491 881 c 128,-1,11
 429 828 429 828 416 756 c 0,12,13
 413 738 413 738 413 721 c 0,14,15
 413 667 413 667 446 625 c 0,16,17
 490 570 490 570 568 570 c 0,0,1
541 420 m 0,18,19
 452 420 452 420 377 475 c 1,20,-1
 257 372 l 2,21,22
 235 354 235 354 218 354 c 128,-1,23
 201 354 201 354 186 372 c 2,24,-1
 156 408 l 2,25,26
 145 422 145 422 145 436 c 0,27,28
 145 459 145 459 168 479 c 2,29,-1
 288 581 l 1,30,31
 260 640 260 640 260 712 c 0,32,33
 260 735 260 735 263 759 c 0,34,35
 275 862 275 862 342 938 c 1,36,-1
 266 1031 l 2,37,38
 255 1044 255 1044 255 1059 c 0,39,40
 255 1082 255 1082 278 1102 c 2,41,-1
 321 1138 l 2,42,43
 342 1156 342 1156 359.5 1156 c 128,-1,44
 377 1156 377 1156 392 1138 c 2,45,-1
 470 1043 l 1,46,47
 546 1085 546 1085 658 1085 c 0,48,49
 742 1085 742 1085 819 1033 c 1,50,-1
 944 1138 l 2,51,52
 965 1156 965 1156 982.5 1156 c 128,-1,53
 1000 1156 1000 1156 1015 1138 c 2,54,-1
 1044 1102 l 2,55,56
 1055 1089 1055 1089 1055 1073 c 0,57,58
 1055 1051 1055 1051 1032 1031 c 2,59,-1
 909 928 l 1,60,61
 940 867 940 867 940 795 c 0,62,63
 940 774 940 774 938 752 c 0,64,65
 926 654 926 654 859 569 c 1,66,-1
 934 479 l 2,67,68
 945 466 945 466 945 449 c 0,69,70
 945 428 945 428 922 408 c 2,71,-1
 880 372 l 2,72,73
 858 354 858 354 841 354 c 128,-1,74
 824 354 824 354 809 372 c 2,75,-1
 731 464 l 1,76,77
 652 420 652 420 541 420 c 0,18,19
EndSplineSet
Validated: 1
EndChar

StartChar: yen
Encoding: 165 165 65
Width: 1200
GlyphClass: 2
Flags: W
HStem: 0 21G<348 474.5> 344 120<67.4707 380 582 894.529> 594 120<111.471 412 658 938.529> 1480 20G<175 318.5 1014.5 1167>
DStem2: 546 834 156 1453 0.32733 -0.94491<-720.349 0> 319.36 0 499.36 0 0.173648 0.984808<36.6699 349.304 502.558 603.146> 546 834 658 714 0.573983 0.818867<0 844.025>
LayerCount: 2
Fore
SplineSet
370 0 m 2,0,1
 326 0 326 0 326 36 c 0,2,3
 326 38 326 38 328 49 c 2,4,-1
 380 344 l 1,5,-1
 94 344 l 2,6,7
 60 344 60 344 60 373 c 0,8,9
 60 378 60 378 60 384 c 2,10,-1
 68 424 l 2,11,12
 76 464 76 464 114 464 c 2,13,-1
 402 464 l 1,14,-1
 424 594 l 1,15,-1
 138 594 l 2,16,17
 104 594 104 594 104 623 c 0,18,19
 104 628 104 628 104 634 c 2,20,-1
 112 674 l 2,21,22
 120 714 120 714 158 714 c 2,23,-1
 412 714 l 1,24,-1
 156 1453 l 2,25,26
 152 1465 152 1465 152 1468 c 0,27,28
 152 1500 152 1500 198 1500 c 2,29,-1
 302 1500 l 2,30,31
 335 1500 335 1500 346 1466 c 2,32,-1
 546 834 l 1,33,-1
 975 1466 l 2,34,35
 998 1500 998 1500 1031 1500 c 2,36,-1
 1150 1500 l 2,37,38
 1184 1500 1184 1500 1184 1477 c 0,39,40
 1184 1464 1184 1464 1176 1453 c 2,41,-1
 658 714 l 1,42,-1
 912 714 l 2,43,44
 946 714 946 714 946 685 c 0,45,46
 946 680 946 680 946 674 c 2,47,-1
 938 634 l 2,48,49
 930 594 930 594 892 594 c 2,50,-1
 604 594 l 1,51,-1
 582 464 l 1,52,-1
 868 464 l 2,53,54
 902 464 902 464 902 435 c 0,55,56
 902 430 902 430 902 424 c 2,57,-1
 894 384 l 2,58,59
 886 344 886 344 848 344 c 2,60,-1
 560 344 l 1,61,-1
 508 49 l 2,62,63
 499 0 499 0 450 0 c 2,64,-1
 370 0 l 2,0,1
EndSplineSet
Validated: 1
EndChar

StartChar: brokenbar
Encoding: 166 166 66
Width: 1200
GlyphClass: 2
Flags: W
DStem2: 362.184 -150 518.184 -150 0.173648 0.984808<37.0258 812.699 1034.91 1828.07>
LayerCount: 2
Fore
SplineSet
413 -150 m 2,0,1
 370 -150 370 -150 370 -114 c 0,2,3
 370 -107 370 -107 371 -100 c 2,4,-1
 497 610 l 2,5,6
 506 660 506 660 555 660 c 2,7,-1
 611 660 l 2,8,9
 654 660 654 660 654 624 c 0,10,11
 654 617 654 617 653 610 c 2,12,-1
 527 -100 l 2,13,14
 518 -150 518 -150 469 -150 c 2,15,-1
 413 -150 l 2,0,1
732 1660 m 2,16,-1
 788 1660 l 2,17,18
 830 1660 830 1660 830 1624 c 0,19,20
 830 1617 830 1617 829 1610 c 2,21,-1
 704 900 l 2,22,23
 695 850 695 850 645 850 c 2,24,-1
 589 850 l 2,25,26
 546 850 546 850 546 886 c 0,27,28
 547 893 547 893 548 900 c 2,29,-1
 673 1610 l 2,30,31
 682 1660 682 1660 732 1660 c 2,16,-1
EndSplineSet
Validated: 1
EndChar

StartChar: section
Encoding: 167 167 67
Width: 1200
GlyphClass: 2
Flags: W
HStem: -20 150<382.072 615.747> 1370 150<584.253 817.928>
VStem: 225 176<636.499 854.67> 378 172<1150.55 1335.51> 650 172<164.492 349.445> 799 176<645.33 863.501>
DStem2: 516 595 405 448 0.922194 -0.386727<-134.558 231.631> 671 1104 583 945 0.922194 -0.386727<-142.684 223.69>
LayerCount: 2
Fore
SplineSet
484 -20 m 0,0,1
 299 -20 299 -20 222 100 c 0,2,3
 213 114 213 114 213 128 c 0,4,5
 213 143 213 143 237 163 c 2,6,-1
 294 210 l 2,7,8
 310 223 310 223 322 223 c 0,9,10
 343 223 343 223 355 205 c 0,11,12
 405 130 405 130 492 130 c 0,13,14
 547 130 547 130 591 155 c 0,15,16
 640 182 640 182 649 246 c 0,17,18
 650 255 650 255 650 263 c 0,19,20
 650 345 650 345 529 396 c 2,21,-1
 405 448 l 2,22,23
 225 523 225 523 225 685 c 0,24,25
 225 713 225 713 231 745 c 0,26,27
 250 853 250 853 324 943 c 0,28,29
 341 964 341 964 360 964 c 0,30,31
 375 964 375 964 388 955 c 2,32,-1
 445 916 l 2,33,34
 461 905 461 905 461 888 c 0,35,36
 461 875 461 875 445 854 c 0,37,38
 413 813 413 813 404 765 c 0,39,40
 401 750 401 750 401 735 c 0,41,42
 401 640 401 640 516 595 c 2,43,-1
 617 555 l 2,44,45
 822 474 822 474 822 286 c 0,46,47
 822 268 822 268 820 250 c 0,48,49
 807 121 807 121 708 49 c 0,50,51
 613 -20 613 -20 484 -20 c 0,0,1
716 1520 m 0,52,53
 901 1520 901 1520 978 1400 c 0,54,55
 987 1386 987 1386 987 1372 c 0,56,57
 987 1357 987 1357 963 1337 c 2,58,-1
 906 1290 l 2,59,60
 890 1277 890 1277 878 1277 c 0,61,62
 857 1277 857 1277 845 1295 c 0,63,64
 795 1370 795 1370 708 1370 c 0,65,66
 653 1370 653 1370 609 1345 c 0,67,68
 560 1318 560 1318 551 1254 c 0,69,70
 550 1245 550 1245 550 1237 c 0,71,72
 550 1155 550 1155 671 1104 c 2,73,-1
 795 1052 l 2,74,75
 975 977 975 977 975 815 c 0,76,77
 975 787 975 787 969 755 c 0,78,79
 950 647 950 647 876 557 c 0,80,81
 859 536 859 536 840 536 c 0,82,83
 825 536 825 536 812 545 c 2,84,-1
 755 584 l 2,85,86
 739 595 739 595 739 612 c 0,87,88
 739 625 739 625 755 646 c 0,89,90
 787 687 787 687 796 735 c 0,91,92
 799 750 799 750 799 765 c 0,93,94
 799 860 799 860 684 905 c 2,95,-1
 583 945 l 2,96,97
 378 1026 378 1026 378 1214 c 0,98,99
 378 1232 378 1232 380 1250 c 0,100,101
 393 1379 393 1379 492 1451 c 0,102,103
 587 1520 587 1520 716 1520 c 0,52,53
EndSplineSet
Validated: 1
EndChar

StartChar: dieresis
Encoding: 168 168 68
Width: 1200
GlyphClass: 2
Flags: W
HStem: 1256 264<341.253 526.777 673.253 858.777>
VStem: 300 268<1295.22 1481.32> 632 268<1295.22 1481.32>
LayerCount: 2
Fore
SplineSet
766 1520 m 0,0,1
 825 1520 825 1520 860 1484 c 0,2,3
 900 1443 900 1443 900 1388 c 128,-1,4
 900 1333 900 1333 860 1294 c 0,5,6
 821 1256 821 1256 766 1256 c 0,7,8
 709 1256 709 1256 672 1292 c 0,9,10
 632 1331 632 1331 632 1388 c 128,-1,11
 632 1445 632 1445 672 1482.5 c 128,-1,12
 712 1520 712 1520 766 1520 c 0,0,1
434 1520 m 0,13,14
 493 1520 493 1520 528 1484 c 0,15,16
 568 1443 568 1443 568 1388 c 128,-1,17
 568 1333 568 1333 528 1294 c 0,18,19
 489 1256 489 1256 434 1256 c 0,20,21
 377 1256 377 1256 340 1292 c 0,22,23
 300 1331 300 1331 300 1388 c 128,-1,24
 300 1445 300 1445 340 1482.5 c 128,-1,25
 380 1520 380 1520 434 1520 c 0,13,14
EndSplineSet
Validated: 1
EndChar

StartChar: guillemotleft
Encoding: 171 171 69
Width: 1200
GlyphClass: 2
Flags: W
DStem2: 318 740 146 720 0.467307 -0.884095<0 424.585> 159 791 318 740 0.661622 0.749838<66.9561 605.295> 706 740 534 720 0.467307 -0.884095<0 424.585> 547 791 706 740 0.661622 0.749838<66.9561 605.295>
LayerCount: 2
Fore
SplineSet
964 1238 m 0,0,1
 979 1238 979 1238 994 1225 c 2,2,-1
 1044 1180 l 2,3,4
 1060 1165 1060 1165 1060 1146 c 0,5,6
 1060 1133 1060 1133 1040 1110 c 2,7,-1
 706 740 l 1,8,-1
 895 394 l 2,9,10
 904 377 904 377 904 364 c 0,11,12
 904 345 904 345 874 324 c 2,13,-1
 825 291 l 2,14,15
 806 278 806 278 791 278 c 0,16,17
 769 278 769 278 756 300 c 2,18,-1
 534 720 l 2,19,20
 528 733 528 733 528 749 c 0,21,22
 528 769 528 769 547 791 c 2,23,-1
 922 1216 l 2,24,25
 942 1238 942 1238 964 1238 c 0,0,1
576 1238 m 0,26,27
 591 1238 591 1238 606 1225 c 2,28,-1
 656 1180 l 2,29,30
 672 1165 672 1165 672 1146 c 0,31,32
 672 1133 672 1133 652 1110 c 2,33,-1
 318 740 l 1,34,-1
 507 394 l 2,35,36
 516 377 516 377 516 364 c 0,37,38
 516 345 516 345 486 324 c 2,39,-1
 437 291 l 2,40,41
 418 278 418 278 403 278 c 0,42,43
 381 278 381 278 368 300 c 2,44,-1
 146 720 l 2,45,46
 140 733 140 733 140 749 c 0,47,48
 140 769 140 769 159 791 c 2,49,-1
 534 1216 l 2,50,51
 554 1238 554 1238 576 1238 c 0,26,27
EndSplineSet
Validated: 1
EndChar

StartChar: logicalnot
Encoding: 172 172 70
Width: 1200
GlyphClass: 2
Flags: W
HStem: 680 150<146.285 839>
DStem2: 638 410 792 410 0.597453 0.801904<21.1252 336.602>
LayerCount: 2
Fore
SplineSet
204 830 m 2,0,-1
 1022 830 l 2,1,2
 1066 830 1066 830 1066 789 c 0,3,4
 1066 777 1066 777 1055 763 c 2,5,-1
 792 410 l 2,6,7
 770 380 770 380 743 380 c 2,8,-1
 649 380 l 2,9,10
 630 380 630 380 630 392 c 0,11,12
 630 400 630 400 638 410 c 2,13,-1
 839 680 l 9,14,-1
 177 680 l 2,15,16
 134 680 134 680 134 715 c 0,17,18
 134 720 134 720 136 730 c 2,19,-1
 145 780 l 2,20,21
 154 830 154 830 204 830 c 2,0,-1
EndSplineSet
Validated: 1
EndChar

StartChar: uni00AD
Encoding: 173 173 71
Width: 1200
GlyphClass: 2
Flags: W
HStem: 680 150<190.164 1010.57>
LayerCount: 2
Fore
SplineSet
247 830 m 2,0,-1
 979 830 l 2,1,2
 1022 830 1022 830 1022 794 c 0,3,4
 1022 788 1022 788 1021 780 c 2,5,-1
 1012 730 l 2,6,7
 1003 680 1003 680 953 680 c 2,8,-1
 221 680 l 2,9,10
 178 680 178 680 178 716 c 0,11,12
 178 722 178 722 180 730 c 2,13,-1
 189 780 l 2,14,15
 197 830 197 830 247 830 c 2,0,-1
EndSplineSet
Validated: 1
EndChar

StartChar: macron
Encoding: 175 175 72
Width: 1200
GlyphClass: 2
Flags: W
HStem: 1246 130<353.596 846.404>
VStem: 344 512<1247.41 1374.59>
LayerCount: 2
Fore
SplineSet
402 1376 m 2,0,-1
 822 1376 l 2,1,2
 856 1376 856 1376 856 1347 c 0,3,4
 856 1342 856 1342 854 1336 c 2,5,-1
 846 1286 l 2,6,7
 838 1246 838 1246 798 1246 c 2,8,-1
 378 1246 l 2,9,10
 344 1246 344 1246 344 1275 c 0,11,12
 344 1280 344 1280 346 1286 c 2,13,-1
 354 1336 l 2,14,15
 362 1376 362 1376 402 1376 c 2,0,-1
EndSplineSet
Validated: 1
EndChar

StartChar: degree
Encoding: 176 176 73
Width: 1200
GlyphClass: 2
Flags: W
HStem: 966 112<479.204 682.195> 1408 112<524.143 729.321>
VStem: 323 128<1115.13 1333.92> 755 123<1152.82 1358.96>
LayerCount: 2
Fore
SplineSet
632 1408 m 0,0,1
 571 1408 571 1408 518.5 1359 c 128,-1,2
 466 1310 466 1310 454 1243 c 16,3,4
 451 1226 451 1226 451 1211 c 0,5,6
 451 1159 451 1159 476 1125 c 0,7,8
 510 1078 510 1078 577 1078 c 0,9,10
 635 1078 635 1078 688 1127 c 0,11,12
 740 1176 740 1176 752 1243 c 16,13,14
 755 1260 755 1260 755 1277 c 0,15,16
 755 1327 755 1327 732 1360 c 0,17,18
 699 1408 699 1408 632 1408 c 0,0,1
647 1520 m 0,19,20
 761 1520 761 1520 827 1438 c 0,21,22
 878 1376 878 1376 878 1282 c 0,23,24
 878 1263 878 1263 876 1243 c 0,25,26
 865 1130 865 1130 772 1046 c 0,27,28
 684 966 684 966 559 966 c 0,29,30
 445 966 445 966 379 1048 c 0,31,32
 323 1117 323 1117 323 1201 c 0,33,34
 323 1221 323 1221 326 1243 c 0,35,36
 343 1359 343 1359 433 1439 c 0,37,38
 523 1520 523 1520 647 1520 c 0,19,20
EndSplineSet
Validated: 1
EndChar

StartChar: plusminus
Encoding: 177 177 74
Width: 1200
GlyphClass: 2
Flags: W
HStem: 256 150<141.285 961.715> 808 150<238.285 561 738 1058.71>
DStem2: 464.155 256 614.155 256 0.173648 0.984808<250.235 560.431 738.888 1049.26>
LayerCount: 2
Fore
SplineSet
698 1300 m 2,0,-1
 748 1300 l 2,1,2
 791 1300 791 1300 791 1264 c 0,3,4
 791 1258 791 1258 789 1250 c 2,5,-1
 738 958 l 1,6,-1
 1028 958 l 2,7,8
 1070 958 1070 958 1070 922 c 0,9,10
 1070 916 1070 916 1069 908 c 2,11,-1
 1060 858 l 2,12,13
 1051 808 1051 808 1001 808 c 2,14,-1
 711 808 l 1,15,-1
 660 516 l 2,16,17
 651 466 651 466 601 466 c 2,18,-1
 551 466 l 2,19,20
 509 466 509 466 509 502 c 0,21,22
 509 508 509 508 510 516 c 2,23,-1
 561 808 l 1,24,-1
 269 808 l 2,25,26
 227 808 227 808 227 844 c 0,27,28
 227 850 227 850 228 858 c 2,29,-1
 237 908 l 2,30,31
 246 958 246 958 296 958 c 2,32,-1
 588 958 l 1,33,-1
 639 1250 l 2,34,35
 648 1300 648 1300 698 1300 c 2,0,-1
199 406 m 2,36,-1
 931 406 l 2,37,38
 973 406 973 406 973 370 c 0,39,40
 973 364 973 364 972 356 c 2,41,-1
 963 306 l 2,42,43
 954 256 954 256 904 256 c 2,44,-1
 172 256 l 2,45,46
 130 256 130 256 130 292 c 0,47,48
 130 298 130 298 131 306 c 2,49,-1
 140 356 l 2,50,51
 149 406 149 406 199 406 c 2,36,-1
EndSplineSet
Validated: 1
EndChar

StartChar: acute
Encoding: 180 180 75
Width: 1200
GlyphClass: 2
Flags: W
HStem: 1080 440
VStem: 431 338
LayerCount: 2
Fore
SplineSet
642 1520 m 0,0,1
 649 1520 649 1520 659 1516 c 2,2,-1
 745 1483 l 2,3,4
 769 1474 769 1474 769 1454 c 0,5,6
 769 1443 769 1443 758 1426 c 2,7,-1
 558 1108 l 2,8,9
 540 1080 540 1080 517 1080 c 0,10,11
 509 1080 509 1080 500 1084 c 2,12,-1
 455 1103 l 2,13,14
 431 1113 431 1113 431 1133 c 0,15,16
 431 1139 431 1139 438 1153 c 2,17,-1
 605 1490 l 2,18,19
 620 1520 620 1520 642 1520 c 0,0,1
EndSplineSet
Validated: 1
EndChar

StartChar: uni00B5
Encoding: 181 181 76
Width: 1200
GlyphClass: 2
Flags: W
HStem: -400 21G<51 167> -20 150<389.708 679.494> 0 21G<769 890.5> 1080 20G<309.5 431 959.5 1081>
DStem2: 22.1837 -400 192.184 -400 0.173648 0.984808<36.9955 508.73 766.447 1519.8> 672.711 -400 842.711 -400 0.173648 0.984808<439.043 481.262 590.344 1519.71>
LayerCount: 2
Fore
SplineSet
788 0 m 2,0,1
 750 0 750 0 750 32 c 0,2,3
 750 38 750 38 751 44 c 2,4,-1
 756 74 l 1,5,6
 637 -20 637 -20 491 -20 c 0,7,8
 356 -20 356 -20 275 72 c 1,9,-1
 201 -350 l 2,10,11
 192 -400 192 -400 142 -400 c 2,12,-1
 72 -400 l 2,13,14
 30 -400 30 -400 30 -364 c 0,15,16
 30 -358 30 -358 31 -350 c 2,17,-1
 279 1056 l 2,18,19
 287 1100 287 1100 332 1100 c 2,20,-1
 412 1100 l 2,21,22
 450 1100 450 1100 450 1068 c 0,23,24
 450 1062 450 1062 449 1056 c 2,25,-1
 331 383 l 2,26,27
 325 352 325 352 325 324 c 0,28,29
 325 250 325 250 364 200 c 0,30,31
 419 130 419 130 543 130 c 0,32,33
 696 130 696 130 785 239 c 1,34,-1
 929 1056 l 2,35,36
 937 1100 937 1100 982 1100 c 2,37,-1
 1062 1100 l 2,38,39
 1100 1100 1100 1100 1100 1068 c 0,40,41
 1100 1062 1100 1062 1099 1056 c 2,42,-1
 921 44 l 2,43,44
 913 0 913 0 868 0 c 2,45,-1
 788 0 l 2,0,1
EndSplineSet
Validated: 1
EndChar

StartChar: paragraph
Encoding: 182 182 77
Width: 1200
GlyphClass: 2
Flags: W
HStem: 0 21G<401.5 488 677.5 764> 1360 140<753 889>
DStem2: 373.36 0 513.36 0 0.173648 0.984808<36.7911 604.131> 649.36 0 789.36 0 0.173648 0.984808<36.7911 1380.95>
LayerCount: 2
Fore
SplineSet
423 0 m 2,0,1
 380 0 380 0 380 36 c 0,2,3
 380 42 380 42 382 49 c 2,4,-1
 478 595 l 1,5,6
 292 596 292 596 183 728 c 0,7,8
 100 829 100 829 100 963 c 0,9,10
 100 1004 100 1004 108 1048 c 0,11,12
 141 1236 141 1236 296 1368 c 0,13,14
 452 1500 452 1500 637 1500 c 2,15,-1
 1003 1500 l 2,16,17
 1046 1500 1046 1500 1046 1464 c 0,18,19
 1046 1458 1046 1458 1045 1451 c 2,20,-1
 798 49 l 2,21,22
 789 0 789 0 739 0 c 2,23,-1
 699 0 l 2,24,25
 656 0 656 0 656 36 c 0,26,27
 656 42 656 42 658 49 c 2,28,-1
 889 1360 l 1,29,-1
 753 1360 l 1,30,-1
 522 49 l 2,31,32
 513 0 513 0 463 0 c 2,33,-1
 423 0 l 2,0,1
EndSplineSet
Validated: 1
EndChar

StartChar: periodcentered
Encoding: 183 183 78
Width: 1200
GlyphClass: 2
Flags: W
HStem: 616 264<507.253 692.777>
VStem: 466 268<655.223 841.323>
LayerCount: 2
Fore
SplineSet
600 880 m 0,0,1
 659 880 659 880 694 844 c 0,2,3
 734 803 734 803 734 748 c 128,-1,4
 734 693 734 693 694 654 c 0,5,6
 655 616 655 616 600 616 c 0,7,8
 543 616 543 616 506 652 c 0,9,10
 466 691 466 691 466 748 c 128,-1,11
 466 805 466 805 506 842.5 c 128,-1,12
 546 880 546 880 600 880 c 0,0,1
EndSplineSet
Validated: 1
EndChar

StartChar: cedilla
Encoding: 184 184 79
Width: 1200
GlyphClass: 2
Flags: W
HStem: -420 128<461.164 604.141> -107 107<528 599.116>
VStem: 626 122<-270.646 -130.721>
LayerCount: 2
Fore
SplineSet
528 0 m 1,0,-1
 608 0 l 1,1,-1
 600 -39 l 1,2,3
 656 -43 656 -43 696 -80 c 0,4,5
 748 -130 748 -130 748 -197 c 0,6,7
 748 -206 748 -206 748 -215 c 0,8,9
 740 -294 740 -294 676 -352 c 0,10,11
 600 -420 600 -420 496 -420 c 0,12,13
 452 -420 452 -420 452 -384 c 0,14,15
 452 -378 452 -378 454 -370 c 2,16,-1
 460 -342 l 2,17,18
 468 -292 468 -292 518 -292 c 0,19,20
 556 -292 556 -292 588 -266 c 0,21,22
 616 -243 616 -243 624 -204 c 0,23,24
 626 -195 626 -195 626 -187 c 0,25,26
 626 -153 626 -153 600 -130 c 0,27,28
 572 -107 572 -107 508 -107 c 1,29,-1
 528 0 l 1,0,-1
EndSplineSet
Validated: 1
EndChar

StartChar: guillemotright
Encoding: 187 187 80
Width: 1200
GlyphClass: 2
Flags: W
DStem2: 444 1216 305 1122 0.467307 -0.884095<-12.2184 412.367> 494 776 278 300 0.661622 0.749838<-538.339 0> 832 1216 693 1122 0.467307 -0.884095<-12.2184 412.367> 882 776 666 300 0.661622 0.749838<-538.339 0>
LayerCount: 2
Fore
SplineSet
236 278 m 0,0,1
 221 278 221 278 206 291 c 2,2,-1
 156 336 l 2,3,4
 140 351 140 351 140 370 c 0,5,6
 140 383 140 383 160 406 c 2,7,-1
 494 776 l 1,8,-1
 305 1122 l 2,9,10
 296 1139 296 1139 296 1152 c 0,11,12
 296 1171 296 1171 326 1192 c 2,13,-1
 375 1225 l 2,14,15
 394 1238 394 1238 409 1238 c 0,16,17
 431 1238 431 1238 444 1216 c 2,18,-1
 666 796 l 2,19,20
 672 783 672 783 672 767 c 0,21,22
 672 747 672 747 653 725 c 2,23,-1
 278 300 l 2,24,25
 258 278 258 278 236 278 c 0,0,1
624 278 m 0,26,27
 609 278 609 278 594 291 c 2,28,-1
 544 336 l 2,29,30
 528 351 528 351 528 370 c 0,31,32
 528 383 528 383 548 406 c 2,33,-1
 882 776 l 1,34,-1
 693 1122 l 2,35,36
 684 1139 684 1139 684 1152 c 0,37,38
 684 1171 684 1171 714 1192 c 2,39,-1
 763 1225 l 2,40,41
 782 1238 782 1238 797 1238 c 0,42,43
 819 1238 819 1238 832 1216 c 2,44,-1
 1054 796 l 2,45,46
 1060 783 1060 783 1060 767 c 0,47,48
 1060 747 1060 747 1041 725 c 2,49,-1
 666 300 l 2,50,51
 646 278 646 278 624 278 c 0,26,27
EndSplineSet
Validated: 1
EndChar

StartChar: questiondown
Encoding: 191 191 81
Width: 1200
GlyphClass: 2
Flags: W
HStem: -420 160<457.989 800.573> 856 264<774.253 959.777>
VStem: 182 180<-165.957 145.303> 733 268<895.223 1081.32>
LayerCount: 2
Fore
SplineSet
867 1120 m 0,0,1
 926 1120 926 1120 961 1084 c 0,2,3
 1001 1043 1001 1043 1001 988 c 128,-1,4
 1001 933 1001 933 961 894 c 0,5,6
 922 856 922 856 867 856 c 0,7,8
 810 856 810 856 773 892 c 0,9,10
 733 931 733 931 733 988 c 128,-1,11
 733 1045 733 1045 773 1082.5 c 128,-1,12
 813 1120 813 1120 867 1120 c 0,0,1
601 -420 m 0,13,14
 385 -420 385 -420 267 -276 c 0,15,16
 182 -172 182 -172 182 -30 c 0,17,18
 182 -1 182 -1 185 30 c 0,19,20
 222 330 222 330 591 500 c 0,21,22
 694 547 694 547 714 651 c 0,23,24
 718 673 718 673 731 682 c 0,25,26
 742 690 742 690 761 690 c 2,27,-1
 861 690 l 2,28,29
 896 690 896 690 896 666 c 0,30,31
 896 664 896 664 894 651 c 0,32,33
 848 436 848 436 651 350 c 0,34,35
 400 241 400 241 366 28 c 0,36,37
 362 0 362 0 362 -26 c 0,38,39
 362 -99 362 -99 397 -153 c 0,40,41
 466 -260 466 -260 620 -260 c 128,-1,42
 774 -260 774 -260 882 -156 c 0,43,44
 901 -137 901 -137 913 -137 c 0,45,46
 926 -137 926 -137 939 -148 c 2,47,-1
 1006 -205 l 2,48,49
 1018 -215 1018 -215 1018 -232 c 0,50,51
 1018 -245 1018 -245 1002 -261 c 0,52,53
 847 -420 847 -420 601 -420 c 0,13,14
EndSplineSet
Validated: 1
EndChar

StartChar: figuredash
Encoding: 8210 8210 82
Width: 1200
GlyphClass: 2
Flags: W
HStem: 680 150<190.164 1010.57>
LayerCount: 2
Fore
SplineSet
247 830 m 2,0,-1
 979 830 l 2,1,2
 1022 830 1022 830 1022 794 c 0,3,4
 1022 788 1022 788 1021 780 c 2,5,-1
 1012 730 l 2,6,7
 1003 680 1003 680 953 680 c 2,8,-1
 221 680 l 2,9,10
 178 680 178 680 178 716 c 0,11,12
 178 722 178 722 180 730 c 2,13,-1
 189 780 l 2,14,15
 197 830 197 830 247 830 c 2,0,-1
EndSplineSet
Validated: 1
EndChar

StartChar: endash
Encoding: 8211 8211 83
Width: 1200
GlyphClass: 2
Flags: W
HStem: 680 150<30.4324 1169.57>
LayerCount: 2
Fore
SplineSet
88 830 m 2,0,-1
 1138 830 l 2,1,2
 1181 830 1181 830 1181 794 c 0,3,4
 1181 788 1181 788 1179 780 c 2,5,-1
 1171 730 l 2,6,7
 1162 680 1162 680 1112 680 c 2,8,-1
 62 680 l 2,9,10
 19 680 19 680 19 716 c 0,11,12
 19 722 19 722 21 730 c 2,13,-1
 29 780 l 2,14,15
 38 830 38 830 88 830 c 2,0,-1
EndSplineSet
Validated: 1
EndChar

StartChar: emdash
Encoding: 8212 8212 84
Width: 1200
GlyphClass: 2
Flags: W
HStem: 680 150<30.4324 1169.57>
LayerCount: 2
Fore
SplineSet
88 830 m 2,0,-1
 1138 830 l 2,1,2
 1181 830 1181 830 1181 794 c 0,3,4
 1181 788 1181 788 1179 780 c 2,5,-1
 1171 730 l 2,6,7
 1162 680 1162 680 1112 680 c 2,8,-1
 62 680 l 2,9,10
 19 680 19 680 19 716 c 0,11,12
 19 722 19 722 21 730 c 2,13,-1
 29 780 l 2,14,15
 38 830 38 830 88 830 c 2,0,-1
EndSplineSet
Validated: 1
EndChar

StartChar: quoteleft
Encoding: 8216 8216 85
Width: 1200
GlyphClass: 2
Flags: W
HStem: 1044 566
VStem: 454 162<1164.83 1426.8>
LayerCount: 2
Fore
SplineSet
543 1044 m 0,0,1
 527 1044 527 1044 511 1062 c 0,2,3
 454 1136 454 1136 454 1243 c 0,4,5
 454 1269 454 1269 457 1296 c 0,6,7
 478 1475 478 1475 667 1601 c 24,8,9
 679 1610 679 1610 691 1610 c 0,10,11
 697 1610 697 1610 705 1603 c 2,12,-1
 736 1577 l 2,13,14
 746 1568 746 1568 746 1557 c 0,15,16
 746 1551 746 1551 739 1545 c 0,17,18
 641 1462 641 1462 620 1342 c 0,19,20
 616 1319 616 1319 616 1297 c 0,21,22
 616 1222 616 1222 663 1161 c 0,23,24
 671 1151 671 1151 672 1138 c 0,25,26
 672 1117 672 1117 644 1100 c 2,27,-1
 564 1050 l 2,28,29
 554 1044 554 1044 543 1044 c 0,0,1
EndSplineSet
Validated: 1
EndChar

StartChar: quoteright
Encoding: 8217 8217 86
Width: 1200
GlyphClass: 2
Flags: W
HStem: 1044 566
VStem: 584 162<1227.2 1489.17>
LayerCount: 2
Fore
SplineSet
657 1610 m 0,0,1
 673 1610 673 1610 689 1592 c 0,2,3
 746 1518 746 1518 746 1411 c 0,4,5
 746 1385 746 1385 743 1358 c 0,6,7
 722 1179 722 1179 533 1053 c 24,8,9
 521 1044 521 1044 509 1044 c 0,10,11
 503 1044 503 1044 495 1051 c 2,12,-1
 464 1077 l 2,13,14
 454 1086 454 1086 454 1097 c 0,15,16
 454 1103 454 1103 461 1109 c 0,17,18
 559 1192 559 1192 580 1312 c 0,19,20
 584 1335 584 1335 584 1357 c 0,21,22
 584 1432 584 1432 537 1493 c 0,23,24
 529 1503 529 1503 528 1516 c 0,25,26
 528 1537 528 1537 556 1554 c 2,27,-1
 636 1604 l 2,28,29
 646 1610 646 1610 657 1610 c 0,0,1
EndSplineSet
Validated: 1
EndChar

StartChar: quotesinglbase
Encoding: 8218 8218 87
Width: 1200
GlyphClass: 2
Flags: W
HStem: -280 566
VStem: 584 162<-96.7969 165.174>
LayerCount: 2
Fore
SplineSet
657 286 m 0,0,1
 673 286 673 286 689 268 c 0,2,3
 746 194 746 194 746 87 c 0,4,5
 746 61 746 61 743 34 c 0,6,7
 722 -145 722 -145 533 -271 c 24,8,9
 521 -280 521 -280 509 -280 c 0,10,11
 503 -280 503 -280 495 -273 c 2,12,-1
 464 -247 l 2,13,14
 454 -238 454 -238 454 -227 c 0,15,16
 454 -221 454 -221 461 -215 c 0,17,18
 559 -132 559 -132 580 -12 c 0,19,20
 584 11 584 11 584 33 c 0,21,22
 584 108 584 108 537 169 c 0,23,24
 529 179 529 179 528 192 c 0,25,26
 528 213 528 213 556 230 c 2,27,-1
 636 280 l 2,28,29
 646 286 646 286 657 286 c 0,0,1
EndSplineSet
Validated: 1
EndChar

StartChar: quotereversed
Encoding: 8219 8219 88
Width: 1200
GlyphClass: 2
Flags: W
HStem: 1044 566<574.462 608.875>
VStem: 461 148<1133.1 1415.72>
LayerCount: 2
Fore
SplineSet
642 1610 m 0,0,1
 653 1610 653 1610 661 1604 c 2,2,-1
 724 1554 l 2,3,4
 739 1542 739 1542 739 1524 c 0,5,6
 739 1507 739 1507 721 1493 c 0,7,8
 633 1418 633 1418 614 1312 c 0,9,10
 609 1286 609 1286 609 1261 c 0,11,12
 609 1178 609 1178 661 1109 c 8,13,14
 664 1105 664 1105 664 1099 c 0,15,16
 664 1088 664 1088 647 1077 c 2,17,-1
 607 1051 l 2,18,19
 596 1044 596 1044 591 1044 c 0,20,21
 579 1044 579 1044 570 1053 c 16,22,23
 461 1159 461 1159 461 1295 c 0,24,25
 461 1326 461 1326 467 1358 c 0,26,27
 493 1506 493 1506 604 1592 c 0,28,29
 627 1610 627 1610 642 1610 c 0,0,1
EndSplineSet
Validated: 1
EndChar

StartChar: quotedblleft
Encoding: 8220 8220 89
Width: 1200
GlyphClass: 2
Flags: W
HStem: 1044 566
VStem: 304 162<1164.83 1426.8> 604 162<1164.83 1426.8>
LayerCount: 2
Fore
SplineSet
393 1044 m 0,0,1
 377 1044 377 1044 361 1062 c 0,2,3
 304 1136 304 1136 304 1243 c 0,4,5
 304 1269 304 1269 307 1296 c 0,6,7
 328 1475 328 1475 517 1601 c 24,8,9
 529 1610 529 1610 541 1610 c 0,10,11
 547 1610 547 1610 555 1603 c 2,12,-1
 586 1577 l 2,13,14
 596 1568 596 1568 596 1557 c 0,15,16
 596 1551 596 1551 589 1545 c 0,17,18
 491 1462 491 1462 470 1342 c 0,19,20
 466 1319 466 1319 466 1297 c 0,21,22
 466 1222 466 1222 513 1161 c 0,23,24
 521 1151 521 1151 522 1138 c 0,25,26
 522 1117 522 1117 494 1100 c 2,27,-1
 414 1050 l 2,28,29
 404 1044 404 1044 393 1044 c 0,0,1
693 1044 m 0,30,31
 677 1044 677 1044 661 1062 c 0,32,33
 604 1136 604 1136 604 1243 c 0,34,35
 604 1269 604 1269 607 1296 c 0,36,37
 628 1475 628 1475 817 1601 c 24,38,39
 829 1610 829 1610 841 1610 c 0,40,41
 847 1610 847 1610 855 1603 c 2,42,-1
 886 1577 l 2,43,44
 896 1568 896 1568 896 1557 c 0,45,46
 896 1551 896 1551 889 1545 c 0,47,48
 791 1462 791 1462 770 1342 c 0,49,50
 766 1319 766 1319 766 1297 c 0,51,52
 766 1222 766 1222 813 1161 c 0,53,54
 821 1151 821 1151 822 1138 c 0,55,56
 822 1117 822 1117 794 1100 c 2,57,-1
 714 1050 l 2,58,59
 704 1044 704 1044 693 1044 c 0,30,31
EndSplineSet
Validated: 1
EndChar

StartChar: quotedblright
Encoding: 8221 8221 90
Width: 1200
GlyphClass: 2
Flags: W
HStem: 1044 566
VStem: 434 162<1227.2 1489.17> 734 162<1227.2 1489.17>
LayerCount: 2
Fore
SplineSet
807 1610 m 0,0,1
 823 1610 823 1610 839 1592 c 0,2,3
 896 1518 896 1518 896 1411 c 0,4,5
 896 1385 896 1385 893 1358 c 0,6,7
 872 1179 872 1179 683 1053 c 24,8,9
 671 1044 671 1044 659 1044 c 0,10,11
 653 1044 653 1044 645 1051 c 2,12,-1
 614 1077 l 2,13,14
 604 1086 604 1086 604 1097 c 0,15,16
 604 1103 604 1103 611 1109 c 0,17,18
 709 1192 709 1192 730 1312 c 0,19,20
 734 1335 734 1335 734 1357 c 0,21,22
 734 1432 734 1432 687 1493 c 0,23,24
 679 1503 679 1503 678 1516 c 0,25,26
 678 1537 678 1537 706 1554 c 2,27,-1
 786 1604 l 2,28,29
 796 1610 796 1610 807 1610 c 0,0,1
507 1610 m 0,30,31
 523 1610 523 1610 539 1592 c 0,32,33
 596 1518 596 1518 596 1411 c 0,34,35
 596 1385 596 1385 593 1358 c 0,36,37
 572 1179 572 1179 383 1053 c 24,38,39
 371 1044 371 1044 359 1044 c 0,40,41
 353 1044 353 1044 345 1051 c 2,42,-1
 314 1077 l 2,43,44
 304 1086 304 1086 304 1097 c 0,45,46
 304 1103 304 1103 311 1109 c 0,47,48
 409 1192 409 1192 430 1312 c 0,49,50
 434 1335 434 1335 434 1357 c 0,51,52
 434 1432 434 1432 387 1493 c 0,53,54
 379 1503 379 1503 378 1516 c 0,55,56
 378 1537 378 1537 406 1554 c 2,57,-1
 486 1604 l 2,58,59
 496 1610 496 1610 507 1610 c 0,30,31
EndSplineSet
Validated: 1
EndChar

StartChar: quotedblbase
Encoding: 8222 8222 91
Width: 1200
GlyphClass: 2
Flags: W
HStem: -280 566
VStem: 434 162<-96.7969 165.174> 734 162<-96.7969 165.174>
LayerCount: 2
Fore
SplineSet
807 286 m 0,0,1
 823 286 823 286 839 268 c 0,2,3
 896 194 896 194 896 87 c 0,4,5
 896 61 896 61 893 34 c 0,6,7
 872 -145 872 -145 683 -271 c 24,8,9
 671 -280 671 -280 659 -280 c 0,10,11
 653 -280 653 -280 645 -273 c 2,12,-1
 614 -247 l 2,13,14
 604 -238 604 -238 604 -227 c 0,15,16
 604 -221 604 -221 611 -215 c 0,17,18
 709 -132 709 -132 730 -12 c 0,19,20
 734 11 734 11 734 33 c 0,21,22
 734 108 734 108 687 169 c 0,23,24
 679 179 679 179 678 192 c 0,25,26
 678 213 678 213 706 230 c 2,27,-1
 786 280 l 2,28,29
 796 286 796 286 807 286 c 0,0,1
507 286 m 0,30,31
 523 286 523 286 539 268 c 0,32,33
 596 194 596 194 596 87 c 0,34,35
 596 61 596 61 593 34 c 0,36,37
 572 -145 572 -145 383 -271 c 24,38,39
 371 -280 371 -280 359 -280 c 0,40,41
 353 -280 353 -280 345 -273 c 2,42,-1
 314 -247 l 2,43,44
 304 -238 304 -238 304 -227 c 0,45,46
 304 -221 304 -221 311 -215 c 0,47,48
 409 -132 409 -132 430 -12 c 0,49,50
 434 11 434 11 434 33 c 0,51,52
 434 108 434 108 387 169 c 0,53,54
 379 179 379 179 378 192 c 0,55,56
 378 213 378 213 406 230 c 2,57,-1
 486 280 l 2,58,59
 496 286 496 286 507 286 c 0,30,31
EndSplineSet
Validated: 1
EndChar

StartChar: dagger
Encoding: 8224 8224 92
Width: 1200
GlyphClass: 2
Flags: W
HStem: 0 21G<346.5 472.5> 1004 170<192.038 495 705 1007.96> 1480 20G<607.5 733.5>
DStem2: 317.36 0 497.36 0 0.173648 0.984808<36.9647 1019.59 1223.48 1517.57>
LayerCount: 2
Fore
SplineSet
368 0 m 2,0,1
 325 0 325 0 325 36 c 0,2,3
 325 42 325 42 326 49 c 2,4,-1
 495 1004 l 1,5,-1
 220 1004 l 2,6,7
 178 1004 178 1004 178 1039 c 0,8,9
 178 1045 178 1045 179 1053 c 2,10,-1
 191 1125 l 2,11,12
 200 1174 200 1174 250 1174 c 2,13,-1
 525 1174 l 1,14,-1
 574 1451 l 2,15,16
 583 1500 583 1500 632 1500 c 2,17,-1
 712 1500 l 2,18,19
 755 1500 755 1500 755 1464 c 0,20,21
 755 1458 755 1458 754 1451 c 2,22,-1
 705 1174 l 1,23,-1
 980 1174 l 2,24,25
 1022 1174 1022 1174 1022 1139 c 0,26,27
 1022 1133 1022 1133 1021 1125 c 2,28,-1
 1009 1053 l 2,29,30
 1000 1004 1000 1004 950 1004 c 2,31,-1
 675 1004 l 1,32,-1
 506 49 l 2,33,34
 497 0 497 0 448 0 c 2,35,-1
 368 0 l 2,0,1
EndSplineSet
Validated: 1
EndChar

StartChar: daggerdbl
Encoding: 8225 8225 93
Width: 1200
GlyphClass: 2
Flags: W
HStem: 0 21G<406 532> 336 170<134.596 436 646 948.841> 1004 170<251.038 554 764 1066.96> 1480 20G<666.5 792.5>
DStem2: 377.36 0 557.36 0 0.173648 0.984808<35.9801 341.078 544.962 1019.42 1223.3 1517.4>
LayerCount: 2
Fore
SplineSet
427 0 m 2,0,1
 385 0 385 0 385 35 c 0,2,3
 385 41 385 41 386 49 c 2,4,-1
 436 336 l 1,5,-1
 161 336 l 2,6,7
 119 336 119 336 119 371 c 0,8,9
 119 377 119 377 120 385 c 2,10,-1
 133 457 l 2,11,12
 142 506 142 506 191 506 c 2,13,-1
 466 506 l 1,14,-1
 554 1004 l 1,15,-1
 279 1004 l 2,16,17
 237 1004 237 1004 237 1039 c 0,18,19
 237 1045 237 1045 238 1053 c 2,20,-1
 250 1125 l 2,21,22
 259 1174 259 1174 309 1174 c 2,23,-1
 584 1174 l 1,24,-1
 633 1451 l 2,25,26
 642 1500 642 1500 691 1500 c 2,27,-1
 771 1500 l 2,28,29
 814 1500 814 1500 814 1464 c 0,30,31
 814 1458 814 1458 813 1451 c 2,32,-1
 764 1174 l 1,33,-1
 1039 1174 l 2,34,35
 1081 1174 1081 1174 1081 1139 c 0,36,37
 1081 1133 1081 1133 1080 1125 c 2,38,-1
 1068 1053 l 2,39,40
 1059 1004 1059 1004 1009 1004 c 2,41,-1
 734 1004 l 1,42,-1
 646 506 l 1,43,-1
 921 506 l 2,44,45
 964 506 964 506 964 470 c 0,46,47
 964 464 964 464 963 457 c 2,48,-1
 950 385 l 2,49,50
 941 336 941 336 891 336 c 2,51,-1
 616 336 l 1,52,-1
 566 49 l 2,53,54
 557 0 557 0 507 0 c 2,55,-1
 427 0 l 2,0,1
EndSplineSet
Validated: 1
EndChar

StartChar: bullet
Encoding: 8226 8226 94
Width: 1200
GlyphClass: 2
Flags: W
HStem: 420 665<432.574 769.627>
VStem: 262 676<590.762 920.135>
LayerCount: 2
Fore
SplineSet
262 759 m 0,0,1
 262 890 262 890 360 988 c 0,2,3
 457 1085 457 1085 600 1085 c 0,4,5
 741 1085 741 1085 840 988 c 0,6,7
 938 892 938 892 938 753 c 0,8,9
 938 611 938 611 840 517 c 0,10,11
 739 420 739 420 600 420 c 0,12,13
 458 420 458 420 360 520 c 128,-1,14
 262 620 262 620 262 759 c 0,0,1
EndSplineSet
Validated: 1
EndChar

StartChar: ellipsis
Encoding: 8230 8230 95
Width: 1200
GlyphClass: 2
Flags: W
HStem: -20 264<135.253 320.777 507.253 692.777 879.253 1064.78>
VStem: 94 268<19.2227 205.323> 466 268<19.2227 205.323> 838 268<19.2227 205.323>
CounterMasks: 1 70
LayerCount: 2
Fore
SplineSet
972 244 m 0,0,1
 1031 244 1031 244 1066 208 c 0,2,3
 1106 167 1106 167 1106 112 c 128,-1,4
 1106 57 1106 57 1066 18 c 0,5,6
 1027 -20 1027 -20 972 -20 c 0,7,8
 915 -20 915 -20 878 16 c 0,9,10
 838 55 838 55 838 112 c 128,-1,11
 838 169 838 169 878 206.5 c 128,-1,12
 918 244 918 244 972 244 c 0,0,1
228 244 m 0,13,14
 287 244 287 244 322 208 c 0,15,16
 362 167 362 167 362 112 c 128,-1,17
 362 57 362 57 322 18 c 0,18,19
 283 -20 283 -20 228 -20 c 0,20,21
 171 -20 171 -20 134 16 c 0,22,23
 94 55 94 55 94 112 c 128,-1,24
 94 169 94 169 134 206.5 c 128,-1,25
 174 244 174 244 228 244 c 0,13,14
600 244 m 0,26,27
 659 244 659 244 694 208 c 0,28,29
 734 167 734 167 734 112 c 128,-1,30
 734 57 734 57 694 18 c 0,31,32
 655 -20 655 -20 600 -20 c 0,33,34
 543 -20 543 -20 506 16 c 0,35,36
 466 55 466 55 466 112 c 128,-1,37
 466 169 466 169 506 206.5 c 128,-1,38
 546 244 546 244 600 244 c 0,26,27
EndSplineSet
Validated: 1
EndChar

StartChar: perthousand
Encoding: 8240 8240 96
Width: 1200
GlyphClass: 2
Flags: W
HStem: -20 128<178.022 356.187 708.022 886.187> 356 124<202.952 380.495 732.952 910.495> 1020 128<251.022 429.187> 1396 124<275.952 453.495>
VStem: 25 134<133.949 312.729> 98 134<1173.95 1352.73> 399 132<150.197 330.832> 472 132<1190.2 1370.83> 555 134<133.949 312.729> 929 132<150.197 330.832>
DStem2: 1096 1336 106 508 0.832292 0.554338<-1319.47 32.3887>
LayerCount: 2
Fore
SplineSet
691 232 m 0,0,1
 689 220 689 220 689 208 c 0,2,3
 689 173 689 173 709 145 c 0,4,5
 737 108 737 108 787 108 c 0,6,7
 838 108 838 108 878 144 c 0,8,9
 919 181 919 181 927 232 c 0,10,11
 929 245 929 245 929 257 c 0,12,13
 929 293 929 293 909 320 c 0,14,15
 881 356 881 356 831 356 c 128,-1,16
 781 356 781 356 740.5 320 c 128,-1,17
 700 284 700 284 691 232 c 0,0,1
557 232 m 0,18,19
 569 338 569 338 655 409 c 128,-1,20
 741 480 741 480 846 480 c 128,-1,21
 951 480 951 480 1011 407 c 0,22,23
 1061 346 1061 346 1061 262 c 0,24,25
 1061 246 1061 246 1059 228 c 0,26,27
 1047 122 1047 122 961.5 51 c 128,-1,28
 876 -20 876 -20 770.5 -20 c 128,-1,29
 665 -20 665 -20 605 53 c 0,30,31
 555 114 555 114 555 198 c 0,32,33
 555 215 555 215 557 232 c 0,18,19
161 232 m 0,34,35
 159 220 159 220 159 208 c 0,36,37
 159 173 159 173 179 145 c 0,38,39
 207 108 207 108 257 108 c 0,40,41
 308 108 308 108 348 144 c 0,42,43
 389 181 389 181 397 232 c 0,44,45
 399 245 399 245 399 257 c 0,46,47
 399 293 399 293 379 320 c 0,48,49
 351 356 351 356 301 356 c 128,-1,50
 251 356 251 356 210.5 320 c 128,-1,51
 170 284 170 284 161 232 c 0,34,35
27 232 m 0,52,53
 39 338 39 338 125 409 c 128,-1,54
 211 480 211 480 316 480 c 128,-1,55
 421 480 421 480 481 407 c 0,56,57
 531 346 531 346 531 262 c 0,58,59
 531 246 531 246 529 228 c 0,60,61
 517 122 517 122 431.5 51 c 128,-1,62
 346 -20 346 -20 240.5 -20 c 128,-1,63
 135 -20 135 -20 75 53 c 0,64,65
 25 114 25 114 25 198 c 0,66,67
 25 215 25 215 27 232 c 0,52,53
234 1272 m 0,68,69
 232 1260 232 1260 232 1248 c 0,70,71
 232 1213 232 1213 252 1185 c 0,72,73
 280 1148 280 1148 330 1148 c 0,74,75
 381 1148 381 1148 421 1184 c 0,76,77
 462 1221 462 1221 470 1272 c 0,78,79
 472 1285 472 1285 472 1297 c 0,80,81
 472 1333 472 1333 452 1360 c 0,82,83
 424 1396 424 1396 374 1396 c 128,-1,84
 324 1396 324 1396 283.5 1360 c 128,-1,85
 243 1324 243 1324 234 1272 c 0,68,69
100 1272 m 0,86,87
 112 1378 112 1378 198 1449 c 128,-1,88
 284 1520 284 1520 389 1520 c 128,-1,89
 494 1520 494 1520 554 1447 c 0,90,91
 604 1386 604 1386 604 1302 c 0,92,93
 604 1286 604 1286 602 1268 c 0,94,95
 590 1162 590 1162 504.5 1091 c 128,-1,96
 419 1020 419 1020 313.5 1020 c 128,-1,97
 208 1020 208 1020 148 1093 c 0,98,99
 98 1154 98 1154 98 1238 c 0,100,101
 98 1255 98 1255 100 1272 c 0,86,87
71 494 m 0,102,103
 53 494 53 494 39 517 c 2,104,-1
 13 561 l 2,105,106
 3 578 3 578 5 593 c 0,107,108
 9 612 9 612 36 630 c 2,109,-1
 1096 1336 l 2,110,111
 1117 1350 1117 1350 1130 1350 c 0,112,113
 1147 1350 1147 1350 1162 1326 c 2,114,-1
 1188 1283 l 2,115,116
 1198 1267 1198 1267 1194 1248 c 0,117,118
 1191 1230 1191 1230 1166 1213 c 2,119,-1
 106 508 l 2,120,121
 85 494 85 494 71 494 c 0,102,103
EndSplineSet
Validated: 1
EndChar

StartChar: minute
Encoding: 8242 8242 97
Width: 1200
GlyphClass: 2
Flags: W
HStem: 1080 440
VStem: 431 338
LayerCount: 2
Fore
SplineSet
642 1520 m 0,0,1
 649 1520 649 1520 659 1516 c 2,2,-1
 745 1483 l 2,3,4
 769 1474 769 1474 769 1454 c 0,5,6
 769 1443 769 1443 758 1426 c 2,7,-1
 558 1108 l 2,8,9
 540 1080 540 1080 517 1080 c 0,10,11
 509 1080 509 1080 500 1084 c 2,12,-1
 455 1103 l 2,13,14
 431 1113 431 1113 431 1133 c 0,15,16
 431 1139 431 1139 438 1153 c 2,17,-1
 605 1490 l 2,18,19
 620 1520 620 1520 642 1520 c 0,0,1
EndSplineSet
Validated: 1
EndChar

StartChar: second
Encoding: 8243 8243 98
Width: 1200
GlyphClass: 2
Flags: W
HStem: 1080 440
VStem: 281 638
LayerCount: 2
Fore
SplineSet
792 1520 m 0,0,1
 799 1520 799 1520 809 1516 c 2,2,-1
 895 1483 l 2,3,4
 919 1474 919 1474 919 1454 c 0,5,6
 919 1443 919 1443 908 1426 c 2,7,-1
 708 1108 l 2,8,9
 690 1080 690 1080 667 1080 c 0,10,11
 659 1080 659 1080 650 1084 c 2,12,-1
 605 1103 l 2,13,14
 581 1113 581 1113 581 1133 c 0,15,16
 581 1139 581 1139 588 1153 c 2,17,-1
 755 1490 l 2,18,19
 770 1520 770 1520 792 1520 c 0,0,1
492 1520 m 0,20,21
 499 1520 499 1520 509 1516 c 2,22,-1
 595 1483 l 2,23,24
 619 1474 619 1474 619 1454 c 0,25,26
 619 1443 619 1443 608 1426 c 2,27,-1
 408 1108 l 2,28,29
 390 1080 390 1080 367 1080 c 0,30,31
 359 1080 359 1080 350 1084 c 2,32,-1
 305 1103 l 2,33,34
 281 1113 281 1113 281 1133 c 0,35,36
 281 1139 281 1139 288 1153 c 2,37,-1
 455 1490 l 2,38,39
 470 1520 470 1520 492 1520 c 0,20,21
EndSplineSet
Validated: 1
EndChar

StartChar: guilsinglleft
Encoding: 8249 8249 99
Width: 1200
GlyphClass: 2
Flags: W
VStem: 334 532
DStem2: 512 740 340 720 0.467307 -0.884095<0 424.585> 353 791 512 740 0.661622 0.749838<66.9561 605.295>
LayerCount: 2
Fore
SplineSet
770 1238 m 0,0,1
 785 1238 785 1238 800 1225 c 2,2,-1
 850 1180 l 2,3,4
 866 1165 866 1165 866 1146 c 0,5,6
 866 1133 866 1133 846 1110 c 2,7,-1
 512 740 l 1,8,-1
 701 394 l 2,9,10
 710 377 710 377 710 364 c 0,11,12
 710 345 710 345 680 324 c 2,13,-1
 631 291 l 2,14,15
 612 278 612 278 597 278 c 0,16,17
 575 278 575 278 562 300 c 2,18,-1
 340 720 l 2,19,20
 334 733 334 733 334 749 c 0,21,22
 334 769 334 769 353 791 c 2,23,-1
 728 1216 l 2,24,25
 748 1238 748 1238 770 1238 c 0,0,1
EndSplineSet
Validated: 1
EndChar

StartChar: guilsinglright
Encoding: 8250 8250 100
Width: 1200
GlyphClass: 2
Flags: W
VStem: 334 532
DStem2: 638 1216 499 1122 0.467307 -0.884095<-12.2184 412.367> 688 776 472 300 0.661622 0.749838<-538.339 0>
LayerCount: 2
Fore
SplineSet
430 278 m 0,0,1
 415 278 415 278 400 291 c 2,2,-1
 350 336 l 2,3,4
 334 351 334 351 334 370 c 0,5,6
 334 383 334 383 354 406 c 2,7,-1
 688 776 l 1,8,-1
 499 1122 l 2,9,10
 490 1139 490 1139 490 1152 c 0,11,12
 490 1171 490 1171 520 1192 c 2,13,-1
 569 1225 l 2,14,15
 588 1238 588 1238 603 1238 c 0,16,17
 625 1238 625 1238 638 1216 c 2,18,-1
 860 796 l 2,19,20
 866 783 866 783 866 767 c 0,21,22
 866 747 866 747 847 725 c 2,23,-1
 472 300 l 2,24,25
 452 278 452 278 430 278 c 0,0,1
EndSplineSet
Validated: 1
EndChar

StartChar: fraction
Encoding: 8260 8260 101
Width: 1200
GlyphClass: 2
Flags: W
HStem: -20 21G<91 108.5> 1500 20G<1091.5 1110>
DStem2: 21 85 141 8 0.594407 0.804164<-34.9878 1792>
LayerCount: 2
Fore
SplineSet
97 -20 m 4,0,1
 85 -20 85 -20 71 -11 c 6,2,-1
 27 17 l 6,3,4
 5 31 5 31 5 53 c 4,5,6
 5 63 5 63 21 85 c 6,7,-1
 1059 1492 l 6,8,9
 1080 1520 1080 1520 1103 1520 c 4,10,11
 1117 1520 1117 1520 1131 1511 c 6,12,-1
 1175 1483 l 6,13,14
 1195 1470 1195 1470 1195 1446 c 4,15,16
 1195 1434 1195 1434 1181 1415 c 6,17,-1
 141 8 l 6,18,19
 120 -20 120 -20 97 -20 c 4,0,1
EndSplineSet
Validated: 1
EndChar

StartChar: Euro
Encoding: 8364 8364 102
Width: 1200
GlyphClass: 2
Flags: W
HStem: -20 160<432.505 697.017> 570 120<29.4707 142 330 757.529> 820 120<73.4707 172 387 801.529> 1360 160<644.19 915.311>
VStem: 141 178<280.44 570> 149 181<690 818.937> 997 148<1222.75 1275.79>
LayerCount: 2
Fore
SplineSet
549 -20 m 0,0,1
 327 -20 327 -20 211 206 c 0,2,3
 141 342 141 342 141 532 c 0,4,5
 141 552 141 552 142 570 c 1,6,-1
 56 570 l 2,7,8
 22 570 22 570 22 599 c 0,9,10
 22 604 22 604 23 610 c 2,11,-1
 30 650 l 2,12,13
 37 690 37 690 77 690 c 2,14,-1
 149 690 l 1,15,16
 152 722 152 722 157 750 c 0,17,18
 164 786 164 786 172 820 c 1,19,-1
 100 820 l 2,20,21
 66 820 66 820 66 849 c 0,22,23
 66 854 66 854 67 860 c 2,24,-1
 74 900 l 2,25,26
 81 940 81 940 121 940 c 2,27,-1
 203 940 l 1,28,29
 268 1151 268 1151 383 1294 c 0,30,31
 565 1520 565 1520 801 1520 c 0,32,33
 1033 1520 1033 1520 1139 1294 c 0,34,35
 1145 1281 1145 1281 1145 1269 c 0,36,37
 1145 1252 1145 1252 1122 1237 c 2,38,-1
 1049 1189 l 2,39,40
 1032 1178 1032 1178 1020 1178 c 0,41,42
 1005 1178 1005 1178 997 1197 c 0,43,44
 932 1360 932 1360 787 1360 c 0,45,46
 636 1360 636 1360 514 1189 c 0,47,48
 434 1078 434 1078 387 940 c 1,49,-1
 775 940 l 2,50,51
 809 940 809 940 809 911 c 0,52,53
 809 906 809 906 808 900 c 2,54,-1
 801 860 l 2,55,56
 794 820 794 820 754 820 c 2,57,-1
 353 820 l 1,58,59
 345 786 345 786 339 750 c 0,60,61
 334 719 334 719 330 690 c 1,62,-1
 731 690 l 2,63,64
 765 690 765 690 765 661 c 0,65,66
 765 656 765 656 764 650 c 2,67,-1
 757 610 l 2,68,69
 750 570 750 570 710 570 c 2,70,-1
 320 570 l 1,71,72
 319 554 319 554 319 538 c 0,73,74
 319 399 319 399 350 311 c 0,75,76
 410 140 410 140 560 140 c 0,77,78
 699 140 699 140 840 318 c 0,79,80
 855 337 855 337 869 337 c 0,81,82
 881 337 881 337 894 326 c 2,83,-1
 970 263 l 2,84,85
 983 252 983 252 983 238 c 0,86,87
 983 225 983 225 967 206 c 0,88,89
 777 -20 777 -20 549 -20 c 0,0,1
EndSplineSet
Validated: 1
EndChar

StartChar: afii61248
Encoding: 8453 8453 103
Width: 1200
GlyphClass: 2
Flags: W
HStem: -20 120<693.518 864.279> 650 120<775.207 944.696> 730 120<253.042 427.484> 1400 120<334.719 510.594>
VStem: 89 134<877.973 1250.06> 533 129<126.629 498.038> 977 128<250.818 623.371>
DStem2: 21 85 141 8 0.594407 0.804164<-34.9878 1792>
LayerCount: 2
Fore
SplineSet
97 -20 m 0,0,1
 85 -20 85 -20 71 -11 c 2,2,-1
 27 17 l 2,3,4
 5 31 5 31 5 53 c 0,5,6
 5 63 5 63 21 85 c 2,7,-1
 1059 1492 l 2,8,9
 1080 1520 1080 1520 1103 1520 c 0,10,11
 1117 1520 1117 1520 1131 1511 c 2,12,-1
 1175 1483 l 2,13,14
 1195 1470 1195 1470 1195 1446 c 0,15,16
 1195 1434 1195 1434 1181 1415 c 2,17,-1
 141 8 l 2,18,19
 120 -20 120 -20 97 -20 c 0,0,1
771 100 m 16,20,21
 836 100 836 100 887 172 c 0,22,23
 947 253 947 253 969 373 c 0,24,25
 977 422 977 422 977 465 c 0,26,27
 977 528 977 528 959 578 c 0,28,29
 933 650 933 650 867.5 650 c 128,-1,30
 802 650 802 650 751 578 c 0,31,32
 693 499 693 499 671 376 c 0,33,34
 662 322 662 322 662 277 c 0,35,36
 662 216 662 216 679 172 c 0,37,38
 707 100 707 100 771 100 c 16,20,21
754 -20 m 128,-1,40
 625 -20 625 -20 569 99 c 0,41,42
 533 177 533 177 533 279 c 0,43,44
 533 325 533 325 540 375 c 0,45,46
 564 537 564 537 657 651 c 0,47,48
 754 770 754 770 883.5 770 c 128,-1,49
 1013 770 1013 770 1069 651 c 0,50,51
 1105 573 1105 573 1105 471 c 0,52,53
 1105 425 1105 425 1098 375 c 0,54,55
 1074 213 1074 213 981 99 c 0,56,39
 883 -20 883 -20 754 -20 c 128,-1,40
315 730 m 0,57,58
 172 730 172 730 121 850 c 0,59,60
 90 923 90 923 89 1013 c 0,61,62
 89 1066 89 1066 100 1125 c 0,63,64
 133 1304 133 1304 210 1402 c 0,65,66
 303 1520 303 1520 449 1520 c 0,67,68
 581 1520 581 1520 641 1394 c 0,69,70
 645 1385 645 1385 645 1373 c 0,71,72
 645 1355 645 1355 621 1339 c 2,73,-1
 582 1313 l 2,74,75
 571 1305 571 1305 556 1305 c 0,76,77
 539 1305 539 1305 530 1323 c 0,78,79
 494 1400 494 1400 437 1400 c 16,80,81
 363 1400 363 1400 310 1328 c 0,82,83
 255 1254 255 1254 233 1127 c 0,84,85
 223 1069 223 1069 223 1022 c 0,86,87
 223 963 223 963 239 922 c 0,88,89
 266 850 266 850 340 850 c 8,90,91
 394 850 394 850 460 927 c 0,92,93
 476 945 476 945 493 945 c 0,94,95
 506 945 506 945 516 936 c 2,96,-1
 550 907 l 2,97,98
 563 896 563 896 563 882 c 0,99,100
 563 869 563 869 549 853 c 0,101,102
 452 730 452 730 315 730 c 0,57,58
EndSplineSet
Validated: 1
EndChar

StartChar: afii61289
Encoding: 8467 8467 104
Width: 1200
GlyphClass: 2
Flags: W
HStem: -20 136<537.001 648.62> 0 21G<101 317.556> 1500 20G<946 1013>
LayerCount: 2
Fore
SplineSet
520 466 m 1,0,1
 674 708 674 708 756 860 c 0,2,3
 905 1134 905 1134 945 1359 c 1,4,5
 861 1266 861 1266 722 1004 c 0,6,7
 562 704 562 704 520 466 c 1,0,1
101 0 m 1,8,9
 237 144 237 144 344 292 c 1,10,11
 346 362 346 362 361 443 c 0,12,13
 387 590 387 590 441 732 c 0,14,15
 640 1246 640 1246 821 1434 c 0,16,17
 904 1520 904 1520 988 1520 c 0,18,19
 1038 1520 1038 1520 1072 1488 c 0,20,21
 1099 1463 1099 1463 1099 1399 c 0,22,23
 1099 1364 1099 1364 1091 1318 c 0,24,25
 1075 1226 1075 1226 1018 1072 c 0,26,27
 886 722 886 722 520 271 c 1,28,29
 525 116 525 116 582 116 c 0,30,31
 601 116 601 116 628 140 c 0,32,33
 665 172 665 172 707 228 c 1,34,-1
 883 228 l 1,35,36
 783 100 783 100 708 40 c 128,-1,37
 633 -20 633 -20 549 -20 c 0,38,39
 429 -20 429 -20 372 90 c 1,40,-1
 302 0 l 1,41,-1
 101 0 l 1,8,9
EndSplineSet
Validated: 1
EndChar

StartChar: trademark
Encoding: 8482 8482 105
Width: 1200
GlyphClass: 2
Flags: W
HStem: 1390 120<89.4382 249 379 560.562>
DStem2: 131.065 720 261.065 720 0.173648 0.984808<28.7911 680.3> 486.539 720 611.539 720 0.173648 0.984808<52.2875 524.373> 881.539 720 1006.54 720 0.173648 0.984808<49.0996 505.622>
LayerCount: 2
Fore
SplineSet
533 740 m 2,0,1
 497 740 497 740 497 771 c 0,2,3
 497 779 497 779 498 785 c 2,4,-1
 618 1465 l 2,5,6
 622 1488 622 1488 639 1500 c 0,7,8
 654 1510 654 1510 671 1510 c 2,9,-1
 752 1510 l 2,10,11
 770 1510 770 1510 780 1495 c 0,12,13
 787 1485 787 1485 788 1471 c 2,14,-1
 822 1148 l 1,15,-1
 970 1471 l 2,16,17
 977 1486 977 1486 986 1495 c 0,18,19
 1002 1510 1002 1510 1021 1510 c 2,20,-1
 1101 1510 l 2,21,22
 1139 1510 1139 1510 1139 1478 c 0,23,24
 1139 1473 1139 1473 1138 1465 c 2,25,-1
 1018 785 l 2,26,27
 1014 762 1014 762 997 750 c 0,28,29
 983 740 983 740 966 740 c 2,30,-1
 929 740 l 2,31,32
 891 740 891 740 891 768 c 0,33,34
 891 774 891 774 893 785 c 2,35,-1
 969 1218 l 1,36,-1
 871 1012 l 2,37,38
 864 997 864 997 856 989 c 0,39,40
 840 974 840 974 821 974 c 2,41,-1
 761 974 l 2,42,43
 742 974 742 974 731 987 c 0,44,45
 725 995 725 995 723 1011 c 2,46,-1
 699 1215 l 1,47,-1
 623 785 l 2,48,49
 619 762 619 762 602 750 c 0,50,51
 588 740 588 740 571 740 c 2,52,-1
 533 740 l 2,0,1
175 720 m 2,53,54
 137 720 137 720 137 748 c 0,55,56
 137 754 137 754 139 765 c 2,57,-1
 249 1390 l 1,58,-1
 98 1390 l 2,59,60
 61 1390 61 1390 61 1420 c 0,61,62
 61 1430 61 1430 62 1435 c 2,63,-1
 68 1465 l 2,64,65
 73 1488 73 1488 89 1500 c 0,66,67
 103 1510 103 1510 120 1510 c 2,68,-1
 552 1510 l 2,69,70
 589 1510 589 1510 589 1476 c 0,71,72
 589 1470 589 1470 588 1465 c 2,73,-1
 582 1435 l 2,74,75
 577 1412 577 1412 561 1400 c 0,76,77
 547 1390 547 1390 530 1390 c 2,78,-1
 379 1390 l 1,79,-1
 269 765 l 2,80,81
 265 742 265 742 248 730 c 0,82,83
 234 720 234 720 217 720 c 2,84,-1
 175 720 l 2,53,54
EndSplineSet
Validated: 1
EndChar

StartChar: uni2126
Encoding: 8486 8486 106
Width: 1200
GlyphClass: 2
Flags: W
HStem: 0 160<31.2891 202 380.269 474.85 887 1024.07> 1360 160<611.315 882.79>
VStem: 108 178<280.628 860.625> 1000 176<643.869 1216.78>
LayerCount: 2
Fore
SplineSet
928 206 m 24,0,1
 907 183 907 183 887 160 c 1,2,-1
 994 160 l 2,3,4
 1037 160 1037 160 1037 124 c 0,5,6
 1037 118 1037 118 1036 111 c 2,7,-1
 1025 49 l 2,8,9
 1016 0 1016 0 966 0 c 2,10,-1
 609 0 l 2,11,12
 567 0 567 0 567 35 c 0,13,14
 567 41 567 41 568 49 c 2,15,-1
 575 90 l 2,16,17
 584 141 584 141 637 160 c 0,18,19
 726 192 726 192 811 311 c 0,20,21
 930 478 930 478 980 750 c 0,22,23
 1000 857 1000 857 1000 950 c 0,24,25
 1000 1096 1000 1096 967 1189 c 0,26,27
 907 1360 907 1360 755 1360 c 128,-1,28
 603 1360 603 1360 481 1189 c 0,29,30
 353 1009 353 1009 306 750 c 0,31,32
 286 636 286 636 286 538 c 0,33,34
 287 396 287 396 317 311 c 0,35,36
 359 195 359 195 445 160 c 0,37,38
 484 144 484 144 484 106 c 0,39,40
 484 99 484 99 483 90 c 2,41,-1
 476 49 l 2,42,43
 467 0 467 0 417 0 c 2,44,-1
 60 0 l 2,45,46
 18 0 18 0 18 35 c 0,47,48
 18 41 18 41 19 49 c 2,49,-1
 30 111 l 2,50,51
 39 160 39 160 88 160 c 2,52,-1
 202 160 l 1,53,54
 190 183 190 183 178 206 c 0,55,56
 109 340 109 340 108 532 c 0,57,58
 108 658 108 658 124 750 c 0,59,60
 184 1086 184 1086 350 1294 c 0,61,62
 532 1520 532 1520 768 1520 c 0,63,64
 998 1520 998 1520 1106 1294 c 0,65,66
 1176 1148 1176 1148 1176 968 c 0,67,68
 1176 838 1176 838 1160 750 c 0,69,70
 1099 398 1099 398 928 206 c 24,0,1
EndSplineSet
Validated: 1
EndChar

StartChar: estimated
Encoding: 8494 8494 107
Width: 1200
GlyphClass: 2
Flags: W
HStem: -20 85<349.487 692.054> 529 80<293 928> 1044 84<506.953 848.814>
DStem2: 888 258 1004 230 0.645942 0.763386<-194.293 14.8567>
LayerCount: 2
Fore
SplineSet
1037 269 m 1,0,-1
 1004 230 l 1,1,2
 913 124 913 124 796 61 c 0,3,4
 646 -20 646 -20 499 -20 c 0,5,6
 354 -20 354 -20 231 56 c 0,7,8
 109 133 109 133 59 270 c 0,9,10
 26 359 26 359 26 454 c 0,11,12
 26 503 26 503 35 554 c 0,13,14
 62 706 62 706 161 841 c 1,15,16
 262 980 262 980 409.5 1054 c 128,-1,17
 557 1128 557 1128 702 1128 c 0,18,19
 844 1128 844 1128 966 1054 c 128,-1,20
 1088 980 1088 980 1140 841 c 0,21,22
 1174 749 1174 749 1174 653 c 0,23,24
 1174 604 1174 604 1165 553 c 2,25,-1
 1161 529 l 1,26,-1
 279 529 l 1,27,-1
 224 220 l 1,28,29
 258 167 258 167 313 129 c 0,30,31
 404 65 404 65 515 65 c 128,-1,32
 626 65 626 65 741 132 c 0,33,34
 821 180 821 180 888 258 c 1,35,-1
 898 269 l 1,36,-1
 1037 269 l 1,0,-1
342 890 m 1,37,-1
 293 609 l 1,38,-1
 928 609 l 1,39,-1
 977 889 l 1,40,41
 942 944 942 944 886 981 c 0,42,43
 792 1044 792 1044 688 1044 c 0,44,45
 580 1044 580 1044 465 982 c 0,46,47
 398 947 398 947 342 890 c 1,37,-1
EndSplineSet
Validated: 1
EndChar

StartChar: partialdiff
Encoding: 8706 8706 108
Width: 1200
GlyphClass: 2
Flags: W
HStem: -20 153<268.455 530.854> 870 140<529.016 806.884> 1325 152<555.695 895.963>
VStem: 44 191<170.65 502.266> 967 189<869.945 1249.96>
LayerCount: 2
Fore
SplineSet
509 1415 m 1,0,1
 654 1477 654 1477 802 1477 c 0,2,3
 1156 1477 1156 1477 1156 1113 c 0,4,5
 1156 1032 1156 1032 1139 934 c 0,6,7
 1070 545 1070 545 852 262.5 c 128,-1,8
 634 -20 634 -20 348 -20 c 0,9,10
 44 -20 44 -20 44 258 c 0,11,12
 44 311 44 311 55 375 c 0,13,14
 99 624 99 624 271 817 c 128,-1,15
 443 1010 443 1010 687 1010 c 0,16,17
 871 1010 871 1010 944 862 c 1,18,19
 967 991 967 991 967 1079 c 0,20,21
 967 1157 967 1157 949 1204 c 0,22,23
 904 1325 904 1325 751 1325 c 0,24,25
 620 1325 620 1325 478 1241 c 1,26,-1
 509 1415 l 1,0,1
879 680 m 1,27,28
 872 765 872 765 817.5 817.5 c 128,-1,29
 763 870 763 870 687 870 c 0,30,31
 526 870 526 870 400 710 c 0,32,33
 274 551 274 551 242 369 c 0,34,35
 235 331 235 331 235 291 c 0,36,37
 235 133 235 133 387 133 c 0,38,39
 525 133 525 133 662 286 c 128,-1,40
 799 439 799 439 879 680 c 1,27,28
EndSplineSet
Validated: 1
EndChar

StartChar: uni2206
Encoding: 8710 8710 109
Width: 1200
GlyphClass: 2
Flags: W
HStem: 0 160<261 917> 1480 20G<712 928>
DStem2: 18 47 261 160 0.420923 0.907096<204.786 1483.18> 952 1465 794 1322 0.110739 -0.993849<124.624 1293.1>
LayerCount: 2
Fore
SplineSet
43 0 m 2,0,1
 10 0 10 0 10 24 c 0,2,3
 10 30 10 30 18 47 c 2,4,-1
 676 1465 l 2,5,6
 692 1500 692 1500 732 1500 c 2,7,-1
 908 1500 l 2,8,9
 948 1500 948 1500 952 1465 c 2,10,-1
 1110 47 l 2,11,12
 1112 31 1112 31 1112 25 c 0,13,14
 1112 0 1112 0 1069 0 c 2,15,-1
 43 0 l 2,0,1
917 160 m 1,16,-1
 794 1322 l 1,17,-1
 261 160 l 1,18,-1
 917 160 l 1,16,-1
EndSplineSet
Validated: 1
EndChar

StartChar: product
Encoding: 8719 8719 110
Width: 1200
GlyphClass: 2
Flags: W
HStem: -400 21G<36 162 706 832> 1340 160<494 984>
DStem2: 7.35998 -400 187.36 -400 0.173648 0.984808<35.9801 1798.07> 677.36 -400 857.36 -400 0.173648 0.984808<35.9801 1766.81>
LayerCount: 2
Fore
SplineSet
57 -400 m 2,0,1
 15 -400 15 -400 15 -365 c 0,2,3
 15 -359 15 -359 16 -351 c 2,4,-1
 334 1451 l 2,5,6
 342 1500 342 1500 393 1500 c 2,7,-1
 1143 1500 l 2,8,9
 1185 1500 1185 1500 1185 1465 c 0,10,11
 1185 1459 1185 1459 1184 1451 c 2,12,-1
 866 -351 l 2,13,14
 857 -400 857 -400 807 -400 c 2,15,-1
 727 -400 l 2,16,17
 685 -400 685 -400 685 -365 c 0,18,19
 685 -359 685 -359 686 -351 c 2,20,-1
 984 1340 l 1,21,-1
 494 1340 l 1,22,-1
 196 -351 l 2,23,24
 187 -400 187 -400 137 -400 c 2,25,-1
 57 -400 l 2,0,1
EndSplineSet
Validated: 1
EndChar

StartChar: summation
Encoding: 8721 8721 111
Width: 1160
GlyphClass: 2
Flags: W
HStem: -400 160<301 855.652> 1340 160<550 1137.93>
DStem2: 15 -365 301 -240 0.525548 0.850764<256.652 1153.08> 550 1340 313 1466 0.340677 -0.94018<0 704.879>
LayerCount: 2
Fore
SplineSet
31 -400 m 2,0,1
 18 -400 18 -400 12 -396 c 0,2,3
 7 -392 7 -392 7 -383 c 0,4,5
 7 -377 7 -377 15 -365 c 2,6,-1
 621 616 l 1,7,-1
 313 1466 l 2,8,9
 311 1473 311 1473 311 1476 c 0,10,11
 311 1490 311 1490 322 1496 c 0,12,13
 329 1500 329 1500 342 1500 c 2,14,-1
 1118 1500 l 2,15,16
 1153 1500 1153 1500 1153 1472 c 0,17,18
 1153 1467 1153 1467 1152 1461 c 2,19,-1
 1137 1379 l 2,20,21
 1130 1340 1130 1340 1090 1340 c 2,22,-1
 550 1340 l 1,23,-1
 815 631 l 2,24,25
 821 616 821 616 821 602 c 0,26,27
 821 584 821 584 804 558 c 2,28,-1
 301 -240 l 1,29,-1
 837 -240 l 2,30,31
 871 -240 871 -240 871 -268 c 0,32,33
 871 -273 871 -273 870 -279 c 2,34,-1
 855 -361 l 2,35,36
 848 -400 848 -400 808 -400 c 2,37,-1
 31 -400 l 2,0,1
EndSplineSet
Validated: 1
EndChar

StartChar: minus
Encoding: 8722 8722 112
Width: 1200
GlyphClass: 2
Flags: W
HStem: 680 150<190.164 1010.57>
LayerCount: 2
Fore
SplineSet
247 830 m 2,0,-1
 979 830 l 2,1,2
 1022 830 1022 830 1022 794 c 0,3,4
 1022 788 1022 788 1021 780 c 2,5,-1
 1012 730 l 2,6,7
 1003 680 1003 680 953 680 c 2,8,-1
 221 680 l 2,9,10
 178 680 178 680 178 716 c 0,11,12
 178 722 178 722 180 730 c 2,13,-1
 189 780 l 2,14,15
 197 830 197 830 247 830 c 2,0,-1
EndSplineSet
Validated: 1
EndChar

StartChar: uni2215
Encoding: 8725 8725 113
Width: 1200
GlyphClass: 2
Flags: W
HStem: -20 21G<91 108.5> 1500 20G<1091.5 1110>
DStem2: 21 85 141 8 0.594407 0.804164<-34.9878 1792>
LayerCount: 2
Fore
SplineSet
97 -20 m 4,0,1
 85 -20 85 -20 71 -11 c 6,2,-1
 27 17 l 6,3,4
 5 31 5 31 5 53 c 4,5,6
 5 63 5 63 21 85 c 6,7,-1
 1059 1492 l 6,8,9
 1080 1520 1080 1520 1103 1520 c 4,10,11
 1117 1520 1117 1520 1131 1511 c 6,12,-1
 1175 1483 l 6,13,14
 1195 1470 1195 1470 1195 1446 c 4,15,16
 1195 1434 1195 1434 1181 1415 c 6,17,-1
 141 8 l 6,18,19
 120 -20 120 -20 97 -20 c 4,0,1
EndSplineSet
Validated: 1
EndChar

StartChar: uni2219
Encoding: 8729 8729 114
Width: 1200
GlyphClass: 2
Flags: W
HStem: 616 264<507.253 692.777>
VStem: 466 268<655.223 841.323>
LayerCount: 2
Fore
SplineSet
600 880 m 0,0,1
 659 880 659 880 694 844 c 0,2,3
 734 803 734 803 734 748 c 128,-1,4
 734 693 734 693 694 654 c 0,5,6
 655 616 655 616 600 616 c 0,7,8
 543 616 543 616 506 652 c 0,9,10
 466 691 466 691 466 748 c 128,-1,11
 466 805 466 805 506 842.5 c 128,-1,12
 546 880 546 880 600 880 c 0,0,1
EndSplineSet
Validated: 1
EndChar

StartChar: radical
Encoding: 8730 8730 115
Width: 1200
GlyphClass: 2
Flags: W
HStem: 0 21G<191.5 439> 620 160<27.8601 121> 1340 160<1010 1172.14>
DStem2: 271 746 121 620 0.0869708 -0.996211<112.477 632.396> 326 116 474 35 0.383157 0.923683<0 1392.67>
LayerCount: 2
Fore
SplineSet
212 0 m 2,0,1
 171 0 171 0 168 35 c 2,2,-1
 121 620 l 1,3,-1
 58 620 l 2,4,5
 15 620 15 620 15 655 c 0,6,7
 15 657 15 657 17 669 c 2,8,-1
 27 731 l 2,9,10
 35 780 35 780 86 780 c 2,11,-1
 228 780 l 2,12,13
 268 780 268 780 271 746 c 2,14,-1
 326 116 l 1,15,-1
 886 1466 l 2,16,17
 900 1500 900 1500 942 1500 c 2,18,-1
 1142 1500 l 2,19,20
 1185 1500 1185 1500 1185 1464 c 0,21,22
 1185 1463 1185 1463 1183 1451 c 2,23,-1
 1173 1389 l 2,24,25
 1165 1340 1165 1340 1114 1340 c 2,26,-1
 1010 1340 l 1,27,-1
 474 35 l 2,28,29
 460 0 460 0 418 0 c 2,30,-1
 212 0 l 2,0,1
EndSplineSet
Validated: 1
EndChar

StartChar: infinity
Encoding: 8734 8734 116
Width: 1200
GlyphClass: 2
Flags: W
HStem: 464 119<235.382 460.267 697.84 921.973> 926 122<279.41 503.965 740.701 966.113>
VStem: 70 132<635.097 848.328> 538 128<662.978 851.965> 1000 130<661.43 874.903>
LayerCount: 2
Fore
SplineSet
340 583 m 0,0,1
 410 584 410 584 468 634 c 0,2,3
 520 682 520 682 534 755 c 0,4,5
 538 775 538 775 538 792 c 0,6,7
 538 842 538 842 510 876 c 0,8,9
 468 926 468 926 400 926 c 0,10,11
 330 926 330 926 272 876 c 0,12,13
 218 829 218 829 206 755 c 0,14,15
 202 736 202 736 202 719 c 0,16,17
 202 669 202 669 230 634 c 0,18,19
 270 584 270 584 340 583 c 0,0,1
416 1048 m 0,20,21
 544 1048 544 1048 610 970 c 0,22,23
 620 958 620 958 628 946 c 1,24,25
 640 959 640 959 654 970 c 0,26,27
 750 1048 750 1048 876 1048 c 0,28,29
 996 1048 996 1048 1068 971 c 0,30,31
 1130 903 1130 903 1130 793 c 0,32,33
 1130 785 1130 785 1130 776 c 0,34,35
 1124 635 1124 635 1010 540 c 0,36,37
 916 462 916 462 788 462 c 0,38,39
 656 462 656 462 592 540 c 0,40,41
 582 552 582 552 574 564 c 1,42,43
 562 551 562 551 548 540 c 0,44,45
 455 464 455 464 326.5 464 c 128,-1,46
 198 464 198 464 132 541 c 0,47,48
 70 615 70 615 70 714 c 0,49,50
 70 734 70 734 72 755 c 0,51,52
 88 889 88 889 190 972 c 0,53,54
 284 1048 284 1048 416 1048 c 0,20,21
802 583 m 0,55,56
 872 584 872 584 930 634 c 0,57,58
 984 682 984 682 998 755 c 0,59,60
 1000 774 1000 774 1000 791 c 0,61,62
 1000 841 1000 841 972 876 c 0,63,64
 930 926 930 926 862 926 c 0,65,66
 790 926 790 926 734 876 c 0,67,68
 680 829 680 829 668 755 c 0,69,70
 666 735 666 735 666 718 c 0,71,72
 666 668 666 668 692 634 c 0,73,74
 732 584 732 584 802 583 c 0,55,56
EndSplineSet
Validated: 1
EndChar

StartChar: approxequal
Encoding: 8776 8776 117
Width: 1200
GlyphClass: 2
Flags: W
HStem: 376 147<657.763 809.633> 590 147<319.666 472.158> 776 147<727.763 879.633> 990 147<389.666 542.158> 1096 20G<950 1048>
VStem: 131 152<398.063 552.847> 201 152<798.063 952.847> 847 152<560.153 714.937> 917 152<960.153 1114.94>
LayerCount: 2
Fore
SplineSet
413 737 m 0,0,1
 551 737 551 737 627 610 c 0,2,3
 679 523 679 523 727 523 c 0,4,5
 821 523 821 523 847 666 c 8,6,7
 855 716 855 716 905 716 c 2,8,-1
 957 716 l 2,9,10
 999 716 999 716 999 680 c 0,11,12
 999 674 999 674 999 666 c 0,13,14
 949 376 949 376 717 376 c 0,15,16
 579 376 579 376 503 503 c 0,17,18
 451 590 451 590 401 590 c 0,19,20
 307 590 307 590 283 447 c 8,21,22
 275 397 275 397 225 397 c 2,23,-1
 173 397 l 2,24,25
 131 397 131 397 131 433 c 0,26,27
 131 439 131 439 131 447 c 0,28,29
 181 737 181 737 413 737 c 0,0,1
483 1137 m 0,30,31
 621 1137 621 1137 697 1010 c 0,32,33
 749 923 749 923 797 923 c 0,34,35
 891 923 891 923 917 1066 c 8,36,37
 925 1116 925 1116 975 1116 c 2,38,-1
 1027 1116 l 2,39,40
 1069 1116 1069 1116 1069 1080 c 0,41,42
 1069 1074 1069 1074 1069 1066 c 0,43,44
 1019 776 1019 776 787 776 c 0,45,46
 649 776 649 776 573 903 c 0,47,48
 521 990 521 990 471 990 c 0,49,50
 377 990 377 990 353 847 c 8,51,52
 345 797 345 797 295 797 c 2,53,-1
 243 797 l 2,54,55
 201 797 201 797 201 833 c 0,56,57
 201 839 201 839 201 847 c 0,58,59
 251 1137 251 1137 483 1137 c 0,30,31
EndSplineSet
Validated: 1
EndChar

StartChar: notequal
Encoding: 8800 8800 118
Width: 1200
GlyphClass: 2
Flags: W
HStem: 490 150<156.285 343 574 976.715> 870 150<223.285 630 861 1043.71>
DStem2: 158 242 235 192 0.602147 0.798385<-28.3579 309.397 568.25 785.599 1044.45 1375.18>
LayerCount: 2
Fore
SplineSet
998 1334 m 0,0,1
 1011 1334 1011 1334 1021 1327 c 2,2,-1
 1037 1316 l 2,3,4
 1054 1304 1054 1304 1054 1289 c 0,5,6
 1054 1279 1054 1279 1042 1262 c 2,7,-1
 861 1020 l 1,8,-1
 1013 1020 l 2,9,10
 1055 1020 1055 1020 1055 984 c 0,11,12
 1055 978 1055 978 1054 970 c 2,13,-1
 1045 920 l 2,14,15
 1036 870 1036 870 986 870 c 2,16,-1
 746 870 l 1,17,-1
 574 640 l 1,18,-1
 946 640 l 2,19,20
 988 640 988 640 988 604 c 0,21,22
 988 598 988 598 987 590 c 2,23,-1
 978 540 l 2,24,25
 969 490 969 490 919 490 c 2,26,-1
 459 490 l 1,27,-1
 235 192 l 2,28,29
 218 170 218 170 201 170 c 0,30,31
 188 170 188 170 178 177 c 2,32,-1
 162 188 l 2,33,34
 145 200 145 200 145 216 c 0,35,36
 145 225 145 225 158 242 c 2,37,-1
 343 490 l 1,38,-1
 187 490 l 2,39,40
 145 490 145 490 145 526 c 0,41,42
 145 532 145 532 146 540 c 2,43,-1
 155 590 l 2,44,45
 164 640 164 640 214 640 c 2,46,-1
 456 640 l 1,47,-1
 630 870 l 1,48,-1
 254 870 l 2,49,50
 212 870 212 870 212 906 c 0,51,52
 212 912 212 912 213 920 c 2,53,-1
 222 970 l 2,54,55
 231 1020 231 1020 281 1020 c 2,56,-1
 743 1020 l 1,57,-1
 964 1312 l 2,58,59
 981 1334 981 1334 998 1334 c 0,0,1
EndSplineSet
Validated: 1
EndChar

StartChar: lessequal
Encoding: 8804 8804 119
Width: 1200
GlyphClass: 2
Flags: W
HStem: 190 150<139.164 959.568>
DStem2: 460 868 276 788 0.856531 -0.516095<0 554.426> 308 969 460 868 0.895497 0.445067<91.1637 776.514>
LayerCount: 2
Fore
SplineSet
196 340 m 2,0,-1
 928 340 l 2,1,2
 971 340 971 340 971 304 c 0,3,4
 971 298 971 298 970 290 c 2,5,-1
 961 240 l 2,6,7
 952 190 952 190 902 190 c 2,8,-1
 170 190 l 2,9,10
 127 190 127 190 127 226 c 0,11,12
 127 232 127 232 129 240 c 2,13,-1
 138 290 l 2,14,15
 146 340 146 340 196 340 c 2,0,-1
246 899 m 2,16,17
 253 942 253 942 308 969 c 2,18,-1
 976 1301 l 2,19,20
 995 1310 995 1310 1006 1310 c 0,21,22
 1030 1310 1030 1310 1041 1283 c 2,23,-1
 1067 1213 l 2,24,25
 1072 1200 1072 1200 1073 1187 c 0,26,27
 1073 1162 1073 1162 1037 1145 c 2,28,-1
 460 868 l 1,29,-1
 930 594 l 2,30,31
 951 582 951 582 951 560 c 0,32,33
 951 547 951 547 936 526 c 2,34,-1
 898 474 l 2,35,36
 878 447 878 447 854 447 c 0,37,38
 842 447 842 447 827 456 c 2,39,-1
 276 788 l 2,40,41
 237 811 237 811 237 844 c 0,42,43
 237 851 237 851 239 858 c 2,44,-1
 246 899 l 2,16,17
EndSplineSet
Validated: 1
EndChar

StartChar: greaterequal
Encoding: 8805 8805 120
Width: 1200
GlyphClass: 2
Flags: W
HStem: 190 150<133.164 953.568>
DStem2: 1040 1004 386 1198 0.856531 -0.516095<-670.741 -116.314> 856 924 1008 823 0.895497 0.445067<-685.351 0>
LayerCount: 2
Fore
SplineSet
1070 893 m 2,0,1
 1063 850 1063 850 1008 823 c 2,2,-1
 340 491 l 2,3,4
 321 482 321 482 310 482 c 0,5,6
 286 482 286 482 275 509 c 2,7,-1
 249 579 l 2,8,9
 244 592 244 592 243 605 c 0,10,11
 243 630 243 630 279 647 c 2,12,-1
 856 924 l 1,13,-1
 386 1198 l 2,14,15
 365 1210 365 1210 365 1232 c 0,16,17
 365 1245 365 1245 380 1266 c 2,18,-1
 418 1318 l 2,19,20
 438 1345 438 1345 462 1345 c 0,21,22
 474 1345 474 1345 489 1336 c 2,23,-1
 1040 1004 l 2,24,25
 1079 981 1079 981 1079 948 c 0,26,27
 1079 941 1079 941 1077 934 c 2,28,-1
 1070 893 l 2,0,1
190 340 m 2,29,-1
 922 340 l 2,30,31
 965 340 965 340 965 304 c 0,32,33
 965 298 965 298 964 290 c 2,34,-1
 955 240 l 2,35,36
 946 190 946 190 896 190 c 2,37,-1
 164 190 l 2,38,39
 121 190 121 190 121 226 c 0,40,41
 121 232 121 232 123 240 c 2,42,-1
 132 290 l 2,43,44
 140 340 140 340 190 340 c 2,29,-1
EndSplineSet
Validated: 1
EndChar

StartChar: lozenge
Encoding: 9674 9674 121
Width: 1200
GlyphClass: 2
Flags: W
HStem: -20 21G<457.214 481.795> 1500 20G<722.527 746.447>
DStem2: 133 738 327 775 0.611908 0.790929<147.975 681.661> 327 775 133 738 0.402212 -0.915546<0 541.904> 543 278 466 -20 0.619778 0.784777<0 534.008> 738 1520 655 1196 0.389061 -0.921212<266.181 805.44>
LayerCount: 2
Fore
SplineSet
543 278 m 1,0,-1
 869 701 l 1,1,-1
 655 1196 l 1,2,-1
 327 775 l 1,3,-1
 543 278 l 1,0,-1
466 -20 m 1,4,-1
 133 738 l 1,5,-1
 738 1520 l 1,6,-1
 1067 741 l 1,7,-1
 466 -20 l 1,4,-1
EndSplineSet
Validated: 1
EndChar

StartChar: circumflex
Encoding: 710 710 122
Width: 1200
Flags: W
HStem: 1180 281<708.688 738.688>
VStem: 349 502<1180 1210>
DStem2: 365 1228 511 1220 0.671912 0.740631<-2.09114 284.915> 845 1228 637 1367 0.486408 -0.873732<-222.622 16.317>
LayerCount: 2
Fore
SplineSet
611 1461 m 2,0,-1
 681 1461 l 2,1,2
 715 1461 715 1461 737 1422 c 2,3,-1
 845 1228 l 2,4,5
 851 1217 851 1217 851 1203 c 0,6,7
 851 1180 851 1180 822 1180 c 2,8,-1
 777 1180 l 2,9,10
 731 1180 731 1180 711 1220 c 2,11,-1
 637 1367 l 1,12,-1
 511 1220 l 2,13,14
 477 1180 477 1180 431 1180 c 2,15,-1
 370 1180 l 2,16,17
 349 1180 349 1180 349 1197 c 0,18,19
 349 1210 349 1210 365 1228 c 2,20,-1
 541 1422 l 2,21,22
 576 1461 576 1461 611 1461 c 2,0,-1
EndSplineSet
Validated: 1
EndChar

StartChar: caron
Encoding: 711 711 123
Width: 1200
Flags: W
HStem: 1180 281<461.312 499.312>
VStem: 355 495
DStem2: 571 1274 355 1413 0.486408 -0.873732<-238.73 -0.341> 571 1274 659 1219 0.671912 0.740631<1.04258 293.048>
LayerCount: 2
Fore
SplineSet
431 1461 m 2,0,1
 477 1461 477 1461 497 1421 c 2,2,-1
 571 1274 l 1,3,-1
 697 1421 l 2,4,5
 731 1461 731 1461 777 1461 c 2,6,-1
 830 1461 l 2,7,8
 854 1461 854 1461 850 1441 c 0,9,10
 848 1427 848 1427 835 1413 c 2,11,-1
 659 1219 l 2,12,13
 623 1180 623 1180 589 1180 c 2,14,-1
 519 1180 l 2,15,16
 485 1180 485 1180 463 1219 c 2,17,-1
 355 1413 l 2,18,19
 347 1427 347 1427 350 1441 c 0,20,21
 354 1461 354 1461 378 1461 c 2,22,-1
 431 1461 l 2,0,1
EndSplineSet
Validated: 1
EndChar

StartChar: uni02C9
Encoding: 713 713 124
Width: 1200
Flags: W
HStem: 1246 130<353.596 846.404>
VStem: 344 512<1247.41 1374.59>
LayerCount: 2
Fore
SplineSet
402 1376 m 2,0,-1
 822 1376 l 2,1,2
 856 1376 856 1376 856 1347 c 0,3,4
 856 1342 856 1342 854 1336 c 2,5,-1
 846 1286 l 2,6,7
 838 1246 838 1246 798 1246 c 2,8,-1
 378 1246 l 2,9,10
 344 1246 344 1246 344 1275 c 0,11,12
 344 1280 344 1280 346 1286 c 2,13,-1
 354 1336 l 2,14,15
 362 1376 362 1376 402 1376 c 2,0,-1
EndSplineSet
Validated: 1
EndChar

StartChar: breve
Encoding: 728 728 125
Width: 1200
Flags: W
HStem: 1190 125<485.397 697.863>
VStem: 346 136<1323.26 1454.38> 724 130<1344.3 1454.91>
LayerCount: 2
Fore
SplineSet
400 1455 m 2,0,-1
 448 1455 l 2,1,2
 482 1455 482 1455 482 1426 c 0,3,4
 482 1421 482 1421 480 1415 c 0,5,6
 478 1402 478 1402 478 1391 c 0,7,8
 478 1315 478 1315 584 1315 c 0,9,10
 706 1315 706 1315 724 1415 c 0,11,12
 732 1455 732 1455 772 1455 c 2,13,-1
 820 1455 l 2,14,15
 854 1455 854 1455 854 1426 c 0,16,17
 854 1421 854 1421 852 1415 c 0,18,19
 830 1190 830 1190 568 1190 c 0,20,21
 346 1190 346 1190 346 1358 c 0,22,23
 346 1385 346 1385 352 1415 c 0,24,25
 360 1455 360 1455 400 1455 c 2,0,-1
EndSplineSet
Validated: 1
EndChar

StartChar: dotaccent
Encoding: 729 729 126
Width: 1200
Flags: W
HStem: 1220 245<516.097 683.903>
VStem: 480 240<1257.13 1427.87>
LayerCount: 2
Fore
SplineSet
600 1465 m 128,-1,1
 650 1465 650 1465 685 1429 c 128,-1,2
 720 1393 720 1393 720 1342.5 c 128,-1,3
 720 1292 720 1292 685 1256 c 128,-1,4
 650 1220 650 1220 600 1220 c 128,-1,5
 550 1220 550 1220 515 1256 c 128,-1,6
 480 1292 480 1292 480 1342.5 c 128,-1,7
 480 1393 480 1393 515 1429 c 128,-1,0
 550 1465 550 1465 600 1465 c 128,-1,1
EndSplineSet
Validated: 1
EndChar

StartChar: ring
Encoding: 730 730 127
Width: 1200
Flags: W
HStem: 1160 98<522.08 665.412> 1426 98<534.194 674.273>
VStem: 418 96<1272.77 1406.31> 684 98<1277.36 1403.5>
LayerCount: 2
Fore
SplineSet
616 1426 m 0,0,1
 582 1426 582 1426 552 1401 c 0,2,3
 524 1376 524 1376 516 1342 c 0,4,5
 514 1332 514 1332 514 1323 c 0,6,7
 514 1300 514 1300 526 1283 c 0,8,9
 546 1258 546 1258 584 1258 c 256,10,11
 620 1258 620 1258 648 1283 c 0,12,13
 680 1313 680 1313 682 1342 c 0,14,15
 684 1352 684 1352 684 1360 c 0,16,17
 684 1388 684 1388 668 1404 c 0,18,19
 648 1426 648 1426 616 1426 c 0,0,1
626 1524 m 0,20,21
 700 1524 700 1524 744 1470 c 0,22,23
 782 1424 782 1424 782 1367 c 0,24,25
 782 1355 782 1355 780 1343 c 0,26,27
 770 1264 770 1264 710 1214 c 0,28,29
 646 1160 646 1160 574 1160 c 256,30,31
 498 1160 498 1160 454 1213 c 0,32,33
 418 1257 418 1257 418 1321 c 0,34,35
 418 1332 418 1332 420 1343 c 0,36,37
 427 1418 427 1418 488.5 1471 c 128,-1,38
 550 1524 550 1524 626 1524 c 0,20,21
EndSplineSet
Validated: 1
EndChar

StartChar: ogonek
Encoding: 731 731 128
Width: 1200
Flags: W
HStem: -420 162<608.885 732.594> -20 20G<538 666>
VStem: 454 132<-277 -103.881>
LayerCount: 2
Fore
SplineSet
598 0 m 1,0,-1
 666 0 l 1,1,2
 600 -81 600 -81 590 -142 c 0,3,4
 586 -157 586 -157 586 -170 c 0,5,6
 586 -206 586 -206 608 -228 c 0,7,8
 636 -258 636 -258 704 -258 c 0,9,10
 746 -258 746 -258 746 -294 c 0,11,12
 746 -300 746 -300 744 -308 c 2,13,-1
 734 -370 l 2,14,15
 724 -420 724 -420 674 -420 c 0,16,17
 550 -420 550 -420 494 -354 c 0,18,19
 454 -308 454 -308 454 -246 c 0,20,21
 454 -227 454 -227 458 -207 c 0,22,23
 478 -91 478 -91 598 0 c 1,0,-1
EndSplineSet
Validated: 1
EndChar

StartChar: tilde
Encoding: 732 732 129
Width: 1200
Flags: W
HStem: 1220 125<647.224 728.706> 1338 125<470.632 552.263>
VStem: 336 129<1228.04 1334.27> 735 129<1348.73 1454.96>
LayerCount: 2
Fore
SplineSet
782 1455 m 2,0,-1
 830 1455 l 2,1,2
 864 1455 864 1455 864 1426 c 0,3,4
 864 1421 864 1421 863 1415 c 8,5,6
 828 1220 828 1220 669 1220 c 0,7,8
 598 1220 598 1220 549 1299 c 0,9,10
 525 1338 525 1338 509 1338 c 0,11,12
 477 1338 477 1338 465 1268 c 24,13,14
 458 1228 458 1228 418 1228 c 2,15,-1
 370 1228 l 2,16,17
 336 1228 336 1228 336 1257 c 0,18,19
 336 1262 336 1262 337 1268 c 8,20,21
 371 1463 371 1463 530 1463 c 8,22,23
 604 1463 604 1463 650 1384 c 0,24,25
 673 1345 673 1345 690 1345 c 0,26,27
 722 1345 722 1345 735 1415 c 24,28,29
 742 1455 742 1455 782 1455 c 2,0,-1
EndSplineSet
Validated: 1
EndChar

StartChar: hungarumlaut
Encoding: 733 733 130
Width: 1200
Flags: W
HStem: 1190 306
VStem: 334 532
LayerCount: 2
Fore
SplineSet
543 1496 m 0,0,1
 555 1496 555 1496 564 1489 c 2,2,-1
 617 1447 l 2,3,4
 630 1437 630 1437 630 1422 c 0,5,6
 630 1410 630 1410 615 1395 c 2,7,-1
 424 1205 l 2,8,9
 409 1190 409 1190 395 1190 c 0,10,11
 383 1190 383 1190 374 1198 c 2,12,-1
 347 1220 l 2,13,14
 334 1231 334 1231 334 1243 c 0,15,16
 334 1252 334 1252 346 1267 c 2,17,-1
 515 1479 l 2,18,19
 529 1496 529 1496 543 1496 c 0,0,1
779 1496 m 0,20,21
 791 1496 791 1496 800 1489 c 2,22,-1
 853 1447 l 2,23,24
 866 1437 866 1437 866 1422 c 0,25,26
 866 1410 866 1410 851 1395 c 2,27,-1
 660 1205 l 2,28,29
 645 1190 645 1190 631 1190 c 0,30,31
 620 1190 620 1190 610 1198 c 2,32,-1
 583 1220 l 2,33,34
 570 1231 570 1231 570 1243 c 0,35,36
 570 1252 570 1252 582 1267 c 2,37,-1
 751 1479 l 2,38,39
 765 1496 765 1496 779 1496 c 0,20,21
EndSplineSet
Validated: 1
EndChar

StartChar: C
Encoding: 67 67 131
Width: 1200
Flags: W
HStem: -20 160<389.505 654.017> 1360 160<601.19 872.311>
VStem: 98 178<278.908 860.682> 954 148<1222.75 1275.79>
LayerCount: 2
Fore
SplineSet
506 -20 m 0,0,1
 284 -20 284 -20 168 206 c 0,2,3
 98 342 98 342 98 532 c 0,4,5
 98 664 98 664 114 750 c 0,6,7
 177 1090 177 1090 340 1294 c 0,8,9
 522 1520 522 1520 758 1520 c 0,10,11
 990 1520 990 1520 1096 1294 c 24,12,13
 1102 1281 1102 1281 1102 1269 c 0,14,15
 1102 1252 1102 1252 1079 1237 c 2,16,-1
 1006 1189 l 2,17,18
 989 1178 989 1178 977 1178 c 0,19,20
 962 1178 962 1178 954 1197 c 16,21,22
 889 1360 889 1360 744 1360 c 0,23,24
 593 1360 593 1360 471 1189 c 0,25,26
 340 1006 340 1006 296 750 c 0,27,28
 276 636 276 636 276 538 c 0,29,30
 276 399 276 399 307 311 c 0,31,32
 367 140 367 140 517 140 c 0,33,34
 656 140 656 140 797 318 c 8,35,36
 812 337 812 337 826 337 c 0,37,38
 838 337 838 337 851 326 c 2,39,-1
 927 263 l 2,40,41
 940 252 940 252 940 238 c 0,42,43
 940 225 940 225 924 206 c 0,44,45
 734 -20 734 -20 506 -20 c 0,0,1
EndSplineSet
Validated: 1
EndChar

StartChar: G
Encoding: 71 71 132
Width: 1200
Flags: W
HStem: -20 160<389.505 692.665> 670 160<650.934 892> 1360 160<601.19 872.701>
VStem: 98 178<278.908 860.682>
DStem2: 769.754 -20 950.573 -20 0.173648 0.984808<261.556 700.745>
CounterMasks: 1 e0
LayerCount: 2
Fore
SplineSet
506 -20 m 0,0,1
 284 -20 284 -20 168 206 c 0,2,3
 98 342 98 342 98 532 c 0,4,5
 98 664 98 664 114 750 c 0,6,7
 177 1090 177 1090 340 1294 c 0,8,9
 522 1520 522 1520 758 1520 c 0,10,11
 992 1520 992 1520 1096 1294 c 24,12,13
 1102 1281 1102 1281 1102 1269 c 0,14,15
 1102 1252 1102 1252 1079 1237 c 2,16,-1
 1006 1189 l 2,17,18
 989 1178 989 1178 977 1178 c 0,19,20
 962 1178 962 1178 954 1197 c 16,21,22
 889 1360 889 1360 744 1360 c 0,23,24
 593 1360 593 1360 471 1189 c 0,25,26
 340 1006 340 1006 296 750 c 0,27,28
 276 636 276 636 276 538 c 0,29,30
 276 399 276 399 307 311 c 0,31,32
 367 140 367 140 517 140 c 0,33,34
 719 140 719 140 829 316 c 1,35,-1
 892 670 l 1,36,-1
 681 670 l 2,37,38
 638 670 638 670 638 703 c 0,39,40
 638 710 638 710 640 719 c 2,41,-1
 650 781 l 2,42,43
 659 830 659 830 709 830 c 2,44,-1
 1050 830 l 2,45,46
 1093 830 1093 830 1093 795 c 0,47,48
 1093 790 1093 790 1091 780 c 2,49,-1
 1004 283 l 1,50,51
 840 -20 840 -20 506 -20 c 0,0,1
EndSplineSet
Validated: 1
EndChar

StartChar: J
Encoding: 74 74 133
Width: 1200
Flags: W
HStem: -20 160<234.788 529.451> 1340 160<366.289 905>
DStem2: 665.373 -20 845.373 -20 0.173648 0.984808<335.306 1380.95>
LayerCount: 2
Fore
SplineSet
368 -20 m 0,0,1
 147 -20 147 -20 33 119 c 0,2,3
 20 135 20 135 20 148 c 0,4,5
 20 169 20 169 44 189 c 2,6,-1
 103 237 l 2,7,8
 121 252 121 252 137 252 c 0,9,10
 158 252 158 252 173 237 c 0,11,12
 264 140 264 140 377 140 c 128,-1,13
 490 140 490 140 607 238 c 0,14,15
 729 339 729 339 762 528 c 2,16,-1
 905 1340 l 1,17,-1
 395 1340 l 2,18,19
 353 1340 353 1340 353 1376 c 0,20,21
 353 1383 353 1383 354 1389 c 2,22,-1
 365 1451 l 2,23,24
 374 1500 374 1500 423 1500 c 2,25,-1
 1063 1500 l 2,26,27
 1106 1500 1106 1500 1106 1464 c 0,28,29
 1106 1457 1106 1457 1105 1451 c 2,30,-1
 942 528 l 2,31,32
 895 261 895 261 723 114 c 0,33,34
 567 -20 567 -20 368 -20 c 0,0,1
EndSplineSet
Validated: 1
EndChar

StartChar: M
Encoding: 77 77 134
Width: 1200
Flags: W
HStem: 0 21G<16.5 132.5 806.5 922.5> 1480 20G<277.5 480 984.5 1183.5>
DStem2: -12.64 0 157.36 0 0.173648 0.984808<36.9647 1268.43> 504 1451 373 1220 0.102899 -0.994692<216.294 787.179> 585 668 668 517 0.416775 0.90901<0 671.817> 777.36 0 947.36 0 0.173648 0.984808<36.9647 1238.91>
LayerCount: 2
Fore
SplineSet
38 0 m 2,0,1
 -5 0 -5 0 -5 36 c 0,2,3
 -5 42 -5 42 -4 49 c 2,4,-1
 244 1451 l 2,5,6
 253 1500 253 1500 302 1500 c 2,7,-1
 462 1500 l 2,8,9
 498 1500 498 1500 504 1451 c 2,10,-1
 585 668 l 1,11,-1
 944 1451 l 2,12,13
 967 1500 967 1500 1002 1500 c 2,14,-1
 1162 1500 l 2,15,16
 1205 1500 1205 1500 1205 1464 c 0,17,18
 1205 1458 1205 1458 1204 1451 c 2,19,-1
 956 49 l 2,20,21
 947 0 947 0 898 0 c 2,22,-1
 828 0 l 2,23,24
 785 0 785 0 785 36 c 0,25,26
 785 42 785 42 786 49 c 2,27,-1
 993 1220 l 1,28,-1
 668 517 l 2,29,30
 645 468 645 468 609 468 c 2,31,-1
 489 468 l 2,32,33
 453 468 453 468 448 516 c 2,34,-1
 373 1220 l 1,35,-1
 166 49 l 2,36,37
 157 0 157 0 108 0 c 2,38,-1
 38 0 l 2,0,1
EndSplineSet
Validated: 1
EndChar

StartChar: Y
Encoding: 89 89 135
Width: 1200
Flags: W
HStem: 0 21G<345 471> 1480 20G<172 304.5 1016 1163.5>
DStem2: 543 834 152 1453 0.328201 -0.944608<-720.513 0> 316.36 0 496.36 0 0.173648 0.984808<38.0098 660.032> 543 834 611 650 0.572708 0.819759<0 843.356>
LayerCount: 2
Fore
SplineSet
366 0 m 2,0,1
 324 0 324 0 324 37 c 0,2,3
 324 45 324 45 325 49 c 2,4,-1
 431 650 l 1,5,-1
 152 1453 l 2,6,7
 150 1459 150 1459 150 1467 c 0,8,9
 150 1500 150 1500 194 1500 c 2,10,-1
 288 1500 l 2,11,12
 321 1500 321 1500 332 1466 c 2,13,-1
 543 834 l 1,14,-1
 976 1466 l 2,15,16
 1000 1500 1000 1500 1032 1500 c 2,17,-1
 1146 1500 l 2,18,19
 1181 1500 1181 1500 1181 1475 c 0,20,21
 1181 1466 1181 1466 1172 1453 c 2,22,-1
 611 650 l 1,23,-1
 505 49 l 2,24,25
 496 0 496 0 446 0 c 2,26,-1
 366 0 l 2,0,1
EndSplineSet
Validated: 1
EndChar

StartChar: X
Encoding: 88 88 136
Width: 1200
Flags: W
HStem: 0 21G<-11.5 130 826 953> 1480 20G<247.5 374 1070.5 1211.5>
DStem2: -18 49 176 34 0.592792 0.805356<28.1158 780.523 1081.87 1834.65> 621 922 229 1451 0.369807 -0.929108<-639.869 0 304.451 942.962>
LayerCount: 2
Fore
SplineSet
5 0 m 2,0,1
 -28 0 -28 0 -28 23 c 0,2,3
 -28 36 -28 36 -18 49 c 2,4,-1
 502 750 l 1,5,-1
 229 1451 l 2,6,7
 226 1458 226 1458 226 1463 c 0,8,9
 226 1500 226 1500 269 1500 c 2,10,-1
 353 1500 l 2,11,12
 395 1500 395 1500 408 1466 c 2,13,-1
 621 922 l 1,14,-1
 1024 1466 l 2,15,16
 1050 1500 1050 1500 1091 1500 c 2,17,-1
 1195 1500 l 2,18,19
 1228 1500 1228 1500 1228 1472 c 0,20,21
 1228 1463 1228 1463 1219 1451 c 2,22,-1
 698 750 l 1,23,-1
 972 49 l 2,24,25
 975 40 975 40 975 32 c 0,26,27
 975 0 975 0 931 0 c 2,28,-1
 847 0 l 2,29,30
 805 0 805 0 792 34 c 2,31,-1
 580 578 l 1,32,-1
 176 34 l 2,33,34
 151 0 151 0 109 0 c 2,35,-1
 5 0 l 2,0,1
EndSplineSet
Validated: 1
EndChar

StartChar: S
Encoding: 83 83 137
Width: 1200
Flags: W
HStem: -20 160<314.505 640.436> 1360 160<598.174 846.472>
VStem: 341 180<1032.16 1280.84> 834 191<331.095 626.002>
DStem2: 659 954 526 811 0.865769 -0.500444<-166.616 304.704>
LayerCount: 2
Fore
SplineSet
450 -20 m 0,0,1
 210 -20 210 -20 66 195 c 0,2,3
 60 204 60 204 60 215 c 0,4,5
 60 235 60 235 84 252 c 2,6,-1
 163 307 l 2,7,8
 177 317 177 317 190 317 c 0,9,10
 207 317 207 317 217 298 c 0,11,12
 300 140 300 140 466 140 c 0,13,14
 616 140 616 140 724 248 c 0,15,16
 834 354 834 354 834 482 c 0,17,18
 834 632 834 632 684 719 c 2,19,-1
 526 811 l 2,20,21
 341 919 341 919 341 1125 c 24,22,23
 341 1326 341 1326 501 1447 c 0,24,25
 598 1520 598 1520 741 1520 c 0,26,27
 942 1520 942 1520 1029 1372 c 0,28,29
 1036 1360 1036 1360 1036 1351 c 0,30,31
 1036 1330 1036 1330 1012 1315 c 2,32,-1
 934 1265 l 2,33,34
 917 1254 917 1254 905 1254 c 0,35,36
 894 1254 894 1254 882 1273 c 0,37,38
 827 1360 827 1360 732 1360 c 0,39,40
 646 1360 646 1360 591 1309 c 0,41,42
 521 1244 521 1244 521 1148 c 0,43,44
 521 1034 521 1034 659 954 c 2,45,-1
 832 854 l 2,46,47
 1025 742 1025 742 1025 510 c 24,48,49
 1025 300 1025 300 870 148 c 0,50,51
 700 -20 700 -20 450 -20 c 0,0,1
EndSplineSet
Validated: 1
EndChar

StartChar: P
Encoding: 80 80 138
Width: 1200
Flags: W
HStem: 0 21G<121.5 248> 538 160<396 770.406> 1340 160<509 879.636>
VStem: 954 181<888.547 1263.11>
DStem2: 93.36 0 273.36 0 0.173648 0.984808<34.8219 577.517 739.949 1391.82>
LayerCount: 2
Fore
SplineSet
223 0 m 2,0,-1
 143 0 l 2,1,2
 100 0 100 0 100 34 c 0,3,4
 100 40 100 40 102 49 c 2,5,-1
 349 1451 l 2,6,7
 358 1500 358 1500 407 1500 c 2,8,-1
 730 1500 l 2,9,10
 951 1500 951 1500 1059 1348 c 0,11,12
 1135 1242 1135 1242 1135 1068 c 0,13,14
 1135 841 1135 841 969 687 c 0,15,16
 807 538 807 538 581 538 c 2,17,-1
 368 538 l 1,18,-1
 282 49 l 2,19,20
 273 0 273 0 223 0 c 2,0,-1
509 1340 m 1,21,-1
 396 698 l 1,22,-1
 619 698 l 2,23,24
 747 698 747 698 853 808 c 0,25,26
 954 913 954 913 954 1081 c 0,27,28
 954 1176 954 1176 925 1236 c 0,29,30
 875 1340 875 1340 732 1340 c 2,31,-1
 509 1340 l 1,21,-1
EndSplineSet
Validated: 1
EndChar

StartChar: s
Encoding: 115 115 139
Width: 1200
Flags: W
HStem: -20 151<353.7 663.542> 969 151<578.743 799.798>
VStem: 358 170<748.279 931.796> 777 175<234.026 453.777>
DStem2: 651 701 562 540 0.919528 -0.393024<-146.274 223.289>
LayerCount: 2
Fore
SplineSet
491 -20 m 0,0,1
 285 -20 285 -20 159 119 c 0,2,3
 150 129 150 129 150 141 c 0,4,5
 150 160 150 160 175 182 c 2,6,-1
 236 235 l 2,7,8
 250 247 250 247 264 247 c 0,9,10
 283 247 283 247 297 229 c 0,11,12
 377 131 377 131 500 131 c 0,13,14
 599 131 599 131 676 184 c 0,15,16
 777 252 777 252 777 346 c 0,17,18
 777 453 777 453 663 499 c 2,19,-1
 562 540 l 2,20,21
 358 623 358 623 358 804 c 0,22,23
 358 959 358 959 482 1051 c 0,24,25
 575 1120 575 1120 706 1120 c 0,26,27
 887 1120 887 1120 961 1002 c 0,28,29
 970 988 970 988 970 974 c 0,30,31
 970 959 970 959 946 938 c 2,32,-1
 886 887 l 2,33,34
 872 875 872 875 858 875 c 0,35,36
 837 875 837 875 825 893 c 0,37,38
 777 968 777 968 688 969 c 0,39,40
 629 969 629 969 589 944 c 0,41,42
 528 904 528 904 528 829 c 0,43,44
 530 752 530 752 651 701 c 2,45,-1
 775 648 l 2,46,47
 952 573 952 573 952 377 c 0,48,49
 952 207 952 207 812 92 c 0,50,51
 675 -20 675 -20 491 -20 c 0,0,1
EndSplineSet
Validated: 1
EndChar

StartChar: K
Encoding: 75 75 140
Width: 1200
Flags: W
HStem: 0 21G<71.5 186 796.5 928> 1480 20G<332.5 446.5 1038.5 1164.5>
DStem2: 43.36 0 211.36 0 0.173648 0.984808<36.6699 566.223 835.358 1515.28> 351 794 486 718 0.685315 0.728247<0 37.1708 228.773 1011.08> 620 855 486 718 0.375945 -0.926642<76.5733 869.477>
LayerCount: 2
Fore
SplineSet
93 0 m 2,0,1
 50 0 50 0 50 36 c 0,2,3
 50 38 50 38 52 49 c 2,4,-1
 299 1451 l 2,5,6
 308 1500 308 1500 357 1500 c 2,7,-1
 425 1500 l 2,8,9
 468 1500 468 1500 468 1464 c 0,10,11
 468 1457 468 1457 467 1451 c 2,12,-1
 351 794 l 1,13,-1
 989 1466 l 2,14,15
 1021 1500 1021 1500 1056 1500 c 2,16,-1
 1148 1500 l 2,17,18
 1181 1500 1181 1500 1181 1475 c 0,19,20
 1181 1461 1181 1461 1166 1445 c 2,21,-1
 620 855 l 1,22,-1
 947 49 l 2,23,24
 950 42 950 42 950 35 c 0,25,26
 950 0 950 0 906 0 c 2,27,-1
 817 0 l 2,28,29
 776 0 776 0 762 34 c 2,30,-1
 486 718 l 1,31,-1
 304 529 l 1,32,-1
 220 49 l 2,33,34
 211 0 211 0 161 0 c 2,35,-1
 93 0 l 2,0,1
EndSplineSet
Validated: 1
EndChar

StartChar: R
Encoding: 82 82 141
Width: 1200
Flags: W
HStem: 0 21G<121.5 248 844.5 976> 538 160<396 607> 1340 160<509 879.636>
VStem: 954 181<887.571 1263.11>
DStem2: 93.36 0 273.36 0 0.173648 0.984808<34.8219 577.517 739.949 1391.82> 784 570 607 538 0.375375 -0.926873<-0.923773 561.855>
LayerCount: 2
Fore
SplineSet
509 1340 m 1,0,-1
 396 698 l 1,1,-1
 619 698 l 2,2,3
 747 698 747 698 853 808 c 0,4,5
 954 913 954 913 954 1081 c 0,6,7
 954 1176 954 1176 925 1236 c 0,8,9
 875 1340 875 1340 732 1340 c 2,10,-1
 509 1340 l 1,0,-1
223 0 m 2,11,-1
 143 0 l 2,12,13
 100 0 100 0 100 34 c 0,14,15
 100 40 100 40 102 49 c 2,16,-1
 349 1451 l 2,17,18
 357 1500 357 1500 407 1500 c 2,19,-1
 730 1500 l 2,20,21
 951 1500 951 1500 1059 1348 c 0,22,23
 1135 1242 1135 1242 1135 1068 c 0,24,25
 1135 837 1135 837 969 687 c 0,26,27
 881 607 881 607 784 570 c 1,28,-1
 995 49 l 2,29,30
 998 41 998 41 998 34 c 0,31,32
 998 0 998 0 954 0 c 2,33,-1
 865 0 l 2,34,35
 824 0 824 0 810 34 c 2,36,-1
 607 538 l 1,37,-1
 368 538 l 1,38,-1
 282 49 l 2,39,40
 273 0 273 0 223 0 c 2,11,-1
EndSplineSet
Validated: 1
EndChar

StartChar: B
Encoding: 66 66 142
Width: 1200
Flags: W
HStem: 0 160<292 673.111> 746 160<424 766.695> 1340 160<500 832.895>
VStem: 859 175<339.297 656.044> 886 169<1020.26 1286.55>
DStem2: 94.1232 0 263.788 0 0.173648 0.984808<191.93 787.087 949.518 1390.12>
LayerCount: 2
Fore
SplineSet
424 906 m 1,0,-1
 619 906 l 2,1,2
 715 906 715 906 785 959 c 0,3,4
 864 1019 864 1019 882 1123 c 0,5,6
 886 1148 886 1148 886 1171 c 0,7,8
 886 1242 886 1242 843 1287 c 0,9,10
 791 1340 791 1340 695 1340 c 2,11,-1
 500 1340 l 1,12,-1
 424 906 l 1,0,-1
292 160 m 1,13,-1
 487 160 l 2,14,15
 648 160 648 160 751 258 c 0,16,17
 835 337 835 337 854 452 c 0,18,19
 859 482 859 482 859 514 c 0,20,21
 859 591 859 591 821 647 c 0,22,23
 754 746 754 746 591 746 c 2,24,-1
 396 746 l 1,25,-1
 292 160 l 1,13,-1
134 0 m 2,26,27
 100 0 100 0 100 27 c 0,28,29
 100 33 100 33 101 39 c 2,30,-1
 352 1461 l 2,31,32
 356 1483 356 1483 369 1492 c 0,33,34
 379 1500 379 1500 398 1500 c 2,35,-1
 713 1500 l 2,36,37
 876 1500 876 1500 963 1410 c 0,38,39
 1055 1318 1055 1318 1055 1166 c 0,40,41
 1055 953 1055 953 849 842 c 1,42,43
 895 822 895 822 940 777 c 0,44,45
 1034 682 1034 682 1034 516 c 24,46,47
 1034 279 1034 279 863 134 c 0,48,49
 705 0 705 0 469 0 c 2,50,-1
 134 0 l 2,26,27
EndSplineSet
Validated: 1
EndChar

StartChar: l
Encoding: 108 108 143
Width: 1200
Flags: W
HStem: 0 150<656.094 932.66> 1350 150<332.136 603>
VStem: 428 169<210.005 460.07>
DStem2: 364.94 0 534.819 0 0.173648 0.984808<365.069 1370.83>
LayerCount: 2
Fore
SplineSet
785 0 m 2,0,1
 594 0 594 0 505 105 c 0,2,3
 429 194 429 194 428 320 c 0,4,5
 428 360 428 360 436 403 c 2,6,-1
 603 1350 l 17,7,-1
 363 1350 l 2,8,9
 320 1350 320 1350 320 1386 c 0,10,11
 320 1392 320 1392 322 1399 c 2,12,-1
 331 1451 l 2,13,14
 339 1500 339 1500 389 1500 c 2,15,-1
 749 1500 l 2,16,17
 792 1500 792 1500 792 1464 c 0,18,19
 792 1458 792 1458 791 1451 c 2,20,-1
 602 381 l 2,21,22
 597 354 597 354 597 329 c 0,23,24
 597 257 597 257 639 211 c 0,25,26
 694 150 694 150 801 150 c 2,27,-1
 906 150 l 2,28,29
 945 150 945 150 945 118 c 0,30,31
 945 112 945 112 944 106 c 2,32,-1
 933 44 l 2,33,34
 925 0 925 0 880 0 c 2,35,-1
 785 0 l 2,0,1
EndSplineSet
Validated: 1
EndChar

StartChar: i
Encoding: 105 105 144
Width: 1200
Flags: W
HStem: 0 150<660.5 936.037> 950 150<263.025 536> 1256 264<565.253 750.777>
VStem: 430 170<210.503 459.73> 524 268<1295.22 1481.32>
DStem2: 366.94 0 536.819 0 0.173648 0.984808<365.242 964.924>
LayerCount: 2
Fore
SplineSet
658 1520 m 0,0,1
 717 1520 717 1520 752 1484 c 0,2,3
 792 1443 792 1443 792 1388 c 128,-1,4
 792 1333 792 1333 752 1294 c 0,5,6
 713 1256 713 1256 658 1256 c 0,7,8
 601 1256 601 1256 564 1292 c 0,9,10
 524 1331 524 1331 524 1388 c 128,-1,11
 524 1445 524 1445 564 1482.5 c 128,-1,12
 604 1520 604 1520 658 1520 c 0,0,1
788 0 m 2,13,14
 600 0 600 0 508 105 c 0,15,16
 430 195 430 195 430 320 c 0,17,18
 430 360 430 360 438 403 c 2,19,-1
 536 950 l 17,20,-1
 296 950 l 2,21,22
 252 950 252 950 252 986 c 0,23,24
 252 992 252 992 254 999 c 2,25,-1
 262 1051 l 2,26,27
 272 1100 272 1100 322 1100 c 2,28,-1
 682 1100 l 2,29,30
 724 1100 724 1100 724 1064 c 0,31,32
 724 1058 724 1058 722 1051 c 2,33,-1
 604 381 l 2,34,35
 600 354 600 354 600 329 c 0,36,37
 600 257 600 257 642 211 c 0,38,39
 698 150 698 150 804 150 c 2,40,-1
 908 150 l 2,41,42
 948 150 948 150 948 118 c 0,43,44
 948 112 948 112 946 106 c 2,45,-1
 936 44 l 2,46,47
 928 0 928 0 882 0 c 2,48,-1
 788 0 l 2,13,14
EndSplineSet
Validated: 1
EndChar

StartChar: t
Encoding: 116 116 145
Width: 1200
Flags: W
HStem: 0 150<628.584 906.568> 950 150<191.432 497 693 1007.86> 1480 20G<618 734.5>
VStem: 393 169<216.793 463.005>
DStem2: 329.059 0 498.938 0 0.173648 0.984808<373.039 964.73 1146.49 1515.71>
LayerCount: 2
Fore
SplineSet
754 0 m 2,0,1
 561 0 561 0 471 106 c 0,2,3
 393 198 393 198 393 324 c 0,4,5
 393 364 393 364 401 408 c 2,6,-1
 497 950 l 1,7,-1
 223 950 l 2,8,9
 180 950 180 950 180 986 c 0,10,11
 180 992 180 992 181 999 c 2,12,-1
 190 1051 l 2,13,14
 199 1100 199 1100 249 1100 c 2,15,-1
 523 1100 l 1,16,-1
 585 1451 l 2,17,18
 593 1500 593 1500 643 1500 c 2,19,-1
 713 1500 l 2,20,21
 756 1500 756 1500 756 1464 c 0,22,23
 756 1458 756 1458 755 1451 c 2,24,-1
 693 1100 l 1,25,-1
 977 1100 l 2,26,27
 1020 1100 1020 1100 1020 1064 c 0,28,29
 1020 1058 1020 1058 1018 1051 c 2,30,-1
 1009 999 l 2,31,32
 1001 950 1001 950 951 950 c 2,33,-1
 667 950 l 1,34,-1
 567 386 l 2,35,36
 562 360 562 360 562 337 c 0,37,38
 562 264 562 264 607 215 c 0,39,40
 665 150 665 150 770 150 c 2,41,-1
 875 150 l 2,42,43
 918 150 918 150 918 114 c 0,44,45
 918 108 918 108 917 101 c 2,46,-1
 908 49 l 2,47,48
 899 0 899 0 849 0 c 2,49,-1
 754 0 l 2,0,1
EndSplineSet
Validated: 1
EndChar

StartChar: j
Encoding: 106 106 146
Width: 1200
Flags: W
HStem: -400 150<112.023 428> 950 150<450.432 722> 1256 264<746.253 931.777>
VStem: 705 268<1295.22 1481.32>
DStem2: 483.959 -400 653.15 -400 0.173648 0.984808<232.583 1370.83>
LayerCount: 2
Fore
SplineSet
839 1520 m 0,0,1
 898 1520 898 1520 933 1484 c 0,2,3
 973 1443 973 1443 973 1388 c 128,-1,4
 973 1333 973 1333 933 1294 c 0,5,6
 894 1256 894 1256 839 1256 c 0,7,8
 782 1256 782 1256 745 1292 c 0,9,10
 705 1331 705 1331 705 1388 c 128,-1,11
 705 1445 705 1445 745 1482.5 c 128,-1,12
 785 1520 785 1520 839 1520 c 0,0,1
253 -400 m 2,13,-1
 138 -400 l 2,14,15
 100 -400 100 -400 100 -368 c 0,16,17
 100 -362 100 -362 101 -356 c 2,18,-1
 112 -294 l 2,19,20
 120 -250 120 -250 165 -250 c 2,21,-1
 270 -250 l 2,22,23
 377 -250 377 -250 454 -189 c 0,24,25
 532 -127 532 -127 551 -19 c 2,26,-1
 722 950 l 17,27,-1
 482 950 l 2,28,29
 439 950 439 950 439 986 c 0,30,31
 439 992 439 992 440 999 c 2,32,-1
 449 1051 l 2,33,34
 458 1100 458 1100 508 1100 c 2,35,-1
 868 1100 l 2,36,37
 911 1100 911 1100 911 1064 c 0,38,39
 911 1058 911 1058 909 1051 c 2,40,-1
 725 3 l 2,41,42
 689 -197 689 -197 571 -295 c 0,43,44
 444 -400 444 -400 253 -400 c 2,13,-1
EndSplineSet
Validated: 1
EndChar

StartChar: f
Encoding: 102 102 147
Width: 1200
Flags: W
HStem: 0 21G<294.5 411> 740 150<91.1665 396 593 907.864> 1350 150<763.516 1081.57>
DStem2: 266.36 0 436.36 0 0.173648 0.984808<36.7911 751.269 933.199 1312.44>
LayerCount: 2
Fore
SplineSet
316 0 m 2,0,1
 273 0 273 0 273 36 c 0,2,3
 273 42 273 42 275 49 c 2,4,-1
 396 740 l 1,5,-1
 122 740 l 2,6,7
 80 740 80 740 80 776 c 0,8,9
 80 782 80 782 81 789 c 2,10,-1
 90 841 l 2,11,12
 99 890 99 890 149 890 c 2,13,-1
 423 890 l 1,14,-1
 459 1092 l 2,15,16
 494 1294 494 1294 615 1394 c 0,17,18
 742 1500 742 1500 935 1500 c 2,19,-1
 1050 1500 l 2,20,21
 1093 1500 1093 1500 1093 1464 c 0,22,23
 1093 1458 1093 1458 1092 1451 c 2,24,-1
 1083 1399 l 2,25,26
 1074 1350 1074 1350 1024 1350 c 2,27,-1
 919 1350 l 2,28,29
 814 1350 814 1350 732.5 1285 c 128,-1,30
 651 1220 651 1220 632 1114 c 2,31,-1
 593 890 l 1,32,-1
 877 890 l 2,33,34
 920 890 920 890 920 854 c 0,35,36
 920 848 920 848 918 841 c 2,37,-1
 909 789 l 2,38,39
 900 740 900 740 850 740 c 2,40,-1
 566 740 l 1,41,-1
 445 49 l 2,42,43
 436 0 436 0 386 0 c 2,44,-1
 316 0 l 2,0,1
EndSplineSet
Validated: 1
EndChar

StartChar: d
Encoding: 100 100 148
Width: 1200
Flags: W
HStem: -20 155<367.982 615.301> 0 21G<698 822> 963 157<491.595 779.329> 1480 20G<959 1083>
VStem: 98 168<241.664 671.956>
DStem2: 670.715 -20 840.715 -20 0.173648 0.984808<52.0528 93.2565 205.279 936.541 1061.94 1540.1>
LayerCount: 2
Fore
SplineSet
716 0 m 2,0,1
 680 0 680 0 680 31 c 0,2,3
 680 38 680 38 682 44 c 2,4,-1
 686 72 l 1,5,6
 572 -20 572 -20 462 -20 c 0,7,8
 284 -20 284 -20 188 119 c 0,9,10
 98 250 98 250 98 423 c 0,11,12
 98 496 98 496 108 550 c 0,13,14
 156 824 156 824 312 980 c 0,15,16
 452 1120 452 1120 644 1120 c 0,17,18
 776 1120 776 1120 854 1026 c 1,19,-1
 930 1456 l 2,20,21
 938 1500 938 1500 980 1500 c 2,22,-1
 1064 1500 l 2,23,24
 1102 1500 1102 1500 1102 1468 c 0,25,26
 1102 1462 1102 1462 1100 1456 c 2,27,-1
 852 44 l 2,28,29
 844 0 844 0 800 0 c 2,30,-1
 716 0 l 2,0,1
824 856 m 1,31,32
 777 963 777 963 651.5 963 c 128,-1,33
 526 963 526 963 428 869 c 0,34,35
 316 760 316 760 278 552 c 0,36,37
 266 485 266 485 266 422 c 0,38,39
 266 307 266 307 314 237 c 0,40,41
 382 135 382 135 508 135 c 0,42,43
 632 135 632 135 716 246 c 1,44,-1
 824 856 l 1,31,32
EndSplineSet
Validated: 1
EndChar

StartChar: p
Encoding: 112 112 149
Width: 1200
Flags: W
HStem: -400 21G<98 222> -20 157<401.704 688.829> 965 155<560.178 814.011> 1080 20G<359.5 483.5>
VStem: 915 170<425.5 857.658>
DStem2: 73.2416 -400 243.242 -400 0.173648 0.984808<32.8721 510.864 636.266 1367.61 1479.54 1520.78>
LayerCount: 2
Fore
SplineSet
537 -20 m 0,0,1
 405 -20 405 -20 327 74 c 1,2,-1
 251 -356 l 2,3,4
 243 -400 243 -400 201 -400 c 2,5,-1
 116 -400 l 2,6,7
 80 -400 80 -400 80 -368 c 0,8,9
 80 -362 80 -362 81 -356 c 2,10,-1
 330 1056 l 2,11,12
 338 1100 338 1100 381 1100 c 2,13,-1
 466 1100 l 2,14,15
 501 1100 501 1100 501 1069 c 0,16,17
 501 1063 501 1063 500 1056 c 2,18,-1
 495 1028 l 1,19,20
 597 1120 597 1120 718 1120 c 0,21,22
 889 1120 889 1120 993 981 c 0,23,24
 1085 856 1085 856 1085 682 c 0,25,26
 1085 619 1085 619 1073 550 c 0,27,28
 1027 289 1027 289 871 124 c 0,29,30
 735 -20 735 -20 537 -20 c 0,0,1
357 244 m 1,31,32
 404 137 404 137 530 137 c 128,-1,33
 656 137 656 137 754 231 c 0,34,35
 865 339 865 339 903 548 c 0,36,37
 915 614 915 614 915 678 c 0,38,39
 915 793 915 793 868 863 c 0,40,41
 800 965 800 965 674 965 c 0,42,43
 550 965 550 965 465 854 c 1,44,-1
 357 244 l 1,31,32
EndSplineSet
Validated: 1
EndChar

StartChar: b
Encoding: 98 98 150
Width: 1200
Flags: W
HStem: -20 155<352.004 631.444> 0 21G<118 242> 963 157<513.015 767.678> 1480 20G<379 503>
VStem: 865 169<426.374 857.625>
DStem2: 89.7151 -20 259.715 -20 0.173648 0.984808<53.1807 122.95 250.198 981.673 1091.63 1541.06>
LayerCount: 2
Fore
SplineSet
136 0 m 2,0,1
 100 0 100 0 100 32 c 0,2,3
 100 38 100 38 101 44 c 2,4,-1
 350 1456 l 2,5,6
 358 1500 358 1500 400 1500 c 2,7,-1
 485 1500 l 2,8,9
 521 1500 521 1500 521 1469 c 0,10,11
 521 1462 521 1462 520 1456 c 2,12,-1
 444 1026 l 1,13,14
 555 1120 555 1120 667 1120 c 0,15,16
 828 1120 828 1120 931 997.5 c 128,-1,17
 1034 875 1034 875 1034 683 c 0,18,19
 1034 620 1034 620 1022 550 c 0,20,21
 976 289 976 289 815 119 c 0,22,23
 683 -20 683 -20 486 -20 c 0,24,25
 356 -20 356 -20 276 72 c 1,26,-1
 271 44 l 2,27,28
 263 0 263 0 221 0 c 2,29,-1
 136 0 l 2,0,1
414 856 m 1,30,-1
 306 246 l 1,31,32
 352 135 352 135 477 135 c 0,33,34
 603 135 603 135 707 237 c 0,35,36
 816 344 816 344 852 552 c 0,37,38
 864 621 864 621 865 680 c 0,39,40
 865 797 865 797 815 869 c 0,41,42
 751 963 751 963 625 963 c 128,-1,43
 499 963 499 963 414 856 c 1,30,-1
EndSplineSet
Validated: 1
EndChar

StartChar: q
Encoding: 113 113 151
Width: 1200
Flags: W
HStem: -400 150<823 983.864> -20 157<385.522 639.058> 965 155<521.418 803.246> 1080 20G<912 1036>
VStem: 120 169<242.736 673.75>
DStem2: 626.36 -400 796.551 -400 0.173648 0.984808<181.867 481.323 591.279 1322.76 1450 1519.77>
LayerCount: 2
Fore
SplineSet
486 -20 m 0,0,1
 294 -20 294 -20 203 125 c 0,2,3
 120 258 120 258 120 422 c 0,4,5
 120 484 120 484 132 550 c 0,6,7
 177 808 177 808 339 982 c 0,8,9
 467 1120 467 1120 667 1120 c 0,10,11
 797 1120 797 1120 878 1028 c 1,12,-1
 883 1056 l 2,13,14
 891 1100 891 1100 933 1100 c 2,15,-1
 1018 1100 l 2,16,17
 1054 1100 1054 1100 1054 1068 c 0,18,19
 1054 1062 1054 1062 1053 1056 c 2,20,-1
 823 -250 l 1,21,-1
 953 -250 l 2,22,23
 996 -250 996 -250 996 -286 c 0,24,25
 996 -292 996 -292 994 -299 c 2,26,-1
 985 -351 l 2,27,28
 976 -400 976 -400 926 -400 c 2,29,-1
 676 -400 l 2,30,31
 634 -400 634 -400 634 -364 c 0,32,33
 634 -358 634 -358 635 -351 c 2,34,-1
 710 74 l 1,35,36
 598 -20 598 -20 486 -20 c 0,0,1
740 244 m 1,37,-1
 848 854 l 1,38,39
 802 965 802 965 677 965 c 0,40,41
 551 965 551 965 447 863 c 0,42,43
 339 757 339 757 302 548 c 0,44,45
 289 474 289 474 289 420 c 0,46,47
 289 303 289 303 339 231 c 0,48,49
 403 137 403 137 529 137 c 128,-1,50
 655 137 655 137 740 244 c 1,37,-1
EndSplineSet
Validated: 1
EndChar

StartChar: a
Encoding: 97 97 152
Width: 1200
Flags: W
HStem: -20 142<379.877 668.227> 0 21G<753 874.5> 950 150<471.34 810.411>
VStem: 171 162<167.596 400.514> 856 173<600.608 904.15>
DStem2: 633 659 606 514 0.982923 0.184018<-259.461 169.583> 723.508 -20 893.715 -20 0.173648 0.984808<53.2167 92.4814 206.322 583.888>
LayerCount: 2
Fore
SplineSet
772 0 m 2,0,1
 734 0 734 0 734 32 c 0,2,3
 734 38 734 38 735 44 c 2,4,-1
 740 71 l 1,5,6
 623 -20 623 -20 495 -20 c 0,7,8
 304 -20 304 -20 221 93 c 0,9,10
 171 161 171 161 171 268 c 0,11,12
 171 425 171 425 301 530 c 0,13,14
 407 616 407 616 633 659 c 2,15,-1
 850 700 l 1,16,17
 856 745 856 745 856 781 c 0,18,19
 856 854 856 854 831 885 c 0,20,21
 779 950 779 950 673 950 c 2,22,-1
 498 950 l 2,23,24
 459 950 459 950 459 982 c 0,25,26
 459 987 459 987 460 994 c 2,27,-1
 471 1056 l 2,28,29
 479 1100 479 1100 524 1100 c 2,30,-1
 674 1100 l 2,31,32
 862 1100 862 1100 951 995 c 16,33,34
 1029 904 1029 904 1029 782 c 0,35,36
 1029 746 1029 746 1022 707 c 2,37,-1
 905 44 l 2,38,39
 897 0 897 0 852 0 c 2,40,-1
 772 0 l 2,0,1
354 196 m 0,41,42
 398 122 398 122 512 122 c 0,43,44
 606 122 606 122 708 186 c 0,45,46
 743 208 743 208 769 238 c 1,47,-1
 825 555 l 1,48,-1
 606 514 l 2,49,50
 489 492 489 492 420 441 c 0,51,52
 333 375 333 375 333 278 c 0,53,54
 333 232 333 232 354 196 c 0,41,42
EndSplineSet
Validated: 1
EndChar

StartChar: c
Encoding: 99 99 153
Width: 1200
Flags: W
HStem: -20 155<448.126 712.758> 965 155<575.43 858.077>
VStem: 180 172<237.982 677.698>
LayerCount: 2
Fore
SplineSet
557 -20 m 0,0,1
 360 -20 360 -20 268 119 c 0,2,3
 180 252 180 252 180 423 c 0,4,5
 180 484 180 484 191 550 c 0,6,7
 241 840 241 840 392 980 c 128,-1,8
 543 1120 543 1120 737 1120 c 0,9,10
 938 1120 938 1120 1031 974 c 0,11,12
 1038 963 1038 963 1038 953 c 0,13,14
 1038 932 1038 932 1014 917 c 2,15,-1
 943 872 l 2,16,17
 926 861 926 861 914 861 c 0,18,19
 901 862 901 862 891 880 c 16,20,21
 845 965 845 965 720 965 c 0,22,23
 607 965 607 965 510 869 c 0,24,25
 401 759 401 759 365 553 c 0,26,27
 352 478 352 478 352 417 c 0,28,29
 352 304 352 304 396 237 c 0,30,31
 463 135 463 135 571.5 135 c 128,-1,32
 680 135 680 135 768 226 c 8,33,34
 786 245 786 245 797 245 c 0,35,36
 810 245 810 245 822 234 c 2,37,-1
 887 176 l 2,38,39
 901 164 901 164 901 148 c 0,40,41
 901 133 901 133 885 119 c 0,42,43
 733 -20 733 -20 557 -20 c 0,0,1
EndSplineSet
Validated: 1
EndChar

StartChar: e
Encoding: 101 101 154
Width: 1200
Flags: W
HStem: -20 155<394.615 667.553> 965 155<524.911 806.062>
VStem: 129 177<232.356 344 506.719 688.868> 897 174<708 864.996>
DStem2: 306 506 306 344 0.946164 0.323688<0 636.079>
LayerCount: 2
Fore
SplineSet
506 -20 m 0,0,1
 311 -20 311 -20 217 119 c 0,2,3
 129 251 129 251 129 420 c 0,4,5
 129 490 129 490 140 550 c 0,6,7
 189 828 189 828 343 981 c 0,8,9
 482 1120 482 1120 686 1120 c 0,10,11
 875 1120 875 1120 976 979 c 0,12,13
 1071 846 1071 846 1071 677 c 0,14,15
 1071 668 1071 668 1070 662 c 0,16,17
 1059 602 1059 602 990 578 c 2,18,-1
 306 344 l 1,19,20
 308 296 308 296 345 237 c 0,21,22
 410 135 410 135 522 135 c 0,23,24
 638 135 638 135 749 241 c 0,25,26
 770 261 770 261 792 261 c 0,27,28
 809 261 809 261 820 247 c 2,29,-1
 867 189 l 2,30,31
 880 173 880 173 880 157 c 0,32,33
 880 139 880 139 859 119 c 0,34,35
 718 -20 718 -20 506 -20 c 0,0,1
897 708 m 1,36,37
 896 801 896 801 851 871 c 0,38,39
 789 965 789 965 669 965 c 0,40,41
 556 965 556 965 459 869 c 0,42,43
 353 762 353 762 314 553 c 0,44,45
 309 529 309 529 306 506 c 1,46,-1
 897 708 l 1,36,37
EndSplineSet
Validated: 1
EndChar

StartChar: g
Encoding: 103 103 155
Width: 1200
Flags: W
HStem: -400 150<142.023 591.454> -20 157<401.671 661.875> 965 155<539.218 818.066> 1080 20G<929 1052>
VStem: 138 168<241.949 673.5> 900 170<1028 1099.8>
LayerCount: 2
Fore
SplineSet
502 -20 m 0,0,1
 330 -19 330 -19 228 121 c 0,2,3
 138 242 138 242 138 418 c 0,4,5
 138 492 138 492 148 550 c 0,6,7
 194 808 194 808 354 978 c 0,8,9
 488 1120 488 1120 684 1120 c 0,10,11
 814 1120 814 1120 894 1028 c 1,12,-1
 900 1056 l 2,13,14
 908 1100 908 1100 950 1100 c 2,15,-1
 1034 1100 l 2,16,17
 1070 1100 1070 1100 1070 1068 c 0,18,19
 1070 1062 1070 1062 1070 1056 c 2,20,-1
 884 3 l 2,21,22
 848 -196 848 -196 730 -295 c 0,23,24
 602 -400 602 -400 412 -400 c 2,25,-1
 168 -400 l 2,26,27
 130 -400 130 -400 130 -368 c 0,28,29
 130 -362 130 -362 130 -356 c 2,30,-1
 142 -294 l 2,31,32
 150 -250 150 -250 194 -250 c 2,33,-1
 430 -250 l 2,34,35
 538 -250 538 -250 614 -189 c 0,36,37
 692 -127 692 -127 710 -19 c 2,38,-1
 726 74 l 1,39,40
 630 -20 630 -20 502 -20 c 0,0,1
756 244 m 1,41,-1
 864 854 l 1,42,43
 818 965 818 965 694 965 c 0,44,45
 568 965 568 965 464 863 c 0,46,47
 354 756 354 756 318 548 c 0,48,49
 306 479 306 479 306 420 c 0,50,51
 306 303 306 303 356 231 c 0,52,53
 420 137 420 137 545.5 137 c 128,-1,54
 671 137 671 137 756 244 c 1,41,-1
EndSplineSet
Validated: 1
EndChar

StartChar: v
Encoding: 118 118 156
Width: 1200
Flags: W
HStem: 0 21G<355 569> 1080 20G<171.5 296 1006 1135.5>
DStem2: 485 158 152 1053 0.172239 -0.985055<-952.991 0> 485 158 606 35 0.467249 0.884126<0 1088.59>
LayerCount: 2
Fore
SplineSet
374 0 m 2,0,1
 336 0 336 0 330 35 c 2,2,-1
 152 1053 l 2,3,4
 150 1063 150 1063 150 1067 c 0,5,6
 150 1100 150 1100 193 1100 c 2,7,-1
 277 1100 l 2,8,9
 315 1100 315 1100 321 1066 c 2,10,-1
 485 158 l 1,11,-1
 969 1066 l 2,12,13
 987 1100 987 1100 1025 1100 c 2,14,-1
 1119 1100 l 2,15,16
 1152 1100 1152 1100 1152 1076 c 0,17,18
 1152 1069 1152 1069 1144 1053 c 2,19,-1
 606 35 l 2,20,21
 588 0 588 0 550 0 c 2,22,-1
 374 0 l 2,0,1
EndSplineSet
Validated: 1
EndChar

StartChar: y
Encoding: 121 121 157
Width: 1200
Flags: W
HStem: -420 150<94.854 277.078> 1080 20G<180.5 315 1025 1144.5>
DStem2: 504 158 161 1053 0.173178 -0.984891<-954.887 0> 360 -122 508 -168 0.467089 0.88421<-165.934 140.103 314.84 1405.51>
LayerCount: 2
Fore
SplineSet
383 0 m 2,0,1
 345 0 345 0 340 35 c 2,2,-1
 161 1053 l 2,3,4
 159 1063 159 1063 159 1067 c 0,5,6
 159 1100 159 1100 202 1100 c 2,7,-1
 296 1100 l 2,8,9
 334 1100 334 1100 340 1066 c 2,10,-1
 504 158 l 1,11,-1
 988 1066 l 2,12,13
 1006 1100 1006 1100 1044 1100 c 2,14,-1
 1128 1100 l 2,15,16
 1161 1100 1161 1100 1161 1077 c 0,17,18
 1161 1069 1161 1069 1153 1053 c 2,19,-1
 508 -168 l 2,20,21
 449 -280 449 -280 387 -332 c 0,22,23
 281 -420 281 -420 127 -420 c 0,24,25
 85 -420 85 -420 85 -385 c 0,26,27
 85 -377 85 -377 85 -371 c 2,28,-1
 94 -319 l 2,29,30
 102 -270 102 -270 153 -270 c 0,31,32
 222 -270 222 -270 279 -226 c 0,33,34
 320 -194 320 -194 360 -122 c 2,35,-1
 429 0 l 1,36,-1
 383 0 l 2,0,1
EndSplineSet
Validated: 1
EndChar

StartChar: z
Encoding: 122 122 158
Width: 1200
Flags: W
HStem: 0 150<370 901.156> 950 150<338.844 829>
DStem2: 147 135 370 150 0.641757 0.766908<154.615 1062.71>
LayerCount: 2
Fore
SplineSet
163 0 m 2,0,1
 120 0 120 0 120 36 c 0,2,3
 120 37 120 37 122 49 c 2,4,-1
 131 101 l 2,5,6
 134 119 134 119 147 135 c 2,7,-1
 829 950 l 1,8,-1
 371 950 l 2,9,10
 328 950 328 950 328 986 c 0,11,12
 328 993 328 993 329 999 c 2,13,-1
 338 1051 l 2,14,15
 346 1100 346 1100 397 1100 c 2,16,-1
 1037 1100 l 2,17,18
 1080 1100 1080 1100 1080 1064 c 0,19,20
 1080 1063 1080 1063 1078 1051 c 2,21,-1
 1069 999 l 2,22,23
 1066 980 1066 980 1051 962 c 2,24,-1
 370 150 l 1,25,-1
 869 150 l 2,26,27
 912 150 912 150 912 114 c 0,28,29
 912 107 912 107 911 101 c 2,30,-1
 902 49 l 2,31,32
 894 0 894 0 843 0 c 2,33,-1
 163 0 l 2,0,1
EndSplineSet
Validated: 1
EndChar

StartChar: n
Encoding: 110 110 159
Width: 1200
Flags: W
HStem: 0 21G<129 250.5 779 900.5> 970 150<530.77 826.039> 1080 20G<319.5 441>
VStem: 886 171<640.428 909.497>
DStem2: 103.242 0 273.242 0 0.173648 0.984808<32.8721 962.301 1071.32 1113.54> 753.242 0 923.242 0 0.173648 0.984808<32.8721 794.182>
LayerCount: 2
Fore
SplineSet
148 0 m 2,0,1
 110 0 110 0 110 32 c 0,2,3
 110 38 110 38 111 44 c 2,4,-1
 289 1056 l 2,5,6
 297 1100 297 1100 342 1100 c 2,7,-1
 422 1100 l 2,8,9
 460 1100 460 1100 460 1068 c 0,10,11
 460 1062 460 1062 459 1056 c 2,12,-1
 454 1026 l 1,13,14
 572 1120 572 1120 716 1120 c 0,15,16
 891 1120 891 1120 981 1015 c 0,17,18
 1057 925 1057 925 1057 800 c 0,19,20
 1057 760 1057 760 1049 717 c 2,21,-1
 931 44 l 2,22,23
 923 0 923 0 878 0 c 2,24,-1
 798 0 l 2,25,26
 760 0 760 0 760 32 c 0,27,28
 760 38 760 38 761 44 c 2,29,-1
 879 717 l 2,30,31
 885 753 885 753 886 784 c 0,32,33
 886 856 886 856 851 900 c 0,34,35
 796 970 796 970 672 970 c 0,36,37
 514 970 514 970 425 861 c 1,38,-1
 281 44 l 2,39,40
 273 0 273 0 228 0 c 2,41,-1
 148 0 l 2,0,1
EndSplineSet
Validated: 1
EndChar

StartChar: u
Encoding: 117 117 160
Width: 1200
Flags: W
HStem: -20 150<353.487 653.679> 0 21G<743 864> 1080 20G<283 405 933 1055>
VStem: 126 172<183.672 593.312>
DStem2: 62.9402 -20 232.94 -20 0.173648 0.984808<365.868 1133.98> 712.331 -20 882.715 -20 0.173648 0.984808<65.0539 95.6401 204.358 1134.09>
LayerCount: 2
Fore
SplineSet
842 0 m 2,0,-1
 762 0 l 2,1,2
 724 0 724 0 724 32 c 0,3,4
 724 38 724 38 724 44 c 2,5,-1
 730 74 l 1,6,7
 610 -20 610 -20 474 -20 c 0,8,9
 290 -20 290 -20 202 85 c 0,10,11
 126 175 126 175 126 300 c 0,12,13
 126 340 126 340 134 383 c 2,14,-1
 252 1056 l 2,15,16
 260 1100 260 1100 306 1100 c 2,17,-1
 386 1100 l 2,18,19
 424 1100 424 1100 424 1068 c 0,20,21
 424 1062 424 1062 422 1056 c 2,22,-1
 304 383 l 2,23,24
 298 343 298 343 298 309 c 0,25,26
 298 239 298 239 328 200 c 0,27,28
 382 130 382 130 506 130 c 0,29,30
 668 130 668 130 758 239 c 1,31,-1
 902 1056 l 2,32,33
 910 1100 910 1100 956 1100 c 2,34,-1
 1036 1100 l 2,35,36
 1074 1100 1074 1100 1074 1068 c 0,37,38
 1074 1062 1074 1062 1072 1056 c 2,39,-1
 894 44 l 2,40,41
 886 0 886 0 842 0 c 2,0,-1
EndSplineSet
Validated: 1
EndChar

StartChar: h
Encoding: 104 104 161
Width: 1200
Flags: W
HStem: 0 21G<119 240.5 769 890.5> 970 150<520.379 814.316> 1480 20G<379.5 501.5>
VStem: 876 171<640.428 909.497>
DStem2: 93.2416 0 263.242 0 0.173648 0.984808<32.8721 962.301 1071.32 1519.79> 743.242 0 913.242 0 0.173648 0.984808<32.8721 794.182>
LayerCount: 2
Fore
SplineSet
138 0 m 2,0,1
 100 0 100 0 100 32 c 0,2,3
 100 38 100 38 101 44 c 2,4,-1
 350 1456 l 2,5,6
 357 1500 357 1500 402 1500 c 2,7,-1
 482 1500 l 2,8,9
 521 1500 521 1500 521 1468 c 0,10,11
 521 1462 521 1462 520 1456 c 2,12,-1
 444 1026 l 1,13,14
 562 1120 562 1120 698 1120 c 0,15,16
 881 1120 881 1120 971 1015 c 0,17,18
 1047 925 1047 925 1047 800 c 0,19,20
 1047 760 1047 760 1039 717 c 2,21,-1
 921 44 l 2,22,23
 913 0 913 0 868 0 c 2,24,-1
 788 0 l 2,25,26
 750 0 750 0 750 32 c 0,27,28
 750 38 750 38 751 44 c 2,29,-1
 869 717 l 2,30,31
 875 753 875 753 876 784 c 0,32,33
 876 856 876 856 841 900 c 0,34,35
 786 970 786 970 662 970 c 0,36,37
 504 970 504 970 415 861 c 1,38,-1
 271 44 l 2,39,40
 263 0 263 0 218 0 c 2,41,-1
 138 0 l 2,0,1
EndSplineSet
Validated: 1
EndChar

StartChar: m
Encoding: 109 109 162
Width: 1200
Flags: W
HStem: 0 21G<37 148.5 467 578.5 897 1008.5> 971 149<402.076 571.718 825.716 1002.57> 1080 20G<227.5 339>
VStem: 1019 163<738.606 926.246>
DStem2: 11.2416 0 171.242 0 0.173648 0.984808<32.8721 991.934 1069.58 1111.8> 441.242 0 601.242 0 0.173648 0.984808<32.8721 874.809> 871.242 0 1031.24 0 0.173648 0.984808<32.8721 874.809>
LayerCount: 2
Fore
SplineSet
56 0 m 2,0,1
 18 0 18 0 18 32 c 0,2,3
 18 38 18 38 19 44 c 2,4,-1
 197 1056 l 2,5,6
 205 1100 205 1100 250 1100 c 2,7,-1
 320 1100 l 2,8,9
 358 1100 358 1100 358 1068 c 0,10,11
 358 1062 358 1062 357 1056 c 2,12,-1
 352 1026 l 1,13,14
 424 1120 424 1120 543 1120 c 0,15,16
 647 1120 647 1120 704 1041 c 0,17,18
 720 1018 720 1018 729 991 c 1,19,20
 840 1120 840 1120 973 1120 c 0,21,22
 1072 1120 1072 1120 1134 1041 c 0,23,24
 1182 978 1182 978 1182 887 c 0,25,26
 1182 853 1182 853 1175 816 c 2,27,-1
 1039 44 l 2,28,29
 1031 0 1031 0 986 0 c 2,30,-1
 916 0 l 2,31,32
 878 0 878 0 878 32 c 0,33,34
 878 38 878 38 879 44 c 2,35,-1
 1015 816 l 2,36,37
 1019 839 1019 839 1019 863 c 0,38,39
 1019 903 1019 903 1003 927 c 0,40,41
 975 971 975 971 907 971 c 0,42,43
 800 971 800 971 753 861 c 9,44,-1
 609 44 l 2,45,46
 601 0 601 0 556 0 c 2,47,-1
 486 0 l 2,48,49
 448 0 448 0 448 32 c 0,50,51
 448 38 448 38 449 44 c 2,52,-1
 585 816 l 2,53,54
 589 839 589 839 589 863 c 0,55,56
 589 903 589 903 573 927 c 0,57,58
 545 971 545 971 477 971 c 0,59,60
 370 971 370 971 323 861 c 1,61,-1
 179 44 l 2,62,63
 171 0 171 0 126 0 c 2,64,-1
 56 0 l 2,0,1
EndSplineSet
Validated: 1
EndChar

StartChar: r
Encoding: 114 114 163
Width: 1200
Flags: W
HStem: 0 21G<221.5 338> 967 153<613.606 910.695> 1080 20G<412 528.5>
DStem2: 193.36 0 363.36 0 0.173648 0.984808<36.6699 957.812 1077.38 1124.69>
LayerCount: 2
Fore
SplineSet
243 0 m 2,0,1
 200 0 200 0 200 36 c 0,2,3
 200 38 200 38 202 49 c 2,4,-1
 378 1051 l 2,5,6
 387 1100 387 1100 437 1100 c 2,7,-1
 507 1100 l 2,8,9
 550 1100 550 1100 550 1064 c 0,10,11
 548 1051 l 2,12,-1
 545 1032 l 1,13,14
 655 1120 655 1120 803 1120 c 0,15,16
 972 1120 972 1120 1072 1007 c 0,17,18
 1080 998 1080 998 1080 982 c 0,19,20
 1080 958 1080 958 1054 936 c 2,21,-1
 1004 894 l 2,22,23
 987 880 987 880 971 880 c 0,24,25
 953 880 953 880 935 900 c 0,26,27
 875 967 875 967 754 967 c 0,28,29
 608 967 608 967 514 855 c 1,30,-1
 372 49 l 2,31,32
 363 0 363 0 313 0 c 2,33,-1
 243 0 l 2,0,1
EndSplineSet
Validated: 1
EndChar

StartChar: x
Encoding: 120 120 164
Width: 1200
Flags: W
HStem: 0 21G<63.5 197.5 828.5 948> 1080 20G<252 371.5 1002.5 1136.5>
DStem2: 57 49 246 34 0.661475 0.749967<29.6265 624.408 845.421 1440.2> 614 685 233 1051 0.481687 -0.876343<-498.322 0 223.125 719.663>
LayerCount: 2
Fore
SplineSet
80 0 m 2,0,1
 47 0 47 0 47 28 c 0,2,3
 47 38 47 38 57 49 c 2,4,-1
 504 550 l 1,5,-1
 233 1051 l 2,6,7
 230 1057 230 1057 230 1068 c 0,8,9
 230 1100 230 1100 274 1100 c 2,10,-1
 353 1100 l 2,11,12
 390 1100 390 1100 408 1066 c 2,13,-1
 614 685 l 1,14,-1
 954 1066 l 2,15,16
 984 1100 984 1100 1021 1100 c 2,17,-1
 1120 1100 l 2,18,19
 1153 1100 1153 1100 1153 1072 c 0,20,21
 1153 1062 1153 1062 1143 1051 c 2,22,-1
 696 550 l 1,23,-1
 967 49 l 2,24,25
 970 43 970 43 970 32 c 0,26,27
 970 0 970 0 926 0 c 2,28,-1
 847 0 l 2,29,30
 810 0 810 0 792 34 c 2,31,-1
 586 415 l 1,32,-1
 246 34 l 2,33,34
 216 0 216 0 179 0 c 2,35,-1
 80 0 l 2,0,1
EndSplineSet
Validated: 1
EndChar

StartChar: k
Encoding: 107 107 165
Width: 1200
Flags: W
HStem: 0 21G<169 290.5 769 909.5> 1080 20G<946 1088> 1480 20G<430 551.5>
DStem2: 143.242 0 313.242 0 0.173648 0.984808<32.8721 341.191 603.086 1519.79> 412 565 552 497 0.695454 0.718571<0 48.5007 240.877 787.625> 685 636 552 497 0.375959 -0.926636<78.8 633.234>
LayerCount: 2
Fore
SplineSet
188 0 m 2,0,1
 150 0 150 0 150 32 c 0,2,3
 150 38 150 38 151 44 c 2,4,-1
 400 1456 l 2,5,6
 408 1500 408 1500 452 1500 c 2,7,-1
 532 1500 l 2,8,9
 571 1500 571 1500 571 1468 c 0,10,11
 571 1462 571 1462 570 1456 c 2,12,-1
 412 565 l 1,13,-1
 899 1068 l 2,14,15
 930 1100 930 1100 962 1100 c 2,16,-1
 1074 1100 l 2,17,18
 1102 1100 1102 1100 1102 1079 c 0,19,20
 1102 1066 1102 1066 1089 1053 c 2,21,-1
 685 636 l 1,22,-1
 926 42 l 2,23,24
 928 37 928 37 928 28 c 0,25,26
 928 0 928 0 891 0 c 2,27,-1
 789 0 l 2,28,29
 749 0 749 0 737 31 c 2,30,-1
 552 497 l 1,31,-1
 367 307 l 1,32,-1
 321 44 l 2,33,34
 313 0 313 0 268 0 c 2,35,-1
 188 0 l 2,0,1
EndSplineSet
Validated: 1
EndChar

StartChar: w
Encoding: 119 119 166
Width: 1200
Flags: W
HStem: 0 21G<53 252 612 811> 1080 20G<63 173 1078 1186>
VStem: 38 162<200 1099.7> 578 136<632.216 832> 590 156<200 550.784>
DStem2: 186 200 290 49 0.365652 0.930751<0 731.571> 746 200 848 49 0.326398 0.945233<0 967.455>
LayerCount: 2
Fore
SplineSet
74 0 m 2,0,1
 32 0 32 0 32 49 c 9,2,-1
 38 1051 l 2,3,4
 38 1063 38 1063 40 1071 c 0,5,6
 46 1100 46 1100 80 1100 c 2,7,-1
 146 1100 l 2,8,9
 200 1100 200 1100 200 1066 c 9,10,-1
 186 200 l 17,11,-1
 494 984 l 2,12,13
 514 1032 514 1032 554 1032 c 2,14,-1
 672 1032 l 2,15,16
 712 1032 712 1032 714 983 c 2,17,-1
 746 200 l 9,18,-1
 1038 1066 l 2,19,20
 1050 1100 1050 1100 1106 1100 c 2,21,-1
 1172 1100 l 2,22,23
 1200 1100 1200 1100 1200 1072 c 0,24,25
 1200 1065 1200 1065 1194 1051 c 2,26,-1
 848 49 l 2,27,28
 832 0 832 0 790 0 c 2,29,-1
 632 0 l 2,30,31
 592 0 592 0 590 49 c 2,32,-1
 578 832 l 1,33,-1
 290 49 l 2,34,35
 272 0 272 0 232 0 c 2,36,-1
 74 0 l 2,0,1
EndSplineSet
Validated: 1
EndChar

StartChar: Oslash
Encoding: 216 216 167
Width: 1200
Flags: W
HStem: -20 160<356.557 631.136> 1360 160<569.315 844.196>
VStem: 66 178<329.998 860.625> 958 176<644.467 1178.43>
DStem2: 57 -3 141 -45 0.540921 0.841073<-10.3868 162.125 392.77 1466.13 1696.78 1872.89>
LayerCount: 2
Fore
SplineSet
474 -20 m 0,0,1
 324 -20 324 -20 223 83 c 1,2,-1
 141 -45 l 2,3,4
 133 -58 133 -58 123 -58 c 0,5,6
 118 -58 118 -58 112 -55 c 2,7,-1
 63 -29 l 2,8,9
 53 -24 53 -24 53 -15 c 0,10,11
 53 -10 53 -10 57 -3 c 2,12,-1
 162 160 l 1,13,14
 148 182 148 182 136 206 c 0,15,16
 66 342 66 342 66 532 c 0,17,18
 66 664 66 664 82 750 c 0,19,20
 142 1086 142 1086 308 1294 c 0,21,22
 490 1520 490 1520 726 1520 c 0,23,24
 877 1520 877 1520 975 1424 c 1,25,-1
 1059 1555 l 2,26,27
 1067 1568 1067 1568 1077 1568 c 0,28,29
 1082 1568 1082 1568 1088 1565 c 2,30,-1
 1137 1539 l 2,31,32
 1147 1534 1147 1534 1147 1525 c 0,33,34
 1147 1520 1147 1520 1143 1513 c 2,35,-1
 1036 1347 l 1,36,37
 1051 1322 1051 1322 1064 1294 c 0,38,39
 1134 1148 1134 1148 1134 968 c 0,40,41
 1134 838 1134 838 1118 750 c 0,42,43
 1060 414 1060 414 892 206 c 0,44,45
 712 -20 712 -20 474 -20 c 0,0,1
487 140 m 0,46,47
 639 140 639 140 761 311 c 0,48,49
 890 492 890 492 938 750 c 0,50,51
 958 857 958 857 958 950 c 0,52,53
 958 1089 958 1089 928 1180 c 1,54,-1
 316 228 l 1,55,56
 378 140 378 140 487 140 c 0,46,47
270 327 m 1,57,-1
 880 1277 l 1,58,59
 819 1360 819 1360 713 1360 c 0,60,61
 561 1360 561 1360 439 1189 c 0,62,63
 309 1009 309 1009 264 750 c 0,64,65
 244 636 244 636 244 538 c 0,66,67
 244 411 244 411 270 327 c 1,57,-1
EndSplineSet
Validated: 1
EndChar

StartChar: oslash
Encoding: 248 248 168
Width: 1200
Flags: W
HStem: -20 156<414.59 669.968> 965 155<526.659 786.75>
VStem: 136 172<246.104 693.576> 889 175<400.876 852.833>
DStem2: 178 -22 260 -65 0.541223 0.840879<-11.4388 122.905 316.223 1102.24 1293.7 1430.74>
LayerCount: 2
Fore
SplineSet
507 -20 m 0,0,1
 398 -20 398 -20 320 28 c 1,2,-1
 260 -65 l 2,3,4
 252 -77 252 -77 242 -77 c 0,5,6
 239 -77 239 -77 233 -74 c 2,7,-1
 182 -49 l 2,8,9
 172 -44 172 -44 172 -35 c 0,10,11
 172 -31 172 -31 178 -22 c 2,12,-1
 249 89 l 1,13,14
 236 104 236 104 224 122 c 0,15,16
 136 253 136 253 136 432 c 0,17,18
 136 488 136 488 144 550 c 0,19,20
 179 827 179 827 349 982 c 0,21,22
 500 1120 500 1120 690 1120 c 0,23,24
 799 1120 799 1120 880 1069 c 1,25,-1
 941 1165 l 2,26,27
 949 1177 949 1177 959 1177 c 0,28,29
 962 1177 962 1177 969 1174 c 2,30,-1
 1019 1149 l 2,31,32
 1028 1145 1028 1145 1028 1135 c 0,33,34
 1028 1129 1028 1129 1024 1122 c 2,35,-1
 951 1009 l 1,36,37
 965 994 965 994 977 976 c 0,38,39
 1064 855 1064 855 1064 673 c 0,40,41
 1064 615 1064 615 1056 550 c 0,42,43
 1024 284 1024 284 856 118 c 0,44,45
 715 -20 715 -20 507 -20 c 0,0,1
528 136 m 0,46,47
 638 136 638 136 741 237 c 0,48,49
 858 354 858 354 881 550 c 0,50,51
 889 618 889 618 889 675 c 0,52,53
 889 786 889 786 852 855 c 1,54,-1
 413 173 l 1,55,56
 464 136 464 136 528 136 c 0,46,47
349 244 m 1,57,-1
 789 929 l 1,58,59
 740 965 740 965 673 965 c 0,60,61
 558 965 558 965 463 869 c 0,62,63
 342 747 342 747 318 553 c 0,64,65
 309 481 309 481 308 422 c 0,66,67
 308 311 308 311 349 244 c 1,57,-1
EndSplineSet
Validated: 1
EndChar

StartChar: Thorn
Encoding: 222 222 169
Width: 1200
Flags: W
HStem: 0 21G<121.5 248> 269 160<349 719.184> 1071 160<490 828.596> 1480 20G<382 508.5>
VStem: 911 182<636.406 985.498>
DStem2: 93.36 0 273.36 0 0.173648 0.984808<36.7911 304.269 466.874 1118.74 1281.17 1517.4>
LayerCount: 2
Fore
SplineSet
143 0 m 2,0,1
 100 0 100 0 100 36 c 0,2,3
 100 42 100 42 102 49 c 2,4,-1
 349 1451 l 2,5,6
 357 1500 357 1500 407 1500 c 2,7,-1
 487 1500 l 2,8,9
 530 1500 530 1500 530 1464 c 0,10,11
 530 1458 530 1458 529 1451 c 2,12,-1
 490 1231 l 9,13,-1
 683 1231 l 2,14,15
 906 1231 906 1231 1019 1082 c 0,16,17
 1093 985 1093 985 1093 829 c 0,18,19
 1093 791 1093 791 1088 750 c 0,20,21
 1068 551 1068 551 922 418 c 0,22,23
 760 269 760 269 533 269 c 2,24,-1
 320 269 l 1,25,-1
 282 49 l 2,26,27
 273 0 273 0 223 0 c 2,28,-1
 143 0 l 2,0,1
462 1071 m 1,29,-1
 349 429 l 1,30,-1
 572 429 l 2,31,32
 696 429 696 429 796 534 c 0,33,34
 880 621 880 621 903 751 c 0,35,36
 911 793 911 793 911 831 c 0,37,38
 911 911 911 911 877 970 c 0,39,40
 820 1071 820 1071 685 1071 c 2,41,-1
 462 1071 l 1,29,-1
EndSplineSet
Validated: 1
EndChar

StartChar: thorn
Encoding: 254 254 170
Width: 1200
Flags: W
HStem: -400 21G<98 222> -20 157<401.704 689.743> 965 155<556.831 813.461> 1480 20G<429.5 554>
VStem: 915 166<423.438 857.707>
DStem2: 73.2416 -400 243.242 -400 0.173648 0.984808<32.8721 510.864 636.266 1367.61 1479.54 1927.03>
LayerCount: 2
Fore
SplineSet
537 -20 m 0,0,1
 405 -20 405 -20 327 74 c 1,2,-1
 251 -356 l 2,3,4
 243 -400 243 -400 201 -400 c 2,5,-1
 116 -400 l 2,6,7
 80 -400 80 -400 80 -368 c 0,8,9
 80 -362 80 -362 81 -356 c 2,10,-1
 401 1456 l 2,11,12
 408 1500 408 1500 451 1500 c 2,13,-1
 536 1500 l 2,14,15
 572 1500 572 1500 572 1469 c 0,16,17
 572 1463 572 1463 571 1456 c 2,18,-1
 495 1028 l 1,19,20
 589 1120 589 1120 718 1120 c 0,21,22
 898 1120 898 1120 993 981 c 0,23,24
 1081 853 1081 853 1081 666 c 0,25,26
 1081 610 1081 610 1073 550 c 0,27,28
 1040 284 1040 284 862 121 c 0,29,30
 710 -20 710 -20 537 -20 c 0,0,1
357 244 m 1,31,32
 404 137 404 137 530 137 c 128,-1,33
 656 137 656 137 754 231 c 0,34,35
 866 340 866 340 903 548 c 0,36,37
 915 616 915 616 915 678 c 0,38,39
 915 793 915 793 868 863 c 0,40,41
 800 965 800 965 674 965 c 0,42,43
 550 965 550 965 465 854 c 1,44,-1
 357 244 l 1,31,32
EndSplineSet
Validated: 1
EndChar

StartChar: uni203D
Encoding: 8253 8253 171
Width: 1200
Flags: W
HStem: -20 264<239.253 424.777> 1360 160<396.305 742.011>
VStem: 198 268<19.2227 205.323> 838 180<954.784 1265.96>
DStem2: 223.303 -20 403.303 -20 0.173648 0.984808<474.361 630.441 808.025 1169.9>
LayerCount: 2
Fore
SplineSet
332 244 m 0,0,1
 391 244 391 244 426 208 c 0,2,3
 466 167 466 167 466 112 c 128,-1,4
 466 57 466 57 426 18 c 0,5,6
 387 -20 387 -20 332 -20 c 0,7,8
 275 -20 275 -20 238 16 c 0,9,10
 198 55 198 55 198 112 c 128,-1,11
 198 169 198 169 238 206.5 c 128,-1,12
 278 244 278 244 332 244 c 0,0,1
599 1520 m 0,13,14
 815 1520 815 1520 933 1376 c 0,15,16
 1018 1272 1018 1272 1018 1130 c 0,17,18
 1018 1101 1018 1101 1015 1070 c 0,19,20
 986 774 986 774 609 600 c 0,21,22
 505 552 505 552 486 449 c 0,23,24
 482 427 482 427 469 418 c 0,25,26
 458 410 458 410 439 410 c 2,27,-1
 339 410 l 2,28,29
 305 410 305 410 305 436 c 0,30,31
 305 442 305 442 306 449 c 2,32,-1
 415 1076 l 2,33,34
 424 1125 424 1125 474 1125 c 2,35,-1
 554 1125 l 2,36,37
 597 1125 597 1125 597 1088 c 0,38,-1
 595 1076 l 2,39,-1
 538 745 l 1,40,41
 804 859 804 859 834 1072 c 0,42,43
 838 1100 838 1100 838 1126 c 0,44,45
 838 1199 838 1199 803 1253 c 0,46,47
 734 1360 734 1360 580 1360 c 0,48,49
 422 1360 422 1360 318 1256 c 0,50,51
 299 1237 299 1237 287 1237 c 0,52,53
 274 1237 274 1237 261 1248 c 2,54,-1
 194 1305 l 2,55,56
 182 1315 182 1315 182 1332 c 0,57,58
 182 1345 182 1345 198 1361 c 0,59,60
 357 1520 357 1520 599 1520 c 0,13,14
EndSplineSet
Validated: 1
EndChar

StartChar: uni1E02
Encoding: 7682 7682 172
Width: 1200
Flags: W
HStem: 0 160<292 673.111> 746 160<424 766.695> 1340 160<500 832.895> 1630 244<630.097 797.903>
VStem: 594 240<1667.13 1836.87> 859 175<339.297 656.044> 886 169<1020.26 1286.55>
DStem2: 94.1232 0 263.788 0 0.173648 0.984808<191.93 787.087 949.518 1390.12>
LayerCount: 2
Fore
SplineSet
714 1874 m 128,-1,1
 764 1874 764 1874 799 1838 c 128,-1,2
 834 1802 834 1802 834 1752 c 128,-1,3
 834 1702 834 1702 799 1666 c 128,-1,4
 764 1630 764 1630 714 1630 c 128,-1,5
 664 1630 664 1630 629 1666 c 128,-1,6
 594 1702 594 1702 594 1752 c 128,-1,7
 594 1802 594 1802 629 1838 c 128,-1,0
 664 1874 664 1874 714 1874 c 128,-1,1
424 906 m 1,8,-1
 619 906 l 2,9,10
 715 906 715 906 785 959 c 0,11,12
 864 1019 864 1019 882 1123 c 0,13,14
 886 1148 886 1148 886 1171 c 0,15,16
 886 1242 886 1242 843 1287 c 0,17,18
 791 1340 791 1340 695 1340 c 2,19,-1
 500 1340 l 1,20,-1
 424 906 l 1,8,-1
292 160 m 1,21,-1
 487 160 l 2,22,23
 648 160 648 160 751 258 c 0,24,25
 835 337 835 337 854 452 c 0,26,27
 859 482 859 482 859 514 c 0,28,29
 859 591 859 591 821 647 c 0,30,31
 754 746 754 746 591 746 c 2,32,-1
 396 746 l 1,33,-1
 292 160 l 1,21,-1
134 0 m 2,34,35
 100 0 100 0 100 27 c 0,36,37
 100 33 100 33 101 39 c 2,38,-1
 352 1461 l 2,39,40
 356 1483 356 1483 369 1492 c 0,41,42
 379 1500 379 1500 398 1500 c 2,43,-1
 713 1500 l 2,44,45
 876 1500 876 1500 963 1410 c 0,46,47
 1055 1318 1055 1318 1055 1166 c 0,48,49
 1055 953 1055 953 849 842 c 1,50,51
 895 822 895 822 940 777 c 0,52,53
 1034 682 1034 682 1034 516 c 24,54,55
 1034 279 1034 279 863 134 c 0,56,57
 705 0 705 0 469 0 c 2,58,-1
 134 0 l 2,34,35
EndSplineSet
Validated: 1
EndChar

StartChar: uni1E03
Encoding: 7683 7683 173
Width: 1200
Flags: W
HStem: -20 155<352.004 631.444> 0 21G<118 242> 963 157<513.015 767.678> 1220 244<645.097 812.903> 1480 20G<379 503>
VStem: 609 240<1257.13 1426.87> 865 169<426.374 857.625>
DStem2: 89.7151 -20 259.715 -20 0.173648 0.984808<53.1807 122.95 250.198 981.673 1091.63 1541.06>
LayerCount: 2
Fore
SplineSet
729 1464 m 128,-1,1
 779 1464 779 1464 814 1428 c 128,-1,2
 849 1392 849 1392 849 1342 c 128,-1,3
 849 1292 849 1292 814 1256 c 128,-1,4
 779 1220 779 1220 729 1220 c 128,-1,5
 679 1220 679 1220 644 1256 c 128,-1,6
 609 1292 609 1292 609 1342 c 128,-1,7
 609 1392 609 1392 644 1428 c 128,-1,0
 679 1464 679 1464 729 1464 c 128,-1,1
136 0 m 2,8,9
 100 0 100 0 100 32 c 0,10,11
 100 38 100 38 101 44 c 2,12,-1
 350 1456 l 2,13,14
 358 1500 358 1500 400 1500 c 2,15,-1
 485 1500 l 2,16,17
 521 1500 521 1500 521 1469 c 0,18,19
 521 1462 521 1462 520 1456 c 2,20,-1
 444 1026 l 1,21,22
 555 1120 555 1120 667 1120 c 0,23,24
 828 1120 828 1120 931 997.5 c 128,-1,25
 1034 875 1034 875 1034 683 c 0,26,27
 1034 620 1034 620 1022 550 c 0,28,29
 976 289 976 289 815 119 c 0,30,31
 683 -20 683 -20 486 -20 c 0,32,33
 356 -20 356 -20 276 72 c 1,34,-1
 271 44 l 2,35,36
 263 0 263 0 221 0 c 2,37,-1
 136 0 l 2,8,9
414 856 m 1,38,-1
 306 246 l 1,39,40
 352 135 352 135 477 135 c 0,41,42
 603 135 603 135 707 237 c 0,43,44
 816 344 816 344 852 552 c 0,45,46
 864 621 864 621 865 680 c 0,47,48
 865 797 865 797 815 869 c 0,49,50
 751 963 751 963 625 963 c 128,-1,51
 499 963 499 963 414 856 c 1,38,-1
EndSplineSet
Validated: 1
EndChar

StartChar: uni1E0A
Encoding: 7690 7690 174
Width: 1200
Flags: W
HStem: 0 160<251 638.75> 1340 160<459 830.637> 1630 244<630.097 797.903>
VStem: 594 240<1667.13 1836.87> 958 175<653.996 1195.17>
DStem2: 43.36 0 222.788 0 0.173648 0.984808<193.626 1391.82>
LayerCount: 2
Fore
SplineSet
714 1874 m 128,-1,1
 764 1874 764 1874 799 1838 c 128,-1,2
 834 1802 834 1802 834 1752 c 128,-1,3
 834 1702 834 1702 799 1666 c 128,-1,4
 764 1630 764 1630 714 1630 c 128,-1,5
 664 1630 664 1630 629 1666 c 128,-1,6
 594 1702 594 1702 594 1752 c 128,-1,7
 594 1802 594 1802 629 1838 c 128,-1,0
 664 1874 664 1874 714 1874 c 128,-1,1
93 0 m 2,8,9
 50 0 50 0 50 36 c 0,10,11
 50 38 50 38 52 49 c 2,12,-1
 299 1451 l 2,13,14
 308 1500 308 1500 357 1500 c 2,15,-1
 687 1500 l 2,16,17
 955 1500 955 1500 1065 1274 c 0,18,19
 1133 1134 1133 1134 1133 958 c 0,20,21
 1133 859 1133 859 1114 750 c 0,22,23
 1058 433 1058 433 900 226 c 0,24,25
 727 0 727 0 443 0 c 2,26,-1
 93 0 l 2,8,9
251 160 m 1,27,-1
 461 160 l 2,28,29
 660 160 660 160 774 331 c 0,30,31
 892 508 892 508 935 750 c 0,32,33
 958 881 958 881 958 977.5 c 128,-1,34
 958 1074 958 1074 930 1155 c 0,35,36
 870 1340 870 1340 669 1340 c 2,37,-1
 459 1340 l 1,38,-1
 251 160 l 1,27,-1
EndSplineSet
Validated: 1
EndChar

StartChar: uni1E0B
Encoding: 7691 7691 175
Width: 1200
Flags: W
HStem: -20 155<367.982 615.301> 0 21G<698 822> 963 157<491.595 779.329> 1220 244<605.097 772.903> 1480 20G<959 1083>
VStem: 98 168<241.664 671.956> 569 240<1257.13 1426.87>
DStem2: 670.715 -20 840.715 -20 0.173648 0.984808<52.0528 93.2565 205.279 936.541 1061.94 1540.1>
LayerCount: 2
Fore
SplineSet
689 1464 m 128,-1,1
 739 1464 739 1464 774 1428 c 128,-1,2
 809 1392 809 1392 809 1342 c 128,-1,3
 809 1292 809 1292 774 1256 c 128,-1,4
 739 1220 739 1220 689 1220 c 128,-1,5
 639 1220 639 1220 604 1256 c 128,-1,6
 569 1292 569 1292 569 1342 c 128,-1,7
 569 1392 569 1392 604 1428 c 128,-1,0
 639 1464 639 1464 689 1464 c 128,-1,1
716 0 m 2,8,9
 680 0 680 0 680 31 c 0,10,11
 680 38 680 38 682 44 c 2,12,-1
 686 72 l 1,13,14
 572 -20 572 -20 462 -20 c 0,15,16
 284 -20 284 -20 188 119 c 0,17,18
 98 250 98 250 98 423 c 0,19,20
 98 496 98 496 108 550 c 0,21,22
 156 824 156 824 312 980 c 0,23,24
 452 1120 452 1120 644 1120 c 0,25,26
 776 1120 776 1120 854 1026 c 1,27,-1
 930 1456 l 2,28,29
 938 1500 938 1500 980 1500 c 2,30,-1
 1064 1500 l 2,31,32
 1102 1500 1102 1500 1102 1468 c 0,33,34
 1102 1462 1102 1462 1100 1456 c 2,35,-1
 852 44 l 2,36,37
 844 0 844 0 800 0 c 2,38,-1
 716 0 l 2,8,9
824 856 m 1,39,40
 777 963 777 963 651.5 963 c 128,-1,41
 526 963 526 963 428 869 c 0,42,43
 316 760 316 760 278 552 c 0,44,45
 266 485 266 485 266 422 c 0,46,47
 266 307 266 307 314 237 c 0,48,49
 382 135 382 135 508 135 c 0,50,51
 632 135 632 135 716 246 c 1,52,-1
 824 856 l 1,39,40
EndSplineSet
Validated: 1
EndChar

StartChar: uni1E1E
Encoding: 7710 7710 176
Width: 1200
Flags: W
HStem: 0 21G<141.5 268> 675 160<440 852.066> 1340 160<529 1135.07> 1630 244<710.097 877.903>
VStem: 674 240<1667.13 1836.87>
DStem2: 113.36 0 293.36 0 0.173648 0.984808<36.7911 716.604 879.035 1391.82>
LayerCount: 2
Fore
SplineSet
794 1874 m 128,-1,1
 844 1874 844 1874 879 1838 c 128,-1,2
 914 1802 914 1802 914 1752 c 128,-1,3
 914 1702 914 1702 879 1666 c 128,-1,4
 844 1630 844 1630 794 1630 c 128,-1,5
 744 1630 744 1630 709 1666 c 128,-1,6
 674 1702 674 1702 674 1752 c 128,-1,7
 674 1802 674 1802 709 1838 c 128,-1,0
 744 1874 744 1874 794 1874 c 128,-1,1
243 0 m 2,8,-1
 163 0 l 2,9,10
 120 0 120 0 120 36 c 0,11,12
 120 42 120 42 122 49 c 2,13,-1
 369 1451 l 2,14,15
 378 1500 378 1500 427 1500 c 2,16,-1
 1105 1500 l 2,17,18
 1148 1500 1148 1500 1148 1464 c 0,19,20
 1148 1458 1148 1458 1147 1451 c 2,21,-1
 1136 1389 l 2,22,23
 1127 1340 1127 1340 1077 1340 c 2,24,-1
 529 1340 l 1,25,-1
 440 835 l 1,26,-1
 822 835 l 2,27,28
 865 835 865 835 865 799 c 0,29,30
 865 793 865 793 864 786 c 2,31,-1
 853 724 l 2,32,33
 844 675 844 675 794 675 c 2,34,-1
 412 675 l 1,35,-1
 302 49 l 2,36,37
 293 0 293 0 243 0 c 2,8,-1
EndSplineSet
Validated: 1
EndChar

StartChar: uni1E1F
Encoding: 7711 7711 177
Width: 1200
Flags: W
HStem: 0 21G<294.5 411> 740 150<91.1665 396 593 907.864> 1350 150<763.516 1081.57> 1630 244<770.097 937.903>
VStem: 734 240<1667.13 1836.87>
DStem2: 266.36 0 436.36 0 0.173648 0.984808<36.7911 751.269 933.199 1312.44>
LayerCount: 2
Fore
SplineSet
854 1874 m 128,-1,1
 904 1874 904 1874 939 1838 c 128,-1,2
 974 1802 974 1802 974 1752 c 128,-1,3
 974 1702 974 1702 939 1666 c 128,-1,4
 904 1630 904 1630 854 1630 c 128,-1,5
 804 1630 804 1630 769 1666 c 128,-1,6
 734 1702 734 1702 734 1752 c 128,-1,7
 734 1802 734 1802 769 1838 c 128,-1,0
 804 1874 804 1874 854 1874 c 128,-1,1
316 0 m 2,8,9
 273 0 273 0 273 36 c 0,10,11
 273 42 273 42 275 49 c 2,12,-1
 396 740 l 1,13,-1
 122 740 l 2,14,15
 80 740 80 740 80 776 c 0,16,17
 80 782 80 782 81 789 c 2,18,-1
 90 841 l 2,19,20
 99 890 99 890 149 890 c 2,21,-1
 423 890 l 1,22,-1
 459 1092 l 2,23,24
 494 1294 494 1294 615 1394 c 0,25,26
 742 1500 742 1500 935 1500 c 2,27,-1
 1050 1500 l 2,28,29
 1093 1500 1093 1500 1093 1464 c 0,30,31
 1093 1458 1093 1458 1092 1451 c 2,32,-1
 1083 1399 l 2,33,34
 1074 1350 1074 1350 1024 1350 c 2,35,-1
 919 1350 l 2,36,37
 814 1350 814 1350 732.5 1285 c 128,-1,38
 651 1220 651 1220 632 1114 c 2,39,-1
 593 890 l 1,40,-1
 877 890 l 2,41,42
 920 890 920 890 920 854 c 0,43,44
 920 848 920 848 918 841 c 2,45,-1
 909 789 l 2,46,47
 900 740 900 740 850 740 c 2,48,-1
 566 740 l 1,49,-1
 445 49 l 2,50,51
 436 0 436 0 386 0 c 2,52,-1
 316 0 l 2,8,9
EndSplineSet
Validated: 1
EndChar

StartChar: uni1E40
Encoding: 7744 7744 178
Width: 1200
Flags: W
HStem: 0 21G<16.5 132.5 806.5 922.5> 1480 20G<277.5 480 984.5 1183.5> 1630 244<710.097 877.903>
VStem: 674 240<1667.13 1836.87>
DStem2: -12.64 0 157.36 0 0.173648 0.984808<36.9647 1268.43> 504 1451 373 1220 0.102899 -0.994692<216.294 787.179> 585 668 668 517 0.416775 0.90901<0 671.817> 777.36 0 947.36 0 0.173648 0.984808<36.9647 1238.91>
LayerCount: 2
Fore
SplineSet
794 1874 m 128,-1,1
 844 1874 844 1874 879 1838 c 128,-1,2
 914 1802 914 1802 914 1752 c 128,-1,3
 914 1702 914 1702 879 1666 c 128,-1,4
 844 1630 844 1630 794 1630 c 128,-1,5
 744 1630 744 1630 709 1666 c 128,-1,6
 674 1702 674 1702 674 1752 c 128,-1,7
 674 1802 674 1802 709 1838 c 128,-1,0
 744 1874 744 1874 794 1874 c 128,-1,1
38 0 m 2,8,9
 -5 0 -5 0 -5 36 c 0,10,11
 -5 42 -5 42 -4 49 c 2,12,-1
 244 1451 l 2,13,14
 253 1500 253 1500 302 1500 c 2,15,-1
 462 1500 l 2,16,17
 498 1500 498 1500 504 1451 c 2,18,-1
 585 668 l 1,19,-1
 944 1451 l 2,20,21
 967 1500 967 1500 1002 1500 c 2,22,-1
 1162 1500 l 2,23,24
 1205 1500 1205 1500 1205 1464 c 0,25,26
 1205 1458 1205 1458 1204 1451 c 2,27,-1
 956 49 l 2,28,29
 947 0 947 0 898 0 c 2,30,-1
 828 0 l 2,31,32
 785 0 785 0 785 36 c 0,33,34
 785 42 785 42 786 49 c 2,35,-1
 993 1220 l 1,36,-1
 668 517 l 2,37,38
 645 468 645 468 609 468 c 2,39,-1
 489 468 l 2,40,41
 453 468 453 468 448 516 c 2,42,-1
 373 1220 l 1,43,-1
 166 49 l 2,44,45
 157 0 157 0 108 0 c 2,46,-1
 38 0 l 2,8,9
EndSplineSet
Validated: 1
EndChar

StartChar: uni1E41
Encoding: 7745 7745 179
Width: 1200
Flags: W
HStem: 0 21G<37 148.5 467 578.5 897 1008.5> 971 149<402.076 571.718 825.716 1002.57> 1080 20G<227.5 339> 1220 244<665.097 832.903>
VStem: 629 240<1257.13 1426.87> 1019 163<738.606 926.246>
DStem2: 11.2416 0 171.242 0 0.173648 0.984808<32.8721 991.934 1069.58 1111.8> 441.242 0 601.242 0 0.173648 0.984808<32.8721 874.809> 871.242 0 1031.24 0 0.173648 0.984808<32.8721 874.809>
LayerCount: 2
Fore
SplineSet
749 1464 m 128,-1,1
 799 1464 799 1464 834 1428 c 128,-1,2
 869 1392 869 1392 869 1342 c 128,-1,3
 869 1292 869 1292 834 1256 c 128,-1,4
 799 1220 799 1220 749 1220 c 128,-1,5
 699 1220 699 1220 664 1256 c 128,-1,6
 629 1292 629 1292 629 1342 c 128,-1,7
 629 1392 629 1392 664 1428 c 128,-1,0
 699 1464 699 1464 749 1464 c 128,-1,1
56 0 m 2,8,9
 18 0 18 0 18 32 c 0,10,11
 18 38 18 38 19 44 c 2,12,-1
 197 1056 l 2,13,14
 205 1100 205 1100 250 1100 c 2,15,-1
 320 1100 l 2,16,17
 358 1100 358 1100 358 1068 c 0,18,19
 358 1062 358 1062 357 1056 c 2,20,-1
 352 1026 l 1,21,22
 424 1120 424 1120 543 1120 c 0,23,24
 647 1120 647 1120 704 1041 c 0,25,26
 720 1018 720 1018 729 991 c 1,27,28
 840 1120 840 1120 973 1120 c 0,29,30
 1072 1120 1072 1120 1134 1041 c 0,31,32
 1182 978 1182 978 1182 887 c 0,33,34
 1182 853 1182 853 1175 816 c 2,35,-1
 1039 44 l 2,36,37
 1031 0 1031 0 986 0 c 2,38,-1
 916 0 l 2,39,40
 878 0 878 0 878 32 c 0,41,42
 878 38 878 38 879 44 c 2,43,-1
 1015 816 l 2,44,45
 1019 839 1019 839 1019 863 c 0,46,47
 1019 903 1019 903 1003 927 c 0,48,49
 975 971 975 971 907 971 c 0,50,51
 800 971 800 971 753 861 c 9,52,-1
 609 44 l 2,53,54
 601 0 601 0 556 0 c 2,55,-1
 486 0 l 2,56,57
 448 0 448 0 448 32 c 0,58,59
 448 38 448 38 449 44 c 2,60,-1
 585 816 l 2,61,62
 589 839 589 839 589 863 c 0,63,64
 589 903 589 903 573 927 c 0,65,66
 545 971 545 971 477 971 c 0,67,68
 370 971 370 971 323 861 c 1,69,-1
 179 44 l 2,70,71
 171 0 171 0 126 0 c 2,72,-1
 56 0 l 2,8,9
EndSplineSet
Validated: 1
EndChar

StartChar: uni1E56
Encoding: 7766 7766 180
Width: 1200
Flags: W
HStem: 0 21G<121.5 248> 538 160<396 770.406> 1340 160<509 879.636> 1630 244<640.097 807.903>
VStem: 604 240<1667.13 1836.87> 954 181<888.547 1263.11>
DStem2: 93.36 0 273.36 0 0.173648 0.984808<34.8219 577.517 739.949 1391.82>
LayerCount: 2
Fore
SplineSet
724 1874 m 128,-1,1
 774 1874 774 1874 809 1838 c 128,-1,2
 844 1802 844 1802 844 1752 c 128,-1,3
 844 1702 844 1702 809 1666 c 128,-1,4
 774 1630 774 1630 724 1630 c 128,-1,5
 674 1630 674 1630 639 1666 c 128,-1,6
 604 1702 604 1702 604 1752 c 128,-1,7
 604 1802 604 1802 639 1838 c 128,-1,0
 674 1874 674 1874 724 1874 c 128,-1,1
223 0 m 2,8,-1
 143 0 l 2,9,10
 100 0 100 0 100 34 c 0,11,12
 100 40 100 40 102 49 c 2,13,-1
 349 1451 l 2,14,15
 358 1500 358 1500 407 1500 c 2,16,-1
 730 1500 l 2,17,18
 951 1500 951 1500 1059 1348 c 0,19,20
 1135 1242 1135 1242 1135 1068 c 0,21,22
 1135 841 1135 841 969 687 c 0,23,24
 807 538 807 538 581 538 c 2,25,-1
 368 538 l 1,26,-1
 282 49 l 2,27,28
 273 0 273 0 223 0 c 2,8,-1
509 1340 m 1,29,-1
 396 698 l 1,30,-1
 619 698 l 2,31,32
 747 698 747 698 853 808 c 0,33,34
 954 913 954 913 954 1081 c 0,35,36
 954 1176 954 1176 925 1236 c 0,37,38
 875 1340 875 1340 732 1340 c 2,39,-1
 509 1340 l 1,29,-1
EndSplineSet
Validated: 1
EndChar

StartChar: uni1E57
Encoding: 7767 7767 181
Width: 1200
Flags: W
HStem: -400 21G<98 222> -20 157<401.704 688.829> 965 155<560.178 814.011> 1080 20G<359.5 483.5> 1220 244<665.097 832.903>
VStem: 629 240<1257.13 1426.87> 915 170<425.5 857.658>
DStem2: 73.2416 -400 243.242 -400 0.173648 0.984808<32.8721 510.864 636.266 1367.61 1479.54 1520.78>
LayerCount: 2
Fore
SplineSet
749 1464 m 128,-1,1
 799 1464 799 1464 834 1428 c 128,-1,2
 869 1392 869 1392 869 1342 c 128,-1,3
 869 1292 869 1292 834 1256 c 128,-1,4
 799 1220 799 1220 749 1220 c 128,-1,5
 699 1220 699 1220 664 1256 c 128,-1,6
 629 1292 629 1292 629 1342 c 128,-1,7
 629 1392 629 1392 664 1428 c 128,-1,0
 699 1464 699 1464 749 1464 c 128,-1,1
537 -20 m 0,8,9
 405 -20 405 -20 327 74 c 1,10,-1
 251 -356 l 2,11,12
 243 -400 243 -400 201 -400 c 2,13,-1
 116 -400 l 2,14,15
 80 -400 80 -400 80 -368 c 0,16,17
 80 -362 80 -362 81 -356 c 2,18,-1
 330 1056 l 2,19,20
 338 1100 338 1100 381 1100 c 2,21,-1
 466 1100 l 2,22,23
 501 1100 501 1100 501 1069 c 0,24,25
 501 1063 501 1063 500 1056 c 2,26,-1
 495 1028 l 1,27,28
 597 1120 597 1120 718 1120 c 0,29,30
 889 1120 889 1120 993 981 c 0,31,32
 1085 856 1085 856 1085 682 c 0,33,34
 1085 619 1085 619 1073 550 c 0,35,36
 1027 289 1027 289 871 124 c 0,37,38
 735 -20 735 -20 537 -20 c 0,8,9
357 244 m 1,39,40
 404 137 404 137 530 137 c 128,-1,41
 656 137 656 137 754 231 c 0,42,43
 865 339 865 339 903 548 c 0,44,45
 915 614 915 614 915 678 c 0,46,47
 915 793 915 793 868 863 c 0,48,49
 800 965 800 965 674 965 c 0,50,51
 550 965 550 965 465 854 c 1,52,-1
 357 244 l 1,39,40
EndSplineSet
Validated: 1
EndChar

StartChar: uni1E60
Encoding: 7776 7776 182
Width: 1200
Flags: W
HStem: -20 160<314.505 640.436> 1360 160<598.174 846.472> 1630 244<710.097 877.903>
VStem: 341 180<1032.16 1280.84> 674 240<1667.13 1836.87> 834 191<331.095 626.002>
DStem2: 659 954 526 811 0.865769 -0.500444<-166.616 304.704>
LayerCount: 2
Fore
SplineSet
794 1874 m 128,-1,1
 844 1874 844 1874 879 1838 c 128,-1,2
 914 1802 914 1802 914 1752 c 128,-1,3
 914 1702 914 1702 879 1666 c 128,-1,4
 844 1630 844 1630 794 1630 c 128,-1,5
 744 1630 744 1630 709 1666 c 128,-1,6
 674 1702 674 1702 674 1752 c 128,-1,7
 674 1802 674 1802 709 1838 c 128,-1,0
 744 1874 744 1874 794 1874 c 128,-1,1
450 -20 m 0,8,9
 210 -20 210 -20 66 195 c 0,10,11
 60 204 60 204 60 215 c 0,12,13
 60 235 60 235 84 252 c 2,14,-1
 163 307 l 2,15,16
 177 317 177 317 190 317 c 0,17,18
 207 317 207 317 217 298 c 0,19,20
 300 140 300 140 466 140 c 0,21,22
 616 140 616 140 724 248 c 0,23,24
 834 354 834 354 834 482 c 0,25,26
 834 632 834 632 684 719 c 2,27,-1
 526 811 l 2,28,29
 341 919 341 919 341 1125 c 24,30,31
 341 1326 341 1326 501 1447 c 0,32,33
 598 1520 598 1520 741 1520 c 0,34,35
 942 1520 942 1520 1029 1372 c 0,36,37
 1036 1360 1036 1360 1036 1351 c 0,38,39
 1036 1330 1036 1330 1012 1315 c 2,40,-1
 934 1265 l 2,41,42
 917 1254 917 1254 905 1254 c 0,43,44
 894 1254 894 1254 882 1273 c 0,45,46
 827 1360 827 1360 732 1360 c 0,47,48
 646 1360 646 1360 591 1309 c 0,49,50
 521 1244 521 1244 521 1148 c 0,51,52
 521 1034 521 1034 659 954 c 2,53,-1
 832 854 l 2,54,55
 1025 742 1025 742 1025 510 c 24,56,57
 1025 300 1025 300 870 148 c 0,58,59
 700 -20 700 -20 450 -20 c 0,8,9
EndSplineSet
Validated: 1
EndChar

StartChar: uni1E61
Encoding: 7777 7777 183
Width: 1200
Flags: W
HStem: -20 151<353.7 663.542> 969 151<578.743 799.798> 1220 244<665.097 832.903>
VStem: 358 170<748.279 931.796> 629 240<1257.13 1426.87> 777 175<234.026 453.777>
DStem2: 651 701 562 540 0.919528 -0.393024<-146.274 223.289>
LayerCount: 2
Fore
SplineSet
749 1464 m 128,-1,1
 799 1464 799 1464 834 1428 c 128,-1,2
 869 1392 869 1392 869 1342 c 128,-1,3
 869 1292 869 1292 834 1256 c 128,-1,4
 799 1220 799 1220 749 1220 c 128,-1,5
 699 1220 699 1220 664 1256 c 128,-1,6
 629 1292 629 1292 629 1342 c 128,-1,7
 629 1392 629 1392 664 1428 c 128,-1,0
 699 1464 699 1464 749 1464 c 128,-1,1
491 -20 m 0,8,9
 285 -20 285 -20 159 119 c 0,10,11
 150 129 150 129 150 141 c 0,12,13
 150 160 150 160 175 182 c 2,14,-1
 236 235 l 2,15,16
 250 247 250 247 264 247 c 0,17,18
 283 247 283 247 297 229 c 0,19,20
 377 131 377 131 500 131 c 0,21,22
 599 131 599 131 676 184 c 0,23,24
 777 252 777 252 777 346 c 0,25,26
 777 453 777 453 663 499 c 2,27,-1
 562 540 l 2,28,29
 358 623 358 623 358 804 c 0,30,31
 358 959 358 959 482 1051 c 0,32,33
 575 1120 575 1120 706 1120 c 0,34,35
 887 1120 887 1120 961 1002 c 0,36,37
 970 988 970 988 970 974 c 0,38,39
 970 959 970 959 946 938 c 2,40,-1
 886 887 l 2,41,42
 872 875 872 875 858 875 c 0,43,44
 837 875 837 875 825 893 c 0,45,46
 777 968 777 968 688 969 c 0,47,48
 629 969 629 969 589 944 c 0,49,50
 528 904 528 904 528 829 c 0,51,52
 530 752 530 752 651 701 c 2,53,-1
 775 648 l 2,54,55
 952 573 952 573 952 377 c 0,56,57
 952 207 952 207 812 92 c 0,58,59
 675 -20 675 -20 491 -20 c 0,8,9
EndSplineSet
Validated: 1
EndChar

StartChar: uni1E6A
Encoding: 7786 7786 184
Width: 1200
Flags: W
HStem: 0 21G<354.5 481> 1340 160<193.289 562 742 1140.07> 1630 244<630.097 797.903>
VStem: 594 240<1667.13 1836.87>
DStem2: 326.36 0 506.36 0 0.173648 0.984808<36.7911 1360.56>
LayerCount: 2
Fore
SplineSet
714 1874 m 128,-1,1
 764 1874 764 1874 799 1838 c 128,-1,2
 834 1802 834 1802 834 1752 c 128,-1,3
 834 1702 834 1702 799 1666 c 128,-1,4
 764 1630 764 1630 714 1630 c 128,-1,5
 664 1630 664 1630 629 1666 c 128,-1,6
 594 1702 594 1702 594 1752 c 128,-1,7
 594 1802 594 1802 629 1838 c 128,-1,0
 664 1874 664 1874 714 1874 c 128,-1,1
376 0 m 2,8,9
 333 0 333 0 333 36 c 0,10,11
 333 42 333 42 335 49 c 2,12,-1
 562 1340 l 1,13,-1
 222 1340 l 2,14,15
 180 1340 180 1340 180 1376 c 0,16,17
 180 1382 180 1382 181 1389 c 2,18,-1
 192 1451 l 2,19,20
 201 1500 201 1500 250 1500 c 2,21,-1
 1110 1500 l 2,22,23
 1153 1500 1153 1500 1153 1464 c 0,24,25
 1153 1458 1153 1458 1152 1451 c 2,26,-1
 1141 1389 l 2,27,28
 1132 1340 1132 1340 1082 1340 c 2,29,-1
 742 1340 l 1,30,-1
 515 49 l 2,31,32
 506 0 506 0 456 0 c 2,33,-1
 376 0 l 2,8,9
EndSplineSet
Validated: 1
EndChar

StartChar: uni1E6B
Encoding: 7787 7787 185
Width: 1200
Flags: W
HStem: 0 150<628.584 906.568> 950 150<191.432 497 693 1007.86> 1480 20G<618 734.5> 1630 244<640.097 807.903>
VStem: 393 169<216.793 463.005> 604 240<1667.13 1836.87>
DStem2: 329.059 0 498.938 0 0.173648 0.984808<373.039 964.73 1146.49 1515.71>
LayerCount: 2
Fore
SplineSet
724 1874 m 128,-1,1
 774 1874 774 1874 809 1838 c 128,-1,2
 844 1802 844 1802 844 1752 c 128,-1,3
 844 1702 844 1702 809 1666 c 128,-1,4
 774 1630 774 1630 724 1630 c 128,-1,5
 674 1630 674 1630 639 1666 c 128,-1,6
 604 1702 604 1702 604 1752 c 128,-1,7
 604 1802 604 1802 639 1838 c 128,-1,0
 674 1874 674 1874 724 1874 c 128,-1,1
754 0 m 2,8,9
 561 0 561 0 471 106 c 0,10,11
 393 198 393 198 393 324 c 0,12,13
 393 364 393 364 401 408 c 2,14,-1
 497 950 l 1,15,-1
 223 950 l 2,16,17
 180 950 180 950 180 986 c 0,18,19
 180 992 180 992 181 999 c 2,20,-1
 190 1051 l 2,21,22
 199 1100 199 1100 249 1100 c 2,23,-1
 523 1100 l 1,24,-1
 585 1451 l 2,25,26
 593 1500 593 1500 643 1500 c 2,27,-1
 713 1500 l 2,28,29
 756 1500 756 1500 756 1464 c 0,30,31
 756 1458 756 1458 755 1451 c 2,32,-1
 693 1100 l 1,33,-1
 977 1100 l 2,34,35
 1020 1100 1020 1100 1020 1064 c 0,36,37
 1020 1058 1020 1058 1018 1051 c 2,38,-1
 1009 999 l 2,39,40
 1001 950 1001 950 951 950 c 2,41,-1
 667 950 l 1,42,-1
 567 386 l 2,43,44
 562 360 562 360 562 337 c 0,45,46
 562 264 562 264 607 215 c 0,47,48
 665 150 665 150 770 150 c 2,49,-1
 875 150 l 2,50,51
 918 150 918 150 918 114 c 0,52,53
 918 108 918 108 917 101 c 2,54,-1
 908 49 l 2,55,56
 899 0 899 0 849 0 c 2,57,-1
 754 0 l 2,8,9
EndSplineSet
Validated: 1
EndChar

